<svg class="main-svg" xmlns="http://www.w3.org/2000/svg" xmlns:xlink="http://www.w3.org/1999/xlink" width="600" height="150" style=""><rect x="0" y="0" width="600" height="150" style="fill: rgb(255, 255, 255); fill-opacity: 1;"/><defs id="defs-209c45"><g class="clips"><clipPath id="clip209c45xyplot" class="plotclip"><rect width="548.7926509186352" height="79.78127734033247"/></clipPath><clipPath class="axesclip" id="clip209c45x"><rect x="47.27034120734907" y="0" width="548.7926509186352" height="150"/></clipPath><clipPath class="axesclip" id="clip209c45y"><rect x="0" y="22.887139107611553" width="600" height="79.78127734033247"/></clipPath><clipPath class="axesclip" id="clip209c45xy"><rect x="47.27034120734907" y="22.887139107611553" width="548.7926509186352" height="79.78127734033247"/></clipPath></g><g class="gradients"/><g class="patterns"/></defs><g class="bglayer"/><g class="layer-below"><g class="imagelayer"/><g class="shapelayer"/></g><g class="cartesianlayer"><g class="subplot xy"><g class="layer-subplot"><g class="shapelayer"/><g class="imagelayer"/></g><g class="gridlayer"><g class="x"/><g class="y"/></g><g class="zerolinelayer"/><path class="xlines-below"/><path class="ylines-below"/><g class="overlines-below"/><g class="xaxislayer-below"/><g class="yaxislayer-below"/><g class="overaxes-below"/><g class="plot" transform="translate(47.27034120734907,22.887139107611553)" clip-path="url(#clip209c45xyplot)"><g class="scatterlayer mlayer"><g class="trace scatter trace49aab2" style="stroke-miterlimit: 2; opacity: 1;"><g class="fills"/><g class="errorbars"/><g class="lines"><path class="js-line" d="M0,75.65L3.29,78.24L3.84,78.48L8.23,79.7L8.78,79.73L23.05,79.78L23.6,79.78L25.24,79.55L25.79,78.78L27.99,66.52L28.54,66.9L31.83,71.42L32.38,72.57L35.67,78.54L36.22,78.69L38.96,77.77L39.51,77.54L42.26,76.54L42.81,77.33L44.45,79.65L45,79.73L58.17,79.74L58.72,79.71L62.56,78.77L63.11,78.52L68.05,75.86L68.6,75.08L70.79,72.69L71.34,72.46L80.67,69.75L81.22,69.39L82.32,67.8L82.87,69.18L85.06,76.66L85.61,77.68L87.26,79.5L87.81,79.66L94.39,79.78L94.94,79.78L105.92,79.47L106.47,78.52L108.66,72.63L109.21,72.74L111.4,74.87L111.95,75.69L114.7,78.91L115.25,79.17L119.09,79.72L119.64,79.74L141.59,79.65L142.14,79.39L143.78,78.56L144.33,78.67L146.53,78.28L147.08,77.83L150.37,74.43L150.92,74.5L158.05,76.95L158.6,77.11L164.09,79.64L164.64,79.66L167.38,79.23L167.93,78.88L170.13,77.81L170.67,78.16L173.42,79.55L173.97,79.64L178.36,79.47L178.91,78.9L180,73.52L180.55,69.09L181.1,66.32L181.65,66.46L182.2,69.98L183.85,79.18L184.39,79.6L188.24,79.78L188.78,79.78L216.22,79.67L216.77,78.85L218.42,61.15L218.97,62.7L221.71,70.24L222.26,71.19L223.36,73.71L223.91,75.95L225.55,79.07L226.1,79.34L227.2,79.33L227.75,78.88L228.85,75.55L229.4,73.07L229.94,72.38L230.49,73.06L232.14,74.61L232.69,74.74L233.79,76.02L234.33,78.03L235.43,79.63L235.98,79.73L246.96,79.78L247.51,79.78L265.07,79.52L265.62,78.55L267.81,65.04L268.36,65.31L270.55,66.56L271.1,67.49L272.2,71.19L272.75,74.08L274.4,78.79L274.95,78.94L276.59,78.2L277.14,77.44L278.79,74.48L279.34,74.86L282.08,79.28L282.63,79.5L287.57,79.78L288.12,79.78L487.88,79.24L488.43,78.78L491.72,74.54L492.27,74.76L496.11,79.15L496.66,79.25L515.32,79.54L515.87,79.54L548.79,79.78" style="vector-effect: non-scaling-stroke; fill: none; stroke: rgb(0, 154, 250); stroke-opacity: 1; stroke-width: 1px; opacity: 1;"/></g><g class="points"/><g class="text"/></g><g class="trace scatter trace189ba2" style="stroke-miterlimit: 2; opacity: 1;"><g class="fills"/><g class="errorbars"/><g class="lines"><path class="js-line" d="M0,75.77L1.65,75.2L2.2,74.88L4.39,74.94L4.94,75L6.59,74.1L7.13,73.3L8.78,69.1L9.33,66.84L10.98,59.06L11.52,59.27L12.07,62.08L13.17,66.04L13.72,60.33L15.37,41.79L15.91,40.1L17.56,38.31L18.11,38.62L19.21,42.1L19.76,45.09L20.85,54.38L21.4,62.55L23.05,78.61L23.6,79.47L26.34,79.78L26.89,79.78L94.39,79.51L94.94,78.94L95.49,77.08L96.04,71.96L98.23,35.03L98.78,34.06L99.33,36.42L99.88,45.84L100.98,61.63L101.53,62.33L102.62,60.99L103.17,61.54L104.82,67.7L105.37,70.17L108.66,78.62L109.21,78.97L112.5,79.78L113.05,79.78L125.12,79.33L125.67,78.73L128.42,75.26L128.97,76.27L130.61,79.19L131.16,79.51L135,79.78L135.55,79.78L227.2,79.49L227.75,78.7L228.85,76.14L229.4,76.87L230.49,77.61L231.04,77.3L232.14,76.8L232.69,77.16L233.79,77.25L234.33,72.83L236.53,18.63L237.08,21.41L238.72,51.22L239.27,50.14L240.37,48.78L240.92,52.77L243.12,79.38L243.66,79.72L252.44,79.78L252.99,79.78L259.58,79.48L260.13,77.16L262.32,62.9L262.87,65.14L264.52,78.5L265.07,79.35L267.26,79.78L267.81,79.78L294.15,79.21L294.7,79L299.64,77.29L300.19,77.34L307.87,78.23L308.42,77.27L310.62,70.41L311.17,69.81L313.36,65.68L313.91,68.59L315.01,74.37L315.56,67.15L317.75,27.9L318.3,24.68L319.4,22.02L319.95,23.08L321.04,26.64L321.59,26.46L322.69,27.13L323.24,28.07L324.34,33.3L324.89,37.03L327.08,45.84L327.63,46.84L328.73,50.79L329.28,56.12L331.47,74.85L332.02,75.72L333.12,75.88L333.67,75.42L334.76,73.1L335.31,70.69L339.15,45.1L339.7,44.13L340.25,44.06L340.8,44.91L342.45,51.59L343,54.85L344.64,68.05L345.19,74.13L346.29,79.2L346.84,79.63L350.68,79.75L351.23,79.59L351.78,78.64L352.32,74.91L354.52,45.06L355.07,42.99L357.81,35.74L358.36,37.1L360.01,50.77L360.56,55.63L364.4,79.62L364.95,79.75L371.53,79.66L372.08,79.24L372.63,77.93L373.18,73.75L374.83,58.19L375.37,58.49L375.92,58.52L376.47,56.05L378.67,42.37L379.22,40.91L380.31,39.47L380.86,39.65L381.96,43.7L382.51,47.75L385.8,76.18L386.35,77.52L387.45,78.09L388,77.62L389.64,73.94L390.19,72.37L392.39,66.61L392.94,66.59L394.03,68.77L394.58,70.51L396.78,76.13L397.33,76.78L399.52,77.66L400.07,77.68L403.91,78.33L404.46,78.57L408.3,79.71L408.85,79.74L430.25,79.78L430.8,79.78L548.79,79.78" style="vector-effect: non-scaling-stroke; fill: none; stroke: rgb(227, 111, 71); stroke-opacity: 1; stroke-width: 1px; opacity: 1;"/></g><g class="points"/><g class="text"/></g><g class="trace scatter trace199279" style="stroke-miterlimit: 2; opacity: 1;"><g class="fills"/><g class="errorbars"/><g class="lines"><path class="js-line" d="M0,75.5L3.84,76.24L4.39,76.06L7.68,73.95L8.23,73.22L10.98,69.19L11.52,67.21L13.17,57.49L13.72,61.12L15.91,76.56L16.46,77.47L19.21,79.16L19.76,79.34L22.5,79.21L23.05,78.84L24.7,77.91L25.24,78.11L28.54,79.73L29.09,79.75L49.94,79.78L50.49,79.78L102.08,79.16L102.62,78.48L103.72,74.95L104.27,71.51L105.92,62.89L106.47,64.55L107.56,66.44L108.11,65.86L110.31,69.39L110.86,69.06L111.95,68.75L112.5,69.36L114.7,71.23L115.25,71.33L117.99,70.88L118.54,70.52L119.64,68.71L120.19,66.63L121.28,57.36L121.83,50.18L122.93,43.33L123.48,43.46L124.03,44.79L124.58,48.12L126.77,77.39L127.32,78.66L128.97,79.5L129.52,79.62L135,79.78L135.55,79.78L142.14,79.45L142.69,79.02L143.78,77.49L144.33,75.79L146.53,68.48L147.08,68.19L149.82,67.9L150.37,67.95L152.56,68.65L153.11,69.08L161.89,76.92L162.44,76.83L163.54,75.89L164.09,74.55L166.83,65.55L167.38,66.16L169.03,72.06L169.58,74.22L171.22,77.7L171.77,78.04L173.42,77.62L173.97,76.93L175.06,74.08L175.61,71.5L178.91,49.89L179.46,50L181.65,59.28L182.2,64.52L183.85,74.76L184.39,74.74L185.49,71.79L186.04,69.41L190.43,49.84L190.98,48.51L193.18,45.5L193.72,45.29L195.92,44.46L196.47,45L197.02,45L197.57,43.95L198.66,41.27L199.21,42.27L201.41,61.71L201.96,57.04L203.05,41.07L203.6,42.3L204.15,50.57L205.8,68.8L206.35,67.01L208.54,40.21L209.09,47.6L210.74,68.81L211.29,67.64L212.38,53.06L212.93,43.69L213.48,41.22L214.03,45.82L216.77,77.18L217.32,78.83L218.97,79.78L219.52,79.78L242.57,79.47L243.12,78.91L246.41,74.77L246.96,74.09L249.7,72.16L250.25,71.87L251.9,70.39L252.44,69.3L253.54,64.32L254.09,59.07L256.83,20.02L257.38,23.29L257.93,31.02L258.48,30.96L259.03,30.55L259.58,31.77L260.13,41.12L262.32,77.91L262.87,79.17L263.97,79.58L264.52,79.28L265.07,77.79L265.62,73.24L266.16,67.39L266.71,67.45L267.26,69.72L269.46,76.27L270.01,77.11L272.75,79.61L273.3,79.71L284.27,79.78L284.82,79.78L292.51,79.27L293.06,78.92L294.15,77.37L294.7,75.91L296.9,64.93L297.45,61.84L300.19,50.62L300.74,49.18L303.48,44.32L304.03,43.66L306.23,41.92L306.78,42.16L307.87,44.06L308.42,42.8L309.52,39.61L310.07,41.42L311.71,48.77L312.26,48.73L313.36,48.95L313.91,45.92L315.01,38.35L315.56,43.04L318.3,76.07L318.85,77.54L320.49,79.32L321.04,79.49L328.18,79.78L328.73,79.78L334.21,79.03L334.76,77.83L336.96,68.15L337.51,69.64L340.25,77.42L340.8,78.02L342.45,78.66L343,78.56L344.09,77.56L344.64,76.59L347.39,70.51L347.93,67.91L350.13,53.53L350.68,57.38L353.42,74.47L353.97,75.32L358.36,79.48L358.91,79.56L361.65,79.17L362.2,78.54L366.59,69L367.14,66.19L369.34,47L369.89,49.5L370.98,59.55L371.53,58.61L372.08,50.95L372.63,47.02L373.18,52.47L374.83,74.77L375.37,76.96L376.47,77.75L377.02,77.29L380.86,74.06L381.41,73.83L383.06,72.17L383.61,71.34L385.25,66.86L385.8,64.56L387.45,61.48L388,61.21L388.55,61.7L389.09,63.44L391.29,70.77L391.84,71.62L393.48,72.33L394.03,72L396.23,68.58L396.78,67.76L397.87,67.18L398.42,67.4L403.36,71.07L403.91,70.99L407.75,70.59L408.3,71.05L412.14,74.07L412.69,74.16L415.44,73.79L415.98,73.57L420.92,71.64L421.47,71.55L423.67,69.93L424.22,69.4L428.06,67.16L428.61,68.35L431.35,76.28L431.9,76.85L435.74,79.03L436.29,79.16L440.68,79.27L441.23,79.17L444.52,77.52L445.07,77.09L447.81,73.95L448.36,73.1L450.01,69.61L450.56,67.55L452.75,50.97L453.3,51.76L453.85,54.64L455.5,59.37L456.05,60.44L458.79,78.35L459.34,78.9L461.53,79.66L462.08,79.69L485.13,79.78L485.68,79.78L548.79,79.78" style="vector-effect: non-scaling-stroke; fill: none; stroke: rgb(62, 164, 78); stroke-opacity: 1; stroke-width: 1px; opacity: 1;"/></g><g class="points"/><g class="text"/></g><g class="trace scatter tracef60274" style="stroke-miterlimit: 2; opacity: 1;"><g class="fills"/><g class="errorbars"/><g class="lines"><path class="js-line" d="M0,74.96L2.74,73.98L3.29,73.78L6.59,71.21L7.13,71.38L9.33,73.52L9.88,74.43L10.98,75.69L11.52,75.3L12.07,73.11L12.62,66.49L13.72,46.55L14.27,46.83L16.46,54.85L17.01,55.49L18.11,56.96L18.66,58.47L20.31,67.65L20.85,72.07L22.5,79.13L23.05,79.49L26.34,79.78L26.89,79.78L81.77,79.53L82.32,78.7L84.51,73.15L85.06,73.15L87.26,76.56L87.81,77.31L90.55,79.13L91.1,79.29L96.04,79.78L96.59,79.78L112.5,79.05L113.05,78.83L116.89,78.48L117.44,78.45L119.64,77.93L120.19,77.35L120.73,75.97L121.28,72.08L123.48,19.67L124.03,19.33L124.58,21.28L125.12,28.54L126.77,44.26L127.32,45.46L127.87,45.46L128.42,44.27L130.06,39.7L130.61,40.01L133.91,41.78L134.45,43.24L135.55,50.97L136.1,57.72L138.3,77.81L138.84,78.61L139.39,78.55L139.94,77.55L141.59,73.38L142.14,73.76L144.33,79.26L144.88,79.56L148.72,79.78L149.27,79.78L181.1,79.13L181.65,76.13L182.75,62.61L183.3,67.44L184.94,78.36L185.49,79.09L187.69,79.68L188.24,79.69L190.98,79.29L191.53,78.85L192.63,76.12L193.18,72.82L195.37,59.36L195.92,60.59L197.02,62.18L197.57,59.34L199.21,42.27L199.76,44.06L201.96,71.92L202.5,71.13L204.15,38.27L204.7,44.06L206.89,74.63L207.44,74.26L207.99,67.25L208.54,47.59L209.09,36.71L209.64,41.98L211.83,73.97L212.38,74.55L212.93,70.39L213.48,58.48L214.03,50.15L214.58,56.87L216.22,79.39L216.77,79.73L225.55,79.78L226.1,79.78L256.29,79.61L256.83,77.77L258.48,14.24L259.03,13.1L259.58,14.78L260.13,25.6L261.23,41.09L261.77,42.68L262.87,49.97L263.42,57.87L265.07,77.17L265.62,78.45L267.26,79.62L267.81,79.69L283.18,79.78L283.73,79.78L305.68,79.22L306.23,78.02L307.32,66.04L307.87,53.93L308.97,42.2L309.52,44.9L312.26,76.11L312.81,77.16L313.36,77.46L313.91,76.37L314.46,69.59L315.01,46.55L315.56,32.52L316.1,36.16L316.65,40.41L318.3,45.3L318.85,45.71L319.4,46.07L319.95,47.46L321.59,54.34L322.14,54.43L323.24,54.53L323.79,55.2L325.98,58.6L326.53,58.49L327.63,58.26L328.18,58.84L330.92,68.97L331.47,69.12L333.67,68L334.21,67.28L335.31,62.9L335.86,58.39L336.96,51.69L337.51,51.8L340.25,55.71L340.8,56.87L343,63.66L343.54,65.36L346.84,74.63L347.39,74.41L347.93,73.3L348.48,70.35L349.58,47.85L350.13,35.15L350.68,33.51L351.23,36.2L353.97,54L354.52,54.49L356.17,55.27L356.72,56.29L362.2,70.73L362.75,72.45L364.4,76.72L364.95,77.1L366.59,76.77L367.14,75.76L367.69,73.12L368.24,65.58L369.89,25.85L370.44,29.68L372.08,54.29L372.63,50.97L373.18,48.27L373.73,50.71L375.37,58.19L375.92,59.53L379.76,66.27L380.31,66.38L381.96,65.71L382.51,65.03L383.61,64.86L384.15,66.1L385.25,68.55L385.8,68.04L389.09,55.06L389.64,54.59L390.74,54.48L391.29,55.01L395.68,62.07L396.23,61.99L397.87,59.79L398.42,58.95L400.07,57.54L400.62,57.48L402.81,58.55L403.36,58.93L405.56,59.37L406.11,59L410.5,53.95L411.05,53.91L413.79,54.78L414.34,55.12L416.53,57.39L417.08,58.27L421.47,65.19L422.02,65.69L423.67,65.98L424.22,65.48L425.86,62.2L426.41,60.53L429.16,51.17L429.7,50.93L430.8,52.01L431.35,53.04L434.09,60.9L434.64,62.63L439.03,74.1L439.58,74.98L441.78,76.96L442.33,77.19L446.72,77.99L447.27,77.92L449.46,76.71L450.01,75.86L451.11,71.41L451.66,64.96L452.75,40.72L453.3,40.86L453.85,44.64L454.4,45.81L454.95,45.33L455.5,44.38L456.6,43.57L457.14,44.4L458.79,47.58L459.34,47.39L460.99,47.17L461.53,47.79L466.47,56.72L467.02,58.88L469.22,64.97L469.77,65.78L472.51,68.07L473.06,68.36L475.8,70.6L476.35,71.45L480.74,79.11L481.29,79.41L484.58,79.78L485.13,79.78L491.17,79.29L491.72,78.82L494.46,76.58L495.01,76.66L496.66,76.67L497.21,76.34L502.15,72.55L502.69,72.53L510.93,72.63L511.47,72.53L518.06,70.59L518.61,70.33L523,68.89L523.55,68.93L529.58,70.19L530.13,69.84L534.52,66.11L535.07,66.35L536.72,68.37L537.27,69.36L541.11,75.21L541.66,74.96L542.76,72.14L543.3,68.89L548.79,25.69" style="vector-effect: non-scaling-stroke; fill: none; stroke: rgb(195, 113, 210); stroke-opacity: 1; stroke-width: 1px; opacity: 1;"/></g><g class="points"/><g class="text"/></g><g class="trace scatter trace544273" style="stroke-miterlimit: 2; opacity: 1;"><g class="fills"/><g class="errorbars"/><g class="lines"><path class="js-line" d="M0,79.43L20.85,79.49L21.4,78.72L23.6,68.49L24.15,68.78L26.34,71.38L26.89,70.5L29.09,64.19L29.63,64.42L30.73,65.65L31.28,66.99L34.57,77.84L35.12,78.39L36.77,78.75L37.32,78.62L38.96,77.27L39.51,76L41.71,68.59L42.26,68.56L43.35,68.47L43.9,69.49L47.2,77.97L47.74,78.53L49.94,79.15L50.49,79.13L54.88,79.19L55.43,79.39L59.27,79.76L59.82,79.76L93.29,79.26L93.84,78.96L95.49,78.73L96.04,78.77L97.14,78.36L97.69,77.62L99.88,70.74L100.43,68.67L100.98,67.62L101.53,68L102.08,68.78L103.17,69.47L103.72,69.32L105.37,68.82L105.92,70.06L107.56,74.63L108.11,74.17L111.95,70.44L112.5,69.22L114.7,65.9L115.25,65.57L117.99,65.18L118.54,65.28L120.19,66.42L120.73,67.26L123.48,73.42L124.03,73.08L125.67,71.86L126.22,72.75L129.52,77.61L130.06,78.61L131.71,79.69L132.26,79.75L143.78,79.67L144.33,79.3L145.43,74.88L145.98,71.84L147.08,70.63L147.63,71.09L150.92,73.16L151.47,73.5L154.76,74.78L155.31,74.68L158.05,74.06L158.6,74.42L162.44,78.55L162.99,78.6L170.13,77.59L170.67,77.72L175.06,78.3L175.61,78.32L180.55,78.75L181.1,78.53L184.39,76.92L184.94,77.64L187.14,79.16L187.69,79.32L193.18,79.73L193.72,79.74L220.61,79.58L221.16,79.48L225,79.24L225.55,79.51L228.85,79.78L229.4,79.78L243.12,79.43L243.66,78.72L245.31,71.32L245.86,68.87L247.51,66.38L248.05,66.21L253.54,65.95L254.09,66.83L257.93,78.19L258.48,78.77L260.68,79.43L261.23,79.23L263.97,79.41L264.52,79L265.62,75.05L266.16,72.01L267.26,67.59L267.81,64.65L269.46,61.83L270.01,61.9L271.1,64.31L271.65,66.15L274.95,78.31L275.49,78.71L277.14,78.85L277.69,78.6L279.34,77.92L279.88,78.17L283.18,79.57L283.73,79.59L291.41,79.44L291.96,79.53L300.74,79.77L301.29,79.77L333.12,79.41L333.67,78.79L334.76,74.45L335.31,71.38L336.41,69.93L336.96,71.03L340.25,76.6L340.8,76.88L342.45,76.55L343,76.15L344.64,73.6L345.19,71.83L346.84,67.27L347.39,66.99L348.48,67.71L349.03,68.78L351.23,74.61L351.78,74.55L354.52,72.08L355.07,72.66L358.36,77.81L358.91,77.97L360.56,77.17L361.11,76.39L362.75,72.28L363.3,70.17L364.95,66.11L365.5,65.91L367.14,66.79L367.69,67.66L370.44,74.16L370.98,74.28L372.63,72.13L373.18,73.54L374.83,76.03L375.37,76.08L377.57,76.25L378.12,76.66L381.41,78.49L381.96,78.59L383.61,78.16L384.15,77.32L386.9,67.2L387.45,67.41L391.84,73.73L392.39,73.82L393.48,73.32L394.03,72.66L397.33,68.23L397.87,68.34L402.27,70.42L402.81,70.32L405.56,69.86L406.11,70.17L408.3,73.11L408.85,73.94L411.59,76.47L412.14,76.68L415.44,76.9L415.98,76.77L418.18,75.2L418.73,74.45L422.57,69.34L423.12,68.96L425.86,67.88L426.41,68.14L427.51,69.64L428.06,70.94L430.8,77.46L431.35,77.96L433.55,78.51L434.09,78.48L437.39,77.65L437.94,77.26L440.68,73.76L441.23,73.01L446.17,67.84L446.72,67.52L450.01,66.71L450.56,66.91L451.66,68.04L452.21,69.24L453.85,71.68L454.4,70.76L455.5,69.65L456.05,70.25L458.79,78.39L459.34,79.05L461.53,79.74L462.08,79.76L479.64,79.42L480.19,79.2L481.84,77.68L482.39,76.97L483.49,76.94L484.04,77.57L486.23,79.54L486.78,79.67L494.46,79.78L495.01,79.78L548.79,79.78" style="vector-effect: non-scaling-stroke; fill: none; stroke: rgb(172, 142, 24); stroke-opacity: 1; stroke-width: 1px; opacity: 1;"/></g><g class="points"/><g class="text"/></g><g class="trace scatter trace5d556e" style="stroke-miterlimit: 2; opacity: 1;"><g class="fills"/><g class="errorbars"/><g class="lines"><path class="js-line" d="M0,74.31L1.65,77.19L2.2,77.67L5.49,78.91L6.04,79.07L10.43,79.78L10.98,79.78L53.23,79.03L53.78,78.88L55.43,77.61L55.98,76.67L59.82,67.9L60.37,67.71L62.01,68.23L62.56,68.68L67.5,73.08L68.05,73.2L76.28,75.16L76.83,74.92L77.93,73.58L78.48,72.16L81.22,60.6L81.77,61.66L84.51,60.82L85.06,61.75L88.36,75.79L88.9,76.65L91.1,78.33L91.65,78.53L94.39,78.7L94.94,78.27L96.59,77.03L97.14,77.98L98.78,79.64L99.33,79.72L105.37,79.34L105.92,77.92L107.56,61.31L108.11,62.66L109.76,65.75L110.31,66.69L114.15,79.03L114.7,79.36L117.99,79.77L118.54,79.77L123.48,79.69L124.03,79.08L124.58,74.85L125.12,60.41L126.22,45.71L126.77,46.16L127.87,51.21L128.42,54.91L129.52,58.4L130.06,57.99L133.91,48.89L134.45,48.55L136.65,47.31L137.2,49.07L139.94,71.34L140.49,71.52L144.33,79.74L144.88,79.77L186.59,79.78L187.14,79.78L227.75,79.4L228.3,77.82L230.49,60.57L231.04,59.7L232.14,59.31L232.69,60.69L233.79,67.89L234.33,75.59L235.43,79.33L235.98,79.57L239.27,79.71L239.82,79.69L259.03,79.72L259.58,78.49L260.68,56.53L261.23,59.47L261.77,58L262.87,48.04L263.42,54.52L265.07,78.42L265.62,79.39L267.81,79.78L268.36,79.78L323.24,79.33L323.79,78.95L327.08,76.34L327.63,76.35L328.73,77.21L329.28,78.11L330.92,79.68L331.47,79.75L352.32,79.77L352.87,79.77L372.08,79.51L372.63,78.73L373.73,69.77L374.28,64.17L375.37,58.72L375.92,60.5L378.12,74.01L378.67,75.35L380.86,77.75L381.41,78L385.8,78.66L386.35,78.46L387.45,76.73L388,74.49L390.19,62.21L390.74,62.2L392.39,65.52L392.94,66.88L395.68,71.56L396.23,71.58L397.33,70.4L397.87,69.34L400.62,64.92L401.17,64.79L402.81,65.58L403.36,66.03L405.56,67.31L406.11,67.29L407.75,66.15L408.3,65.49L410.5,63.62L411.05,63.59L413.24,64.93L413.79,65.47L417.08,69.77L417.63,70.7L419.83,73.4L420.38,73.49L422.02,72.51L422.57,71.96L427.51,66.24L428.06,64.52L430.25,57.94L430.8,57.55L432.45,58.01L433,58.54L437.94,65.53L438.49,66.45L440.68,69.04L441.23,69.33L443.42,71.17L443.97,72.05L447.81,77.16L448.36,77.61L451.11,78.9L451.66,78.86L452.21,78.41L452.75,76.49L454.95,52.42L455.5,51.82L456.6,50.62L457.14,49.29L457.69,49.37L458.24,51.49L459.89,56.52L460.44,56.67L463.73,55.91L464.28,56.52L467.57,60.89L468.12,60.97L471.96,60.86L472.51,61.07L475.8,62.92L476.35,63.65L479.1,70.07L479.64,71.31L481.29,73.58L481.84,73.74L482.94,72.6L483.49,71.06L488.43,56.75L488.97,56.44L490.07,57.17L490.62,58.04L492.82,63.84L493.36,65.48L495.56,70.13L496.11,70.21L497.21,68.75L497.75,67.52L499.95,64.13L500.5,63.89L502.69,64.2L503.24,64.39L506.54,64.84L507.08,64.78L521.9,63.06L522.45,63.08L529.58,63.75L530.13,63.42L534.52,61.02L535.07,61.22L536.72,62.95L537.27,63.83L540.01,67.1L540.56,66.83L542.21,63.51L542.76,61.92L546.6,51.16L547.15,52.06L548.79,56.85" style="vector-effect: non-scaling-stroke; fill: none; stroke: rgb(0, 170, 174); stroke-opacity: 1; stroke-width: 1px; opacity: 1;"/></g><g class="points"/><g class="text"/></g><g class="trace scatter traced3a8b2" style="stroke-miterlimit: 2; opacity: 1;"><g class="fills"/><g class="errorbars"/><g class="lines"><path class="js-line" d="M0,76.36L1.65,75.69L2.2,75.71L5.49,75.35L6.04,75.93L9.33,79.66L9.88,79.75L31.28,79.78L31.83,79.78L76.28,79.26L76.83,78.77L77.93,76.37L78.48,73.85L80.12,57.85L80.67,51.49L81.22,47.77L81.77,52.3L83.97,77.52L84.51,78.89L86.16,79.72L86.71,79.76L124.58,79.72L125.12,79.39L126.77,75.86L127.32,74.23L131.16,65.29L131.71,64.5L134.45,60.9L135,61.48L136.1,67.41L136.65,72.35L138.3,79.58L138.84,79.75L160.25,79.78L160.8,79.78L226.65,79.26L227.2,78.19L228.3,68.49L228.85,56.09L229.94,38.12L230.49,41.46L232.14,54.85L232.69,55.09L233.24,55.61L233.79,61.47L234.88,79.06L235.43,79.63L239.27,79.78L239.82,79.78L512.57,79.06L513.12,78.94L518.06,77.09L518.61,76.81L523,75.44L523.55,75.45L529.04,75.29L529.58,74.99L533.43,72.87L533.98,72.98L536.17,74.9L536.72,75.57L539.46,77.62L540.01,77.53L541.11,76.58L541.66,75.6L543.3,69.84L543.85,67.06L546.05,50.6L546.6,43.33L548.79,22.23" style="vector-effect: non-scaling-stroke; fill: none; stroke: rgb(237, 94, 147); stroke-opacity: 1; stroke-width: 1px; opacity: 1;"/></g><g class="points"/><g class="text"/></g><g class="trace scatter trace63010f" style="stroke-miterlimit: 2; opacity: 1;"><g class="fills"/><g class="errorbars"/><g class="lines"><path class="js-line" d="M0,71.43L3.29,73L3.84,72.8L5.49,72.46L6.04,72.8L8.78,77.11L9.33,77.89L11.52,79.33L12.07,79.37L19.21,79.55L19.76,79.63L27.99,79.78L28.54,79.78L232.14,79.13L232.69,79L233.79,79L234.33,79.5L236.53,79.77L237.08,79.78L548.79,79.78" style="vector-effect: non-scaling-stroke; fill: none; stroke: rgb(198, 130, 37); stroke-opacity: 1; stroke-width: 1px; opacity: 1;"/></g><g class="points"/><g class="text"/></g><g class="trace scatter trace77f047" style="stroke-miterlimit: 2; opacity: 1;"><g class="fills"/><g class="errorbars"/><g class="lines"><path class="js-line" d="M0,77.55L6.04,79.41L6.59,79.47L15.37,79.72L15.91,79.66L17.01,79.22L17.56,78.47L18.66,73.52L19.21,68.96L20.85,61.5L21.4,62.51L25.24,79.17L25.79,79.53L29.63,79.78L30.18,79.78L41.71,79.38L42.26,77.34L43.9,52.54L44.45,52.35L45,53.04L45.55,55.72L46.65,61.2L47.2,61.69L48.29,61.3L48.84,60.61L52.68,55.41L53.23,55.41L54.33,56.51L54.88,57.5L58.72,64.09L59.27,64.45L60.92,64.47L61.46,64.25L64.76,61.73L65.31,61.25L66.95,60.52L67.5,60.73L70.79,62.82L71.34,62.87L76.28,63.61L76.83,64.06L78.48,67.4L79.03,69.53L81.22,78.5L81.77,79.17L82.87,79.27L83.42,78.9L84.51,75.71L85.06,71.83L87.26,55.91L87.81,54.56L89.45,53.06L90,52.9L92.75,51.8L93.29,51.15L94.39,50.87L94.94,51.62L96.04,53.36L96.59,55.07L97.69,56.48L98.23,56L99.33,55.88L99.88,56.11L100.98,55.87L101.53,57.45L105.92,72.19L106.47,72.74L107.56,71.96L108.11,70.99L113.05,66.08L113.6,65L115.8,62.47L116.34,62.3L119.64,62.29L120.19,62.52L121.28,64.31L121.83,65.73L122.38,65.71L122.93,63.65L124.58,60.27L125.12,63.87L126.22,70.41L126.77,70.73L128.42,70.3L128.97,71.26L132.26,78.01L132.81,78.53L135.55,79.65L136.1,79.71L141.04,79.4L141.59,78.5L142.69,69.33L143.23,62.49L143.78,59.84L144.33,60.67L144.88,63.77L147.08,77.42L147.63,78.37L149.82,79.54L150.37,79.62L158.6,79.78L159.15,79.78L242.02,79.48L242.57,78.65L243.12,74.49L243.66,62.73L244.76,53.75L245.31,55.12L247.51,59.98L248.05,60.53L252.44,64.94L252.99,66.22L254.64,73.93L255.19,77.05L256.29,79.58L256.83,79.75L262.32,79.39L262.87,79.19L263.97,78.05L264.52,76.31L265.62,70.73L266.16,73.21L267.81,78.19L268.36,78.8L270.55,79.67L271.1,79.72L285.92,79.78L286.47,79.78L322.69,79.07L323.24,77.77L324.34,69.63L324.89,64.21L326.53,56.56L327.08,55.77L329.28,54.9L329.82,52.93L332.02,46.19L332.57,46.08L333.67,47.29L334.21,48.71L335.86,58.7L336.41,63.22L338.06,70.87L338.61,71.54L339.7,70.93L340.25,69.85L345.74,56.89L346.29,56.99L350.13,61.11L350.68,59.2L351.78,56.76L352.32,59.02L354.52,69.33L355.07,70.14L356.17,70.23L356.72,69.59L360.01,62.9L360.56,61.16L362.75,56.31L363.3,56.02L364.4,57.17L364.95,58.21L368.79,63.45L369.34,62.46L371.53,54.28L372.08,57.03L373.73,67.08L374.28,68.08L375.37,67.35L375.92,66.31L377.57,63.06L378.12,62.91L382.51,63.56L383.06,63.02L385.25,56.98L385.8,57.81L386.9,59.15L387.45,59.1L388.55,61L389.09,62.97L390.74,66.15L391.29,66.09L392.94,64.38L393.48,63.43L395.68,60.25L396.23,60.23L398.97,62.19L399.52,62.55L401.72,62.77L402.27,62.55L405.56,61.57L406.11,61.78L411.05,64.57L411.59,64.41L415.98,61.56L416.53,61.11L420.92,58.18L421.47,58.31L423.67,60.38L424.22,60.97L428.06,64.53L428.61,65.69L430.8,68.55L431.35,68.53L433,67.04L433.55,66.29L437.94,61.63L438.49,60.98L440.68,59.37L441.23,59.3L443.97,58.89L444.52,58.59L446.72,58.01L447.27,58.1L451.11,60.09L451.66,60.62L452.75,61.99L453.3,63.67L456.05,72.85L456.6,73.68L457.69,73.44L458.24,72.48L459.89,70.75L460.44,70.64L462.63,70.39L463.18,69.84L466.47,64.29L467.02,64.28L470.86,65.33L471.41,65.14L476.35,62.94L476.9,62.25L481.84,54.25L482.39,54.43L484.04,58.29L484.58,60.41L487.88,72.66L488.43,73.68L490.07,75.15L490.62,75.14L491.72,74.1L492.27,72.8L495.56,60.9L496.11,61.53L499.4,66.32L499.95,66.52L502.15,66.19L502.69,66.01L505.99,65.63L506.54,65.72L518.06,66.95L518.61,67L523.55,66.57L524.1,66.39L527.94,65.77L528.49,65.93L533.98,68.33L534.52,68.12L536.72,65.81L537.27,65L539.46,62.92L540.01,63.22L541.66,66.54L542.21,68.1L546.6,78.83L547.15,79.43L548.79,79.78" style="vector-effect: non-scaling-stroke; fill: none; stroke: rgb(0, 169, 141); stroke-opacity: 1; stroke-width: 1px; opacity: 1;"/></g><g class="points"/><g class="text"/></g><g class="trace scatter traced3b436" style="stroke-miterlimit: 2; opacity: 1;"><g class="fills"/><g class="errorbars"/><g class="lines"><path class="js-line" d="M0,78.2L1.65,78.47L2.2,78.31L4.94,78.02L5.49,78.23L9.88,79.67L10.43,79.69L26.89,79.65L27.44,79.55L29.63,78.33L30.18,77.72L31.28,75.39L31.83,73.29L33.48,67.36L34.03,68.25L35.67,72.23L36.22,72.4L38.96,70.71L39.51,71.43L42.26,75.91L42.81,75.69L44.45,71.46L45,71.53L46.1,68.7L46.65,66.35L47.74,65.12L48.29,66.17L51.04,71.31L51.59,71.49L52.68,70.46L53.23,69L56.53,56.25L57.07,56.59L59.27,62.88L59.82,64.28L62.01,67.4L62.56,67.8L64.76,68.39L65.31,68.16L66.4,66.83L66.95,65.56L70.79,54.91L71.34,54.28L74.09,52.32L74.64,52.29L75.73,53.31L76.28,54.95L77.93,66.74L78.48,71.29L80.12,79L80.67,79.57L83.97,79.78L84.51,79.78L151.47,79.1L152.02,79L164.64,76.89L165.19,76.45L172.32,69.2L172.87,69.21L175.61,70.64L176.16,71.46L178.36,75.56L178.91,75.66L180.55,75.52L181.1,76.14L183.85,79.04L184.39,79.18L188.24,79.75L188.78,79.76L217.87,79.72L218.42,79.46L218.97,78.25L219.52,74.37L221.71,52.29L222.26,55.34L223.91,65.24L224.46,62.36L226.1,52.07L226.65,52.29L227.2,53.1L227.75,51.63L228.3,52.67L228.85,56.59L230.49,67.19L231.04,67.07L232.14,66.69L232.69,67.68L234.33,69.81L234.88,69.84L235.43,70.08L235.98,69.48L236.53,69.17L237.08,72.77L238.18,77.5L238.72,77.57L242.02,78.1L242.57,77.35L243.66,76.63L244.21,78.32L245.31,79.7L245.86,79.76L266.71,79.78L267.26,79.78L277.14,79.03L277.69,77.45L279.88,57.74L280.43,57.98L280.98,60.44L283.18,69.79L283.73,69.92L285.92,68.93L286.47,69.41L288.66,72.45L289.21,74.76L290.86,79.29L291.41,79.53L295.25,79.78L295.8,79.78L548.79,79.78" style="vector-effect: non-scaling-stroke; fill: none; stroke: rgb(142, 151, 30); stroke-opacity: 1; stroke-width: 1px; opacity: 1;"/></g><g class="points"/><g class="text"/></g><g class="trace scatter trace42c68e" style="stroke-miterlimit: 2; opacity: 1;"><g class="fills"/><g class="errorbars"/><g class="lines"><path class="js-line" d="M0,75.01L1.65,74.38L2.2,74.47L6.04,75.51L6.59,75.16L10.43,71.28L10.98,71.85L14.27,78.97L14.82,79.17L19.21,79.19L19.76,79.2L31.28,79.78L31.83,79.78L236.53,79.08L237.08,78.71L238.72,78.91L239.27,79.09L245.31,79.78L245.86,79.78L483.49,79.36L484.04,78.81L487.88,73.35L488.43,73.18L491.17,73.45L491.72,73.68L493.91,76.57L494.46,77.18L497.21,78.59L497.75,78.58L501.05,77.49L501.6,77.25L508.18,75.42L508.73,75.29L515.32,74.39L515.87,74.39L539.46,74.79L540.01,74.62L543.3,73.98L543.85,74.34L546.05,77.42L546.6,78.36L548.24,79.71L548.79,79.76" style="vector-effect: non-scaling-stroke; fill: none; stroke: rgb(0, 169, 204); stroke-opacity: 1; stroke-width: 1px; opacity: 1;"/></g><g class="points"/><g class="text"/></g><g class="trace scatter trace177497" style="stroke-miterlimit: 2; opacity: 1;"><g class="fills"/><g class="errorbars"/><g class="lines"><path class="js-line" d="M0,74.96L3.29,76.13L3.84,76.6L7.13,79.62L7.68,79.71L18.66,79.78L19.21,79.78L21.95,79.5L22.5,75.29L24.15,31.46L24.7,31.1L25.79,32.53L26.34,34.31L28.54,42.18L29.09,42.5L30.18,42.72L30.73,43.6L32.38,49.97L32.93,52.55L36.22,62.81L36.77,62.09L37.87,61.57L38.42,62.9L41.71,79.19L42.26,79.57L45.55,79.78L46.1,79.78L98.23,79.65L98.78,79L99.33,75.17L99.88,62.94L100.43,53.62L100.98,53.66L101.53,54.93L102.08,54.63L102.62,52.75L105.37,39.75L105.92,41.73L107.56,56.2L108.11,57.07L110.31,61.45L110.86,64.04L113.6,78.56L114.15,79.19L116.34,79.75L116.89,79.77L139.39,79.6L139.94,77.22L141.04,51.69L141.59,53.9L143.23,66.32L143.78,67.08L144.88,64.21L145.43,62.11L148.72,52.39L149.27,51.85L150.37,51.76L150.92,52.12L159.15,60.94L159.7,62.29L162.99,70.96L163.54,71.1L164.64,68.76L165.19,66.49L168.48,51.75L169.03,52.54L170.67,60.7L171.22,63.75L173.42,71.29L173.97,72.18L175.61,73.31L176.16,73.41L177.81,74.17L178.36,73.43L180.55,66.54L181.1,68.34L183.3,79.55L183.85,79.73L194.27,79.78L194.82,79.78L216.77,79.24L217.32,71.13L218.42,38.57L218.97,39.99L221.71,49.78L222.26,48.64L222.81,46.4L223.36,49.17L225.55,72.99L226.1,74.9L228.3,78.26L228.85,78.04L231.04,77.46L231.59,76.06L233.24,72.06L233.79,73.75L235.43,78.72L235.98,78.15L236.53,76.4L237.08,69.18L238.18,44.23L238.72,50.51L240.37,61.77L240.92,62.84L241.47,63.76L242.02,67.35L243.66,78.3L244.21,79.12L246.41,79.72L246.96,79.75L265.07,79.76L265.62,79.14L266.16,68.82L266.71,40.44L267.26,33.25L267.81,33.37L268.36,34.3L270.55,38.11L271.1,40.08L272.2,46.81L272.75,53.46L274.4,70.24L274.95,70.35L276.04,65.41L276.59,61.44L278.24,53.17L278.79,54.85L282.63,73.87L283.18,74.18L284.27,73.8L284.82,73.1L285.92,72.21L286.47,72.8L290.86,79.76L291.41,79.78L548.79,79.78" style="vector-effect: non-scaling-stroke; fill: none; stroke: rgb(155, 127, 233); stroke-opacity: 1; stroke-width: 1px; opacity: 1;"/></g><g class="points"/><g class="text"/></g><g class="trace scatter trace6f09a7" style="stroke-miterlimit: 2; opacity: 1;"><g class="fills"/><g class="errorbars"/><g class="lines"><path class="js-line" d="M0,75.7L2.2,72.96L2.74,73.17L6.04,76.43L6.59,77.01L8.78,78.44L9.33,78.53L13.17,78.21L13.72,77.57L14.82,72.38L15.37,67.49L16.46,61.64L17.01,61.04L18.66,61.51L19.21,62.19L20.31,66.59L20.85,71.37L22.5,79.67L23.05,79.77L44.45,79.52L45,77.85L46.65,56.66L47.2,58.5L50.49,71.89L51.04,73.37L53.78,79.14L54.33,79.5L57.62,79.78L58.17,79.78L91.65,79.09L92.2,78.87L93.84,79.38L94.39,79.61L98.78,79.78L99.33,79.78L124.58,79.54L125.12,78.57L125.67,74.1L126.22,62.92L127.32,54.23L127.87,57.35L130.06,74.13L130.61,74.85L132.26,74.73L132.81,74.32L135.55,70.72L136.1,69.54L137.2,68.29L137.75,69.79L139.94,79.33L140.49,79.59L145.43,79.78L145.98,79.78L226.1,79.52L226.65,78.89L227.75,78.85L228.3,79.14L229.4,78.36L229.94,75.18L231.59,59.54L232.14,60.86L233.79,68.33L234.33,74.23L235.43,77.67L235.98,77.55L237.08,78.36L237.63,78.9L238.72,78.32L239.27,77.46L241.47,73.41L242.02,74.43L243.66,79.55L244.21,79.71L255.19,79.78L255.74,79.78L262.32,79.58L262.87,78.8L263.42,77.92L263.97,79.03L265.07,79.77L265.62,79.78L318.85,79.62L319.4,78.65L320.49,60.57L321.04,53.09L322.14,51.33L322.69,51.56L324.89,52.01L325.43,51.92L327.63,53.18L328.18,53.71L329.28,56.5L329.82,59.93L332.02,74.98L332.57,76.37L334.21,77.95L334.76,77.85L335.86,75.47L336.41,72.13L338.61,60.89L339.15,58.91L341.35,53.57L341.9,53.87L343,56.96L343.54,59.41L346.84,76.55L347.39,77.21L348.48,77.39L349.03,76.5L350.13,66.36L350.68,58.24L351.78,52.35L352.32,54.26L353.97,60.43L354.52,60.31L355.62,58.46L356.17,56.73L358.36,51.33L358.91,51.38L360.01,54.05L360.56,57.32L363.85,77.1L364.4,78.14L366.59,79.38L367.14,79.44L368.79,78.81L369.34,76.65L370.98,56.74L371.53,61.68L372.63,71.06L373.18,71.32L374.28,65.11L374.83,60.42L375.37,58.53L375.92,61.5L377.57,73.15L378.12,74.44L379.76,76.01L380.31,76.18L383.61,76.65L384.15,77.43L385.8,79.29L386.35,79.43L389.64,78.94L390.19,78.69L394.03,77.25L394.58,77.56L397.87,78.93L398.42,78.94L405.56,78.95L406.11,79.08L412.14,79.76L412.69,79.76L454.4,79.77L454.95,79.76L457.69,79L458.24,78.54L459.34,78.81L459.89,79.17L462.63,79.71L463.18,79.72L548.79,79.78" style="vector-effect: non-scaling-stroke; fill: none; stroke: rgb(97, 141, 246); stroke-opacity: 1; stroke-width: 1px; opacity: 1;"/></g><g class="points"/><g class="text"/></g><g class="trace scatter trace8bc5a8" style="stroke-miterlimit: 2; opacity: 1;"><g class="fills"/><g class="errorbars"/><g class="lines"><path class="js-line" d="M0,79.48L19.21,79.78L19.76,79.78L47.2,79.06L47.74,78.75L49.94,76.76L50.49,75.78L52.14,70.43L52.68,68L54.33,62.61L54.88,62.08L55.98,62.6L56.53,63.41L60.37,70.29L60.92,70.57L62.56,70.51L63.11,70.24L65.31,67.88L65.86,66.87L70.25,57.13L70.79,56.79L73.54,56.18L74.09,56.21L75.73,56.94L76.28,57.78L77.93,63.94L78.48,66.82L81.22,78.8L81.77,79.47L83.97,79.78L84.51,79.78L90.55,79.05L91.1,78.27L92.2,74.24L92.75,70.53L95.49,49.94L96.04,50.85L98.23,59.63L98.78,59.84L100.43,61.07L100.98,59.92L101.53,59.92L102.08,61.08L105.37,69.11L105.92,69.96L107.01,71.12L107.56,71.91L109.21,72.93L109.76,73.54L111.4,76.78L111.95,78.1L113.6,79.66L114.15,79.73L126.22,79.68L126.77,79.66L137.75,79.78L138.3,79.78L225.55,79.6L226.1,78.34L227.75,55.94L228.3,59.37L229.94,73.84L230.49,75.38L232.69,77.23L233.24,77.53L234.33,76.94L234.88,75.06L236.53,71.81L237.08,72.65L238.18,74.36L238.72,74.26L239.82,75.54L240.37,76.5L242.57,79.37L243.12,79.58L250.25,79.78L250.8,79.78L351.78,79.24L352.32,78.2L353.42,77.5L353.97,78.13L356.17,79.39L356.72,79.42L359.46,78.63L360.01,78.38L362.75,78.31L363.3,78.69L366.04,79.7L366.59,79.74L369.89,79.61L370.44,78.84L370.98,74.42L371.53,62.4L372.08,56.93L372.63,59.77L374.83,72.73L375.37,73.2L376.47,72.35L377.02,71.26L378.67,69.02L379.22,68.77L381.41,69.08L381.96,69.55L383.61,70.54L384.15,70.04L385.8,68.21L386.35,68.41L387.45,67.36L388,66.35L388.55,66.26L389.09,67.45L391.29,72.28L391.84,72.63L393.48,72.38L394.03,71.9L396.78,69.4L397.33,69.44L403.91,71.67L404.46,71.64L406.66,72.54L407.2,73.11L411.59,77.2L412.14,77.39L416.53,77.74L417.08,77.75L419.83,77.2L420.38,76.73L423.12,73.74L423.67,73.78L429.7,77.37L430.25,77.87L432.45,78.82L433,78.81L435.19,77.99L435.74,77.61L438.49,74.64L439.03,73.84L441.78,71.06L442.33,71.06L445.62,72.68L446.17,73.08L451.66,78.13L452.21,77.6L453.85,73.77L454.4,75.36L456.05,78.47L456.6,78.92L459.34,79.61L459.89,79.67L470.32,79.71L470.86,79.69L474.71,78.95L475.25,78.64L477.45,76.34L478,75.41L480.19,69.23L480.74,67.27L483.49,58.05L484.04,58.32L484.58,60.53L487.88,76.52L488.43,77.61L490.62,79.36L491.17,79.49L495.01,79.48L495.56,79.25L498.3,78.02L498.85,78.11L503.24,78.6L503.79,78.56L512.02,78.25L512.57,78.27L525.74,78.12L526.29,77.99L530.68,77.51L531.23,77.66L536.17,78.43L536.72,78.29L538.37,77.22L538.91,76.55L541.11,73.99L541.66,74.37L545.5,79.47L546.05,79.63L548.79,79.78" style="vector-effect: non-scaling-stroke; fill: none; stroke: rgb(240, 96, 115); stroke-opacity: 1; stroke-width: 1px; opacity: 1;"/></g><g class="points"/><g class="text"/></g><g class="trace scatter traceac458a" style="stroke-miterlimit: 2; opacity: 1;"><g class="fills"/><g class="errorbars"/><g class="lines"><path class="js-line" d="M0,74.96L2.74,72.16L3.29,72.48L6.59,76.72L7.13,77.32L9.88,78.79L10.43,78.87L12.07,78.55L12.62,77.98L13.72,76.96L14.27,77.13L15.91,77.08L16.46,76.67L18.11,74.57L18.66,73.35L19.76,67.99L20.31,62.3L21.95,38.82L22.5,39.55L23.6,46.5L24.15,45.67L25.24,45.63L25.79,45.93L28.54,48.84L29.09,51.16L31.83,62.52L32.38,63.62L34.03,64.85L34.57,64.27L36.22,62.6L36.77,62.57L37.87,63.62L38.42,64.83L40.06,72.62L40.61,75.59L42.26,79.14L42.81,79.43L47.74,79.76L48.29,79.76L90.55,79.78L91.1,79.78L132.81,79.27L133.36,78.98L134.45,77.74L135,76.53L136.1,72.01L136.65,67.95L138.84,50.68L139.39,52.61L141.59,65.42L142.14,64.29L145.43,50.73L145.98,47.74L147.08,45.29L147.63,45.4L158.6,54.62L159.15,55.68L161.89,63.91L162.44,65.99L164.09,71.03L164.64,71.41L165.74,69.85L166.28,67.89L169.03,58.46L169.58,58.87L171.22,63.97L171.77,66.16L173.97,72.64L174.52,73.5L177.26,75.35L177.81,75.29L178.91,73.98L179.46,72.81L180.55,71.85L181.1,73.16L183.3,77.88L183.85,78.6L185.49,79.69L186.04,79.75L205.25,79.7L205.8,79.69L209.64,78.95L210.19,78.62L212.38,77.82L212.93,76.43L214.03,67.62L214.58,58.65L215.68,40.51L216.22,40.34L217.32,44.66L217.87,49.25L218.97,49.31L219.52,50.89L224.46,71.41L225,72.72L228.3,79.29L228.85,79.19L232.14,75.74L232.69,75.87L233.79,76.73L234.33,77.73L235.98,79.6L236.53,79.7L245.31,79.78L245.86,79.78L261.77,79.21L262.32,78.27L262.87,75.04L263.42,64.37L265.07,33.05L265.62,34.06L266.71,40.98L267.26,40.25L267.81,39.68L269.46,40.89L270.01,41.72L271.65,48.7L272.2,51.55L274.4,59.65L274.95,59.7L277.69,57.43L278.24,58.11L286.47,75.94L287.02,76.62L290.31,79.71L290.86,79.76L311.71,79.78L312.26,79.78L548.79,79.57" style="vector-effect: non-scaling-stroke; fill: none; stroke: rgb(221, 101, 182); stroke-opacity: 1; stroke-width: 1px; opacity: 1;"/></g><g class="points"/><g class="text"/></g><g class="trace scatter trace8eae04" style="stroke-miterlimit: 2; opacity: 1;"><g class="fills"/><g class="errorbars"/><g class="lines"><path class="js-line" d="M0,73.55L1.65,75.63L2.2,76.08L7.68,79.5L8.23,79.63L14.27,79.78L14.82,79.78L27.99,79.09L28.54,77.71L31.28,64.22L31.83,63.58L32.93,64.14L33.48,65.45L36.77,74.85L37.32,75.08L38.42,75.55L38.96,76.28L41.16,79.65L41.71,79.74L55.98,79.78L56.53,79.78L107.01,79.58L107.56,78.84L109.76,68.99L110.31,70.17L113.05,79.41L113.6,79.66L118.54,79.78L119.09,79.78L133.36,79.32L133.91,78.83L135,75.81L135.55,72.57L137.2,63.95L137.75,64.74L140.49,79.11L141.04,79.35L145.98,79.06L146.53,78.89L153.11,76.83L153.66,76.9L159.15,78.56L159.7,78.9L162.44,79.75L162.99,79.77L204.7,79.78L205.25,79.78L220.61,79.53L221.16,78.63L223.36,64.49L223.91,65.19L225.55,69.31L226.1,71.2L227.75,75.12L228.3,74.54L228.85,71.21L229.4,62.9L230.49,51.7L231.04,51.81L233.24,54.92L233.79,59.52L235.43,78.59L235.98,79.26L238.18,79.65L238.72,79.45L240.92,78.29L241.47,78.62L243.66,79.74L244.21,79.77L269.46,79.69L270.01,79.45L271.1,77.15L271.65,75.09L272.2,73.82L272.75,74.57L274.4,79.38L274.95,79.64L278.79,79.68L279.34,79.55L281.53,79.02L282.08,79.29L284.82,79.77L285.37,79.78L547.15,79.3L547.7,78.99L548.79,77.64" style="vector-effect: non-scaling-stroke; fill: none; stroke: rgb(108, 159, 51); stroke-opacity: 1; stroke-width: 1px; opacity: 1;"/></g><g class="points"/><g class="text"/></g><g class="trace scatter trace8a8d46" style="stroke-miterlimit: 2; opacity: 1;"><g class="fills"/><g class="errorbars"/><g class="lines"><path class="js-line" d="M0,70.96L1.1,69.61L1.65,68.1L3.84,63L4.39,62.71L6.04,63.38L6.59,64.07L15.91,79.51L16.46,79.63L23.6,79.71L24.15,79.71L30.73,79.35L31.28,78.88L32.38,75.32L32.93,70.94L34.57,59.13L35.12,58.78L36.77,59.74L37.32,59.53L40.06,58.27L40.61,58.97L41.71,59.58L42.26,58.89L42.81,58.98L43.35,61.09L45.55,77.22L46.1,78.05L48.84,79.14L49.39,79.25L56.53,79.71L57.07,79.72L100.98,79.78L101.53,79.78L144.88,79.09L145.43,78.19L149.82,69.46L150.37,68.86L153.11,67.27L153.66,67.26L158.05,67.72L158.6,66.94L162.99,56.18L163.54,53.92L164.64,51.35L165.19,51.79L169.58,60.47L170.13,60.3L171.77,56.87L172.32,55.2L174.52,50.97L175.06,50.98L176.16,53.76L176.71,57.22L178.36,63.98L178.91,64.45L180,65.95L180.55,68.15L182.2,74.98L182.75,74.62L183.85,71.04L184.39,68.16L185.49,65.94L186.04,65.89L194.82,69.6L195.37,70.76L197.02,73.33L197.57,73.61L199.21,74.61L199.76,75.64L201.96,79.36L202.5,79.54L208.54,79.78L209.09,79.78L217.87,79.19L218.42,78.29L219.52,71.84L220.07,67.61L222.26,60.24L222.81,55.42L225.55,42.24L226.1,41.56L227.2,46.54L227.75,50.57L229.94,75.62L230.49,76.37L232.14,76.18L232.69,75.95L233.79,74.63L234.33,71.72L234.88,68.48L235.43,69.16L235.98,71.13L238.18,77.27L238.72,77.84L240.92,79.18L241.47,79.11L242.02,78.67L242.57,77.24L243.66,70.19L244.21,72.61L245.86,79.27L246.41,79.57L250.8,79.78L251.35,79.78L276.59,79.49L277.14,78.87L278.24,73.52L278.79,69.2L281.53,57.53L282.08,56.22L283.73,53.77L284.27,51.68L285.92,47.43L286.47,47.5L288.12,47.07L288.66,47.97L290.86,63.48L291.41,63.64L295.25,64.44L295.8,64.91L300.19,68.26L300.74,68.42L305.68,68.71L306.23,68.64L307.32,67.95L307.87,67.2L308.42,67.7L308.97,70.16L311.17,78.01L311.71,78.54L313.91,79.1L314.46,79.13L317.75,79.76L318.3,79.78L548.79,79.78" style="vector-effect: non-scaling-stroke; fill: none; stroke: rgb(0, 154, 250); stroke-opacity: 1; stroke-width: 1px; opacity: 1;"/></g><g class="points"/><g class="text"/></g><g class="trace scatter traceca0541" style="stroke-miterlimit: 2; opacity: 1;"><g class="fills"/><g class="errorbars"/><g class="lines"><path class="js-line" d="M0,70.8L1.65,74.95L2.2,75.86L3.84,77.16L4.39,77.15L6.04,76.13L6.59,75.53L8.23,74.23L8.78,74.48L12.62,79.2L13.17,79.27L38.96,79.78L39.51,79.78L46.1,79.11L46.65,78.3L49.94,70.22L50.49,69.79L52.14,67.05L52.68,65.45L55.98,56.26L56.53,56.07L57.62,57.1L58.17,58.03L60.92,61.6L61.46,61.96L64.76,63L65.31,62.94L70.79,60.67L71.34,60.41L76.28,58.9L76.83,58.82L79.57,57.63L80.12,57.29L80.67,57.15L81.22,58.44L82.87,75.01L83.42,75.75L84.51,74.31L85.06,73.21L87.26,70.41L87.81,70.1L92.75,67.8L93.29,66.7L94.39,64.73L94.94,65.02L96.04,67.69L96.59,70.81L98.23,78.67L98.78,79.3L100.98,79.7L101.53,79.7L125.67,79.53L126.22,79.36L127.87,78.26L128.42,77.46L130.06,71.16L130.61,69.32L131.71,68.39L132.26,68.65L134.45,70.88L135,72.01L137.75,79.23L138.3,79.52L142.14,79.78L142.69,79.78L227.2,79.38L227.75,76.75L228.85,61.29L229.4,66.74L231.04,78.85L231.59,79.46L234.33,79.77L234.88,79.77L259.03,79.54L259.58,78.27L261.23,71.92L261.77,70.25L262.32,70.65L262.87,72.75L264.52,79.4L265.07,79.69L271.65,79.78L272.2,79.78L372.63,79.39L373.18,78.73L374.28,77.56L374.83,77.64L383.61,79.72L384.15,79.73L389.09,79.3L389.64,79.06L392.39,78.31L392.94,78.38L396.78,78.37L397.33,78.19L403.36,75.64L403.91,75.67L408.3,75.19L408.85,75.01L412.69,74.46L413.24,74.49L416.53,75.35L417.08,75.68L419.83,76.91L420.38,76.8L423.67,75.35L424.22,75.54L426.96,76.34L427.51,76.03L436.84,66.43L437.39,66.4L441.23,67.37L441.78,67.68L443.97,70.43L444.52,71.29L450.01,78.18L450.56,78.49L451.66,78.55L452.21,77.87L454.4,69.75L454.95,70.39L456.6,71.32L457.14,70.44L459.34,67.08L459.89,66.81L460.99,67.15L461.53,67.78L464.28,71.91L464.83,72.04L465.92,71.26L466.47,70.07L468.67,65.01L469.22,64.74L475.8,64.23L476.35,64.45L479.64,65.73L480.19,65.5L482.94,64.13L483.49,64.87L484.58,65.67L485.13,64.98L487.88,60.58L488.43,60.28L490.07,60.17L490.62,60.48L491.72,62.34L492.27,63.86L493.91,67.32L494.46,67.6L496.11,66.7L496.66,65.92L498.3,64.26L498.85,64.19L507.08,64.76L507.63,64.71L515.32,64.72L515.87,64.75L528.49,65.42L529.04,65.32L532.33,65.51L532.88,65.7L536.72,66.48L537.27,66.42L540.01,65.38L540.56,64.94L542.76,63.21L543.3,63.41L544.95,66.55L545.5,67.86L547.7,71.47L548.24,71.64L548.79,71.69" style="vector-effect: non-scaling-stroke; fill: none; stroke: rgb(227, 111, 71); stroke-opacity: 1; stroke-width: 1px; opacity: 1;"/></g><g class="points"/><g class="text"/></g><g class="trace scatter trace0e38b9" style="stroke-miterlimit: 2; opacity: 1;"><g class="fills"/><g class="errorbars"/><g class="lines"><path class="js-line" d="M0,79.35L2.2,78.92L2.74,78.58L4.39,76.38L4.94,74.92L7.13,64.32L7.68,61.59L10.43,51.33L10.98,52.31L12.07,60.82L12.62,68.18L14.27,79.32L14.82,79.62L19.76,79.78L20.31,79.78L38.96,79.29L39.51,78.94L41.16,78.2L41.71,78.24L43.9,78.15L44.45,77.57L45.55,76.12L46.1,76.41L49.39,79.32L49.94,79.44L57.07,79.76L57.62,79.77L120.19,79.27L120.73,78.88L121.83,77.09L122.38,77.54L122.93,78.93L124.58,79.76L125.12,79.77L159.7,79.65L160.25,79.51L161.35,78.18L161.89,75.66L164.09,60.01L164.64,59.77L165.74,60.88L166.28,62.37L169.58,72.71L170.13,72.35L171.77,66.85L172.32,64.63L174.52,58.96L175.06,58.26L176.16,57.17L176.71,55.43L178.36,50.19L178.91,51.65L181.1,63.99L181.65,63.71L182.2,62.4L182.75,58.44L183.3,47.71L184.39,38.13L184.94,36.99L186.59,34.63L187.14,34.51L189.88,35.34L190.43,35.66L192.08,37.58L192.63,39.02L195.37,49.58L195.92,48.48L196.47,48.4L197.02,51.39L199.21,72.51L199.76,73.19L200.31,71.03L200.86,63.48L201.96,47.36L202.5,54.92L204.15,77.65L204.7,78.21L205.25,76.99L205.8,70.29L206.89,47.42L207.44,55.19L209.09,78.08L209.64,78.79L210.19,78.34L210.74,74.98L211.83,52.17L212.38,56.31L214.03,77.97L214.58,79.14L216.22,79.78L216.77,79.78L232.14,79.55L232.69,78.93L233.24,76.09L233.79,61.11L234.33,28.11L234.88,34.02L235.43,45.07L236.53,44.11L237.08,54.32L238.18,72.25L238.72,73.32L239.82,70.61L240.37,68.57L240.92,68.15L241.47,69.5L242.02,70.71L242.57,70.41L243.12,70.66L245.31,78.72L245.86,79L248.05,78.76L248.6,78.48L250.25,76.77L250.8,75.76L252.44,70.72L252.99,68.09L254.64,54.98L255.19,49.46L256.83,41.71L257.38,51.57L258.48,78.17L259.03,79.49L261.23,79.78L261.77,79.78L282.08,79.56L282.63,78.67L283.73,68.51L284.27,63.24L289.21,50.25L289.76,45.02L290.86,35.81L291.41,35.01L293.6,33.75L294.15,33.71L299.09,34.35L299.64,34.5L305.68,36.24L306.23,37.01L307.32,43.66L307.87,51.41L308.97,65.9L309.52,65.71L310.62,44L311.17,31.01L312.26,25.3L312.81,29.34L315.56,78.68L316.1,79.47L318.85,79.78L319.4,79.78L548.79,79.78" style="vector-effect: non-scaling-stroke; fill: none; stroke: rgb(62, 164, 78); stroke-opacity: 1; stroke-width: 1px; opacity: 1;"/></g><g class="points"/><g class="text"/></g><g class="trace scatter trace723b76" style="stroke-miterlimit: 2; opacity: 1;"><g class="fills"/><g class="errorbars"/><g class="lines"><path class="js-line" d="M0,77.68L2.2,76.83L2.74,76.38L5.49,74.85L6.04,75.11L10.98,78.88L11.52,79.01L17.01,79.78L17.56,79.78L32.93,79.27L33.48,78.96L34.57,77.39L35.12,75.79L38.96,60.43L39.51,54.33L40.61,43.44L41.16,43.5L42.26,48.91L42.81,54.62L44.45,75.74L45,77.68L46.1,78.84L46.65,78.68L48.29,76.81L48.84,75.97L50.49,75L51.04,75.37L55.43,79.59L55.98,79.67L67.5,79.77L68.05,79.78L84.51,79.38L85.06,78.92L86.71,77.84L87.26,77.88L98.23,79.78L98.78,79.78L105.92,79.03L106.47,78.69L109.21,76L109.76,75.09L110.86,70.06L111.4,64.58L113.05,49.66L113.6,47.95L115.25,46.37L115.8,46.21L118.54,46.24L119.09,46.59L120.19,48.34L120.73,50.23L121.83,61.26L122.38,72.59L123.48,79.57L124.03,79.75L138.3,79.78L138.84,79.76L139.94,78.86L140.49,74.5L142.69,52.12L143.23,51.27L144.33,50.83L144.88,51.91L149.27,64.98L149.82,65.95L151.47,67.23L152.02,67.32L155.86,66.72L156.41,66.66L157.5,67.17L158.05,67.97L162.44,76.5L162.99,77.38L165.19,79.13L165.74,79.27L170.13,79.25L170.67,79.19L174.52,79.49L175.06,79.55L180.55,79.33L181.1,79.13L182.75,78.57L183.3,78.77L186.04,79.75L186.59,79.77L239.82,79.26L240.37,78.82L240.92,77.62L241.47,73.21L243.12,36.36L243.66,41.33L244.76,52.66L245.31,52.38L246.96,50.59L247.51,50.43L251.9,50.29L252.44,50.53L253.54,51.84L254.09,53.42L255.74,64.44L256.29,68.28L258.48,79.59L259.03,79.76L279.88,79.78L280.43,79.78L343,79.4L343.54,78.59L344.09,75.89L344.64,69.33L346.29,54.84L346.84,53.75L347.39,53.44L347.93,54.09L349.03,61.19L349.58,69.93L350.68,79.31L351.23,79.7L358.36,79.78L358.91,79.78L361.65,79L362.2,76.02L364.4,51.48L364.95,50.3L366.04,49.31L366.59,49.6L367.69,52.89L368.24,57.97L369.89,79.31L370.44,79.71L377.57,79.78L378.12,79.78L381.41,79.41L381.96,78.92L383.06,74.98L383.61,70.37L385.25,59.63L385.8,59.01L386.35,59.71L386.9,61.9L389.64,74.45L390.19,75.08L391.29,75.26L391.84,74.86L393.48,71.44L394.03,69.7L396.23,65.1L396.78,65.21L398.42,67.67L398.97,68.63L400.62,70.33L401.17,70.42L402.81,69.5L403.36,68.97L405.56,67.5L406.11,67.59L407.75,69.12L408.3,69.84L410.5,71.74L411.05,71.82L413.79,70.94L414.34,70.67L417.08,68.56L417.63,68L419.28,67.58L419.83,68.16L422.02,70.51L422.57,70.39L425.86,67.38L426.41,67.99L428.06,72.55L428.61,74.34L430.25,77.53L430.8,77.89L437.94,79.35L438.49,79.33L440.68,78.69L441.23,78.19L442.33,76.08L442.88,74.29L446.17,64.34L446.72,63.27L450.56,57.21L451.11,58.17L452.21,68.13L452.75,75.19L453.85,79.04L454.4,79.3L459.89,79.78L460.44,79.78L548.79,79.78" style="vector-effect: non-scaling-stroke; fill: none; stroke: rgb(195, 113, 210); stroke-opacity: 1; stroke-width: 1px; opacity: 1;"/></g><g class="points"/><g class="text"/></g><g class="trace scatter tracefbe692" style="stroke-miterlimit: 2; opacity: 1;"><g class="fills"/><g class="errorbars"/><g class="lines"><path class="js-line" d="M0,76.61L4.39,73.45L4.94,73.56L7.13,75.04L7.68,75.59L10.98,78.21L11.52,78.28L13.17,78.16L13.72,78.67L15.91,79.65L16.46,79.67L21.4,79.27L21.95,78.39L25.24,67.18L25.79,66.52L26.34,66.57L26.89,67.52L29.09,71.8L29.63,71.92L30.73,70.28L31.28,68.83L32.38,67.23L32.93,67.94L35.12,71.79L35.67,71.89L37.32,71.9L37.87,72.73L41.16,79.73L41.71,79.77L83.42,79.78L83.97,79.78L98.78,79.37L99.33,78.83L100.43,75.8L100.98,72.84L103.72,59.74L104.27,58.06L105.37,55.23L105.92,56.32L108.11,73.69L108.66,74.65L111.95,79.61L112.5,79.73L123.48,79.78L124.03,79.78L160.8,79.09L161.35,78.7L163.54,75.18L164.09,74.28L166.28,72L166.83,71.79L169.58,72.04L170.13,72.2L176.71,75.36L177.26,75.22L180.55,73.07L181.1,73.48L183.3,75.57L183.85,76.45L186.04,79.13L186.59,79.33L190.98,79.69L191.53,79.7L212.93,79.34L213.48,79L214.58,77.16L215.13,73.16L216.77,49.96L217.32,50.31L218.97,64.04L219.52,66.01L221.71,75.79L222.26,76.22L223.36,74.47L223.91,72.76L224.46,71.66L225,72.02L225.55,73.46L227.2,76.73L227.75,76.49L228.85,76.12L229.4,77.12L231.04,78.64L231.59,78.67L233.79,78.4L234.33,77.71L236.53,77.77L237.08,76.76L239.27,66.86L239.82,67.89L243.12,79.19L243.66,79.57L247.51,79.78L248.05,79.78L274.4,79.08L274.95,78.33L276.04,73.73L276.59,69.36L277.69,62.1L278.24,62.47L280.98,73.89L281.53,74.15L282.63,73.48L283.18,72.75L284.27,72.06L284.82,72.4L289.76,76.96L290.31,77.84L292.51,79.48L293.06,79.6L300.19,79.78L300.74,79.78L548.79,79.78" style="vector-effect: non-scaling-stroke; fill: none; stroke: rgb(172, 142, 24); stroke-opacity: 1; stroke-width: 1px; opacity: 1;"/></g><g class="points"/><g class="text"/></g><g class="trace scatter tracec92957" style="stroke-miterlimit: 2; opacity: 1;"><g class="fills"/><g class="errorbars"/><g class="lines"><path class="js-line" d="M0,73.08L2.2,66.04L2.74,65.83L4.94,65.41L5.49,64.92L7.68,61.7L8.23,60.42L9.88,57.64L10.43,58.11L12.07,62.71L12.62,65.31L14.27,70.95L14.82,71.54L19.76,78.82L20.31,79.09L23.6,79.72L24.15,79.67L26.34,78.83L26.89,78.39L28.54,76.39L29.09,75.23L34.03,61.04L34.57,57.52L35.67,54.81L36.22,57.08L37.87,62.92L38.42,63.6L39.51,66.88L40.06,70.99L41.71,78.97L42.26,79.44L45,79.76L45.55,79.77L137.2,79.13L137.75,78.78L139.39,78.25L139.94,78.54L141.04,78.03L141.59,76.47L143.78,68.86L144.33,68.84L145.98,69.55L146.53,70.06L147.63,70.34L148.17,70.05L150.37,67.11L150.92,66.14L155.31,59.88L155.86,59.37L158.05,56.44L158.6,54.61L161.35,39.99L161.89,40.32L163.54,52.64L164.09,56.35L166.83,68.33L167.38,68.76L168.48,66.79L169.03,64.39L171.22,54.12L171.77,53.53L173.42,53.93L173.97,54.28L175.06,55.94L175.61,57.34L177.81,65.35L178.36,67.86L180,72.68L180.55,72.56L181.65,67.18L182.2,61.44L183.85,45.65L184.39,43.19L185.49,40.9L186.04,41.82L191.53,57.89L192.08,58.36L193.18,58.43L193.72,57.88L195.92,51.93L196.47,52.2L197.02,53.75L198.66,58.08L199.21,55.97L200.86,38.95L201.41,41.41L203.6,65.42L204.15,61.94L205.8,27.46L206.35,35.47L208.54,66.96L209.09,64.99L210.74,27.3L211.29,32.12L213.48,67.97L214.03,70.08L214.58,70.57L215.13,73.08L216.22,79.18L216.77,79.67L221.16,79.69L221.71,79.56L225,78.12L225.55,78.3L227.2,78.07L227.75,77.67L229.4,77.09L229.94,76.04L232.69,70.49L233.24,66.38L234.33,59.34L234.88,65.95L236.53,76.84L237.08,78.18L237.63,78.4L238.18,76.94L240.37,67.65L240.92,67.9L242.02,67.86L242.57,70.78L244.21,79.15L244.76,79.61L248.6,79.78L249.15,79.78L269.46,79.35L270.01,78.77L271.1,74.69L271.65,68.96L273.85,21.82L274.4,23.37L278.79,60.73L279.34,59.12L280.98,41.03L281.53,34.8L282.08,31.38L282.63,32.08L283.18,37.13L284.82,54.91L285.37,55.56L288.66,51.19L289.21,48.3L290.86,36.05L291.41,34.46L293.06,32.85L293.6,33.11L294.7,34.97L295.25,36.73L300.74,58.93L301.29,59.99L304.03,63.48L304.58,63.94L307.32,65.36L307.87,65.04L308.42,63.51L308.97,59.71L310.62,48.69L311.17,51.62L315.56,70.74L316.1,70.52L319.95,74.31L320.49,76.04L322.14,79.06L322.69,79.36L326.53,79.77L327.08,79.77L548.79,79.78" style="vector-effect: non-scaling-stroke; fill: none; stroke: rgb(0, 170, 174); stroke-opacity: 1; stroke-width: 1px; opacity: 1;"/></g><g class="points"/><g class="text"/></g><g class="trace scatter tracee72a39" style="stroke-miterlimit: 2; opacity: 1;"><g class="fills"/><g class="errorbars"/><g class="lines"><path class="js-line" d="M0,76.42L1.1,75.38L1.65,74.54L3.29,73.26L3.84,73.55L7.68,77.33L8.23,77.31L9.33,76.24L9.88,74.85L10.98,69.08L11.52,64.12L12.62,54.16L13.17,57.28L14.82,69.08L15.37,69.06L18.11,64.63L18.66,63.47L19.76,58.29L20.31,52.39L22.5,16.48L23.05,32.89L24.15,53.77L24.7,56.08L26.89,60.02L27.44,62.77L31.83,77L32.38,77.33L33.48,77.14L34.03,76.29L35.12,70.93L35.67,66.65L36.77,63.33L37.32,64.97L40.61,79.46L41.16,79.72L49.94,79.78L50.49,79.78L137.75,79.13L138.3,74.75L139.39,35.47L139.94,36.4L140.49,51.48L142.14,72.89L142.69,74.75L144.33,77.35L144.88,77.51L145.98,76.7L146.53,75.8L148.72,73.32L149.27,73.27L152.02,72.81L152.56,72.34L160.8,62.69L161.35,61.37L162.44,60.14L162.99,60.67L166.28,65.8L166.83,66.96L169.03,70.09L169.58,70.11L171.22,68.72L171.77,68.14L174.52,66.47L175.06,66.33L176.16,67.36L176.71,68.94L177.81,70.84L178.36,70.81L179.46,71.39L180,73.2L181.65,78.82L182.2,79.27L184.94,79.37L185.49,79.43L190.98,79.43L191.53,79.31L194.82,77.63L195.37,76.89L196.47,72.44L197.02,68.18L198.11,63.29L198.66,65.48L199.76,68.92L200.31,67.55L203.05,47.79L203.6,56.84L204.7,65.69L205.25,62.33L207.44,44.64L207.99,43.87L209.64,66.08L210.19,63.13L212.38,43.59L212.93,41.47L214.03,51.61L214.58,48.28L216.22,16.64L216.77,16.56L217.32,25.5L217.87,50.83L218.97,70.66L219.52,73.62L221.16,77.79L221.71,78.48L223.36,79.69L223.91,79.74L245.31,79.78L245.86,79.78L261.77,79.28L262.32,77.67L262.87,69.02L263.42,44.34L265.07,0L265.62,6.27L267.81,67.26L268.36,68.79L269.46,68.71L270.01,68.31L271.1,69L271.65,70.09L272.2,70.72L272.75,69.77L273.85,59.78L274.4,52.95L275.49,46.76L276.04,47.97L278.24,63.54L278.79,67.19L280.43,71.32L280.98,70.78L282.08,66.05L282.63,62.39L283.73,59.76L284.27,61.2L287.02,66.84L287.57,67.12L288.66,67.97L289.21,70.56L290.86,78.15L291.41,78.85L293.6,79.68L294.15,79.72L306.23,79.64L306.78,79.59L311.71,79.31L312.26,78.29L312.81,75.02L313.36,66.69L314.46,46.39L315.01,55.43L316.1,73.78L316.65,75.65L317.75,76.04L318.3,75.73L320.49,74.89L321.04,74.63L328.73,68.24L329.28,65.39L330.92,56.78L331.47,59.03L334.76,71.74L335.31,73.84L337.51,78.81L338.06,79.12L341.9,79.63L342.45,79.66L366.04,79.78L366.59,79.78L548.79,79.78" style="vector-effect: non-scaling-stroke; fill: none; stroke: rgb(237, 94, 147); stroke-opacity: 1; stroke-width: 1px; opacity: 1;"/></g><g class="points"/><g class="text"/></g><g class="trace scatter traceb80419" style="stroke-miterlimit: 2; opacity: 1;"><g class="fills"/><g class="errorbars"/><g class="lines"><path class="js-line" d="M0,75.47L2.2,78.56L2.74,78.79L8.23,79.49L8.78,79.52L34.03,79.78L34.57,79.78L45.55,79.26L46.1,78.57L47.74,74.32L48.29,72.36L51.04,65.16L51.59,64.45L52.68,64.12L53.23,64.6L56.53,69.14L57.07,68.78L60.92,63.29L61.46,63.04L65.31,62.42L65.86,62.45L67.5,63.08L68.05,63.58L71.89,66.55L72.44,66.85L76.83,69.53L77.38,70.74L80.67,77.99L81.22,78.24L81.77,77.97L82.32,76.1L84.51,61.12L85.06,60.18L87.26,56.6L87.81,56.51L91.1,57.76L91.65,58.04L93.84,59.91L94.39,61.39L95.49,63.29L96.04,61.67L98.78,42.05L99.33,43.04L101.53,57.03L102.08,56.4L103.17,56.01L103.72,56.89L105.92,64.49L106.47,64.25L107.01,60.24L107.56,56.4L108.11,56.9L108.66,59.81L110.31,64.87L110.86,65.51L112.5,66.59L113.05,66.48L116.89,65.87L117.44,65.97L119.09,66.87L119.64,67.62L120.73,70.53L121.28,72.88L122.93,79.09L123.48,79.5L125.67,79.58L126.22,79.11L127.32,75.28L127.87,71.92L128.42,70.4L128.97,71.39L131.16,77.31L131.71,77.81L135,78.95L135.55,78.91L136.65,77.75L137.2,75.58L138.3,67.99L138.84,68.58L139.39,71.54L141.59,74.85L142.14,74.5L143.23,69.46L143.78,65.16L144.33,63.58L144.88,65.74L147.08,78.86L147.63,79.41L150.37,79.78L150.92,79.78L235.98,79.03L236.53,73.98L237.63,55.85L238.18,61.05L239.82,63.89L240.37,64.86L242.57,71.99L243.12,70.18L244.76,52.81L245.31,54.56L247.51,63.64L248.05,64.55L252.44,69.7L252.99,71.14L255.74,79.34L256.29,79.6L261.23,79.78L261.77,79.78L328.73,79.53L329.28,78.94L330.37,72.98L330.92,66.44L332.57,53.3L333.12,52.18L333.67,52.02L334.21,52.97L335.31,59.36L335.86,64.04L337.51,74.8L338.06,76.19L339.7,77.62L340.25,77.47L341.35,76.05L341.9,74.45L345.19,61.99L345.74,62.11L347.39,65.41L347.93,67.14L351.23,79.46L351.78,79.6L357.26,79.53L357.81,79.38L358.91,78.42L359.46,77L360.56,68.94L361.11,63.21L362.2,57.29L362.75,57.51L367.14,68.17L367.69,70.37L369.89,79.17L370.44,79.55L373.73,79.66L374.28,79.5L374.83,78.84L375.37,76L377.02,56.07L377.57,55.34L379.76,54.91L380.31,55.03L381.41,55.81L381.96,56.72L383.61,59.61L384.15,59.5L384.7,59.49L385.25,60.78L387.45,69.99L388,70.44L388.55,69.89L389.09,68.14L391.29,60.76L391.84,60.34L393.48,60.52L394.03,60.88L395.68,63.05L396.23,64.03L397.87,65.86L398.42,65.84L402.81,63.43L403.36,63.53L406.11,65.13L406.66,65.53L408.85,66.1L409.4,65.88L414.34,63.87L414.89,63.74L419.28,62.44L419.83,62.66L426.41,66.24L426.96,66.77L428.61,68.02L429.16,67.74L433,63.2L433.55,63.08L436.84,63.01L437.39,62.6L439.58,61.36L440.13,61.38L442.88,62.67L443.42,63.1L447.27,65.27L447.81,65.48L450.01,67.06L450.56,67.97L452.21,74.02L452.75,76.39L453.85,77.27L454.4,75.55L456.05,69.16L456.6,68.83L458.24,63.68L458.79,64.56L460.44,68.31L460.99,68.47L462.08,67.23L462.63,65.82L464.83,60.15L465.38,59.88L466.47,61.6L467.02,63.02L468.67,65.93L469.22,66.16L471.41,65.17L471.96,64.95L476.35,63.44L476.9,62.74L479.64,59.38L480.19,59.27L481.84,60.14L482.39,60.68L485.13,63.15L485.68,64.86L487.33,67.88L487.88,68.24L490.62,68.78L491.17,68.23L492.82,62.79L493.36,60.81L495.01,57.75L495.56,58.24L498.3,66.28L498.85,66.56L500.5,65.91L501.05,65.5L504.34,63.84L504.89,63.8L521.35,63.4L521.9,63.29L527.94,62.5L528.49,62.69L532.88,64.12L533.43,64L535.62,62.51L536.17,61.97L538.91,59.98L539.46,60.1L540.56,61.47L541.11,62.63L546.6,76.22L547.15,78.28L548.24,79.72L548.79,79.77" style="vector-effect: non-scaling-stroke; fill: none; stroke: rgb(198, 130, 37); stroke-opacity: 1; stroke-width: 1px; opacity: 1;"/></g><g class="points"/><g class="text"/></g><g class="trace scatter trace3a701b" style="stroke-miterlimit: 2; opacity: 1;"><g class="fills"/><g class="errorbars"/><g class="lines"><path class="js-line" d="M0,74.96L2.74,77.96L3.29,78.1L8.23,79.43L8.78,79.57L14.27,79.78L14.82,79.78L42.81,79.38L43.35,77.18L45,55.08L45.55,56.03L47.2,59.22L47.74,60.06L52.14,67L52.68,69.02L55.43,77L55.98,77.6L58.17,78.45L58.72,78.43L61.46,77.37L62.01,76.97L65.86,74.68L66.4,74.93L71.34,79L71.89,79.12L77.38,79.49L77.93,79.42L79.57,78.38L80.12,77.34L81.77,71.04L82.32,66.71L82.87,63.93L83.42,64.42L83.97,66.06L85.06,68.25L85.61,67.81L88.9,59.49L89.45,59.16L91.1,59.52L91.65,60.45L92.75,64.72L93.29,68.02L95.49,78.98L96.04,79.45L98.23,79.55L98.78,79.38L102.62,77.13L103.17,77.03L105.92,76.62L106.47,77.06L107.56,77.06L108.11,76.33L110.86,73.13L111.4,71.23L113.6,62.82L114.15,62.35L116.34,62.18L116.89,62.25L119.09,63.13L119.64,63.77L120.73,66.19L121.28,68.3L123.48,78.45L124.03,78.94L126.77,79.67L127.32,79.65L144.33,79.78L144.88,79.78L242.57,79.04L243.12,77.97L243.66,73.95L244.21,64.07L245.31,58.48L245.86,59.57L248.05,61.91L248.6,62.15L251.35,64L251.9,64.79L253.54,69.3L254.09,71.86L256.29,79.46L256.83,79.68L263.42,79.78L263.97,79.78L327.63,79.27L328.18,77.52L330.92,55.7L331.47,54.92L332.57,54.84L333.12,55.42L334.21,57.84L334.76,59.99L338.06,77.04L338.61,77.8L339.7,78.24L340.25,77.98L341.35,75.93L341.9,73.66L344.64,62.42L345.19,61.37L346.29,60.99L346.84,61.63L348.48,65.21L349.03,67.45L350.68,74.58L351.23,73.8L352.32,72.52L352.87,74.31L354.52,78.01L355.07,78.47L356.72,78.88L357.26,78.7L358.36,77.41L358.91,75.87L362.2,61.82L362.75,61.4L364.4,61.08L364.95,61.51L366.59,63.46L367.14,64.61L368.24,68.58L368.79,71.94L369.89,77.01L370.44,77.3L371.53,77L372.08,78.37L373.73,79.73L374.28,79.75L383.61,79.4L384.15,79.17L386.9,76.77L387.45,77.07L390.19,79.47L390.74,79.56L396.23,79.38L396.78,79.32L412.69,78.65L413.24,78.4L415.44,76.35L415.98,75.5L420.38,68.01L420.92,68.16L423.12,71.07L423.67,71.74L428.06,75.97L428.61,76.9L430.8,78.89L431.35,79.03L434.09,78.79L434.64,78.52L436.84,76.24L437.39,75.46L439.58,73.41L440.13,73.41L443.42,73.94L443.97,73.57L446.72,69.96L447.27,69.15L450.01,66.15L450.56,66.3L451.66,68.65L452.21,71.5L453.85,78.88L454.4,79.37L457.14,79.77L457.69,79.78L474.71,79.14L475.25,78.68L476.9,75.73L477.45,74.36L479.1,71.53L479.64,71.46L480.74,72.61L481.29,73.62L484.58,79.31L485.13,79.47L488.43,79.25L488.97,79L490.07,77.77L490.62,76.43L493.91,65.8L494.46,65.02L495.56,64.6L496.11,65.29L499.4,70.67L499.95,70.96L502.15,71.08L502.69,70.97L507.08,70.76L507.63,70.83L514.77,71.17L515.32,71.17L529.58,71.88L530.13,72.1L534.52,73.13L535.07,72.98L537.27,71.32L537.82,70.79L539.46,70.29L540.01,70.78L547.15,79.61L547.7,79.74L548.79,79.78" style="vector-effect: non-scaling-stroke; fill: none; stroke: rgb(0, 169, 141); stroke-opacity: 1; stroke-width: 1px; opacity: 1;"/></g><g class="points"/><g class="text"/></g><g class="trace scatter traceb1592c" style="stroke-miterlimit: 2; opacity: 1;"><g class="fills"/><g class="errorbars"/><g class="lines"><path class="js-line" d="M0,72.05L1.1,70.09L1.65,70.2L6.04,71.71L6.59,71.83L10.98,72.16L11.52,71.84L12.62,70.73L13.17,69.21L15.37,58.31L15.91,58.78L18.66,60.42L19.21,61.75L21.4,69.5L21.95,73.06L23.05,77.37L23.6,77.58L25.24,75.4L25.79,74.51L26.34,74.28L26.89,75.23L28.54,78.39L29.09,78.63L30.18,78.2L30.73,77.36L31.83,73.54L32.38,70.6L34.57,62.47L35.12,63.04L37.87,70.12L38.42,70.74L40.06,73.67L40.61,75.21L42.81,79.3L43.35,79.63L47.2,79.78L47.74,79.78L104.82,79.17L105.37,77.23L107.01,57.37L107.56,59.22L108.66,62.28L109.21,62.04L109.76,61.96L110.31,63.01L113.6,78.12L114.15,78.8L116.34,79.65L116.89,79.7L123.48,79.49L124.03,78.97L125.12,74.88L125.67,69.93L126.22,67.88L126.77,69.62L127.87,71.84L128.42,71.51L131.71,61.03L132.26,60.93L134.45,61.91L135,61.29L136.1,56.14L136.65,52.22L137.75,48.13L138.3,49.02L140.49,66.66L141.04,66.89L142.14,66.04L142.69,67.07L144.88,72.14L145.43,72.24L148.17,72.07L148.72,71.98L154.21,71.32L154.76,71.76L162.99,78.96L163.54,79.18L166.83,79.17L167.38,78.98L170.13,78.24L170.67,78.44L175.06,79.64L175.61,79.67L179.46,79.26L180,78.93L182.2,76.16L182.75,75.4L183.3,75.79L183.85,77.27L185.49,79.34L186.04,79.53L190.98,79.75L191.53,79.75L198.66,79.15L199.21,78.64L200.86,77.44L201.41,78.16L203.05,79.16L203.6,78.94L205.25,77.07L205.8,77.76L207.44,79.35L207.99,79.43L209.09,78.87L209.64,78.01L210.74,77.76L211.29,78.42L212.93,79.33L213.48,79.21L214.03,78.58L214.58,76.65L215.68,73.86L216.22,74.75L217.87,77.92L218.42,78.83L220.61,79.71L221.16,79.75L233.79,79.48L234.33,79.38L235.98,79.33L236.53,78.82L237.08,76.89L237.63,68.52L238.72,50.31L239.27,49.95L240.37,52.3L240.92,54.26L243.12,70.28L243.66,73.83L245.31,79.41L245.86,79.63L251.35,79.78L251.9,79.78L260.13,79.54L260.68,77.74L262.32,47.4L262.87,47.8L265.07,74.86L265.62,76.94L267.26,78.83L267.81,78.99L273.3,79.68L273.85,79.7L288.66,79.78L289.21,79.78L312.26,79.1L312.81,79.02L315.01,78.05L315.56,75.62L318.3,45.81L318.85,44.68L319.4,44.42L319.95,46.29L321.59,56.73L322.14,57.14L323.79,58.91L324.34,60.67L326.53,67.46L327.08,68.25L328.73,70.7L329.28,72.78L330.92,78.24L331.47,78.88L333.67,79.54L334.21,79.57L336.96,78.88L337.51,77.92L340.25,67.15L340.8,67.24L342.45,70.44L343,71.98L346.29,79.2L346.84,79.44L349.58,79.52L350.13,79.39L353.97,78.8L354.52,77.68L357.81,64.63L358.36,64.77L359.46,67.17L360.01,69.17L362.75,77.4L363.3,78.51L364.95,79.61L365.5,79.68L369.89,79.35L370.44,79.12L371.53,78.79L372.08,77.97L373.18,71.98L373.73,67.13L374.83,62.23L375.37,62.65L376.47,62.81L377.02,61.57L379.76,55.27L380.31,54.81L381.41,55.03L381.96,55.98L383.61,61.63L384.15,64.29L386.35,71.83L386.9,72.07L388,70.79L388.55,69.23L390.74,63.27L391.29,62.91L392.39,63.25L392.94,63.91L396.78,70.15L397.33,70.17L399.52,68.44L400.07,67.98L401.72,67.46L402.27,67.6L406.11,68.93L406.66,68.64L411.59,64.31L412.14,64.36L414.89,65.58L415.44,66.02L417.63,69.21L418.18,70.47L421.47,77.62L422.02,78.08L424.22,78.57L424.77,78.49L426.41,77.6L426.96,76.85L428.06,73.46L428.61,70.48L430.25,63.21L430.8,62.85L431.9,64.45L432.45,66.05L436.29,76.58L436.84,77.36L439.03,79.23L439.58,79.43L443.97,79.77L444.52,79.78L455.5,79.2L456.05,76.66L457.69,56.17L458.24,55.61L459.89,55.34L460.44,55.14L461.53,55.62L462.08,56.35L465.38,62.61L465.92,64.75L468.67,75.33L469.22,76.12L471.96,78.22L472.51,78.46L478,79.68L478.55,79.72L493.36,79.78L493.91,79.78L548.79,79.78" style="vector-effect: non-scaling-stroke; fill: none; stroke: rgb(142, 151, 30); stroke-opacity: 1; stroke-width: 1px; opacity: 1;"/></g><g class="points"/><g class="text"/></g><g class="trace scatter trace746cde" style="stroke-miterlimit: 2; opacity: 1;"><g class="fills"/><g class="errorbars"/><g class="lines"><path class="js-line" d="M0,72.44L1.1,73.53L1.65,73.13L4.39,71.94L4.94,71.76L9.33,69.51L9.88,69.49L10.98,69.89L11.52,70.54L12.62,74.04L13.17,77.14L14.27,79.62L14.82,79.75L29.09,79.53L29.63,79.49L47.2,79.78L47.74,79.78L63.66,79.13L64.21,78.88L65.86,76.96L66.4,75.52L69.15,66.33L69.7,66.29L76.28,68.71L76.83,68.55L79.57,67.36L80.12,68.28L81.22,72.67L81.77,77.95L82.87,79.78L83.42,79.78L92.75,79.07L93.29,77.88L94.39,66.48L94.94,58.69L95.49,56.4L96.04,57.19L96.59,59.61L98.78,69.08L99.33,70.31L100.43,72.02L100.98,72.1L102.08,73.87L102.62,75.16L105.37,79.22L105.92,79.47L108.11,79.26L108.66,79.17L113.05,79.78L113.6,79.78L155.31,79.15L155.86,78.8L156.95,77.3L157.5,75.91L161.89,61.44L162.44,60.35L164.09,58.05L164.64,59.27L168.48,72.22L169.03,72.29L170.13,70.27L170.67,68.38L173.97,57.65L174.52,57.07L175.61,57.49L176.16,58.74L177.81,62.44L178.36,63.14L181.1,70.07L181.65,69.63L182.75,68.65L183.3,64.53L184.94,51.38L185.49,51.24L187.14,52.05L187.69,52.54L192.08,56.78L192.63,58.17L194.27,67.33L194.82,70.35L195.92,72.55L196.47,72.09L197.02,71.56L197.57,72.25L199.76,79.32L200.31,79.5L201.41,79.18L201.96,78.26L203.05,76.42L203.6,78.02L204.7,79.48L205.25,79.52L206.35,78.82L206.89,76.93L207.99,73.11L208.54,76.25L209.64,79.31L210.19,79.43L211.29,78.69L211.83,76.79L212.93,71.77L213.48,74.41L214.58,78.23L215.13,78.21L218.42,75.74L218.97,74.05L221.16,69.56L221.71,69.57L223.91,77.01L224.46,75.84L226.65,64.16L227.2,67.12L229.94,78.61L230.49,79.22L233.79,79.35L234.33,77.78L235.43,67.59L235.98,70.43L238.18,76.49L238.72,77.14L243.12,79.76L243.66,79.77L268.91,79.64L269.46,79.32L270.55,75.65L271.1,71.89L274.95,54.95L275.49,55.68L277.14,65.17L277.69,68.67L278.79,72.05L279.34,71.69L285.37,57.83L285.92,57.32L288.66,52.56L289.21,53.22L289.76,53.97L290.31,52.72L291.96,49.67L292.51,49.51L294.7,50.04L295.25,50.46L301.29,55.78L301.84,55.98L306.23,57.8L306.78,59.71L309.52,79.46L310.07,79.63L311.71,79.13L312.26,77.83L313.91,67.48L314.46,70.19L316.1,79.71L316.65,79.78L481.29,79.04L481.84,77.7L482.94,67.15L483.49,59.94L484.58,56.56L485.13,57.49L487.88,62.62L488.43,63.14L490.62,65.58L491.17,66.74L493.36,72.08L493.91,71.67L495.01,67.19L495.56,64.01L496.66,61.89L497.21,62.6L501.05,68.72L501.6,69.13L503.79,69.41L504.34,69.28L508.18,68.85L508.73,68.92L515.87,70.87L516.41,71.09L524.1,74.36L524.65,74.29L530.13,72.71L530.68,73.1L535.62,77.27L536.17,77.2L537.82,75.75L538.37,74.61L541.11,66.34L541.66,66.38L542.76,68.89L543.3,71.32L545.5,79.38L546.05,79.68L548.79,79.78" style="vector-effect: non-scaling-stroke; fill: none; stroke: rgb(0, 169, 204); stroke-opacity: 1; stroke-width: 1px; opacity: 1;"/></g><g class="points"/><g class="text"/></g><g class="trace scatter trace901a2f" style="stroke-miterlimit: 2; opacity: 1;"><g class="fills"/><g class="errorbars"/><g class="lines"><path class="js-line" d="M0,71.82L1.65,71.56L2.2,71.22L5.49,69.79L6.04,69.97L8.23,72.43L8.78,73.24L12.07,77.03L12.62,77.17L13.17,76.53L13.72,74.54L14.82,71.79L15.37,72.23L18.66,74.5L19.21,74.87L21.4,75.21L21.95,75.13L23.05,75.19L23.6,73.36L25.24,67.15L25.79,66.81L26.89,65.84L27.44,64.47L28.54,63.4L29.09,63.5L30.18,62.86L30.73,62.17L31.83,62L32.38,63.05L35.67,70.87L36.22,71.12L38.42,70.13L38.96,70.79L42.26,79.31L42.81,79.53L47.74,79.78L48.29,79.78L124.58,79.55L125.12,78.68L126.22,77.47L126.77,77.44L127.87,76.68L128.42,75.81L130.06,73.31L130.61,74.19L133.36,78.58L133.91,78.91L137.2,79.76L137.75,79.78L150.37,79.29L150.92,79.02L152.56,77.39L153.11,76.53L158.05,69.12L158.6,68.39L160.8,66.43L161.35,66.64L162.44,68.12L162.99,69.41L165.19,72.58L165.74,72.86L166.83,72.44L167.38,71.54L170.67,64.24L171.22,64.76L179.46,77.39L180,77.07L181.1,73.42L181.65,69.99L182.75,63.11L183.3,64.67L184.94,74.6L185.49,76.05L187.69,78.84L188.24,79.15L191.53,79.74L192.08,79.75L198.11,79.48L198.66,78.95L199.21,76.86L199.76,70.8L200.86,63.05L201.41,67.66L203.05,76.54L203.6,74.23L205.25,54.32L205.8,58.94L207.44,75.73L207.99,77.03L208.54,75.78L209.09,66.88L210.19,52.74L210.74,56.97L212.93,76.29L213.48,76.04L214.58,66.06L215.13,67.32L215.68,71.64L216.77,73.98L217.32,73.24L218.42,60.13L218.97,54.09L219.52,52.97L220.07,53.34L220.61,53.27L221.71,53.07L222.26,53.97L223.36,57.11L223.91,59.7L225.55,64.71L226.1,65.45L227.2,71.13L227.75,74.26L229.4,78.83L229.94,79.31L232.69,79.65L233.24,79.62L237.63,78.96L238.18,78.18L239.27,77.98L239.82,78.24L243.66,79.73L244.21,79.76L259.58,79.51L260.13,76.57L261.23,64.43L261.77,70.55L263.42,79.01L263.97,79.19L266.71,77.93L267.26,76.22L270.01,64.25L270.55,63.69L273.3,59.58L273.85,60.88L275.49,64.22L276.04,63.66L278.79,57.71L279.34,57.73L280.43,58.44L280.98,59.41L285.37,68.65L285.92,68.69L287.57,70.35L288.12,71.06L290.31,74.19L290.86,75.32L293.06,77.47L293.6,77.75L299.09,79.61L299.64,79.67L310.07,79.73L310.62,79.67L316.1,79.17L316.65,78.47L317.75,78.19L318.3,78.43L321.59,79.28L322.14,79.27L326.53,78.66L327.08,78.23L329.82,75.61L330.37,75.55L331.47,74.93L332.02,74.21L334.21,70.8L334.76,70.92L335.86,71.84L336.41,71.19L338.06,66.59L338.61,67.14L341.9,76.33L342.45,77.07L345.19,79.29L345.74,79.5L349.58,79.75L350.13,79.68L350.68,79.31L351.23,77.7L353.42,60.91L353.97,60.83L355.07,62.4L355.62,64.42L358.36,74.6L358.91,75.73L361.65,79.08L362.2,79.34L365.5,79.77L366.04,79.78L370.98,79.09L371.53,77.87L373.18,75.98L373.73,76.1L375.92,78.87L376.47,79.05L382.51,79.78L383.06,79.78L548.79,79.78" style="vector-effect: non-scaling-stroke; fill: none; stroke: rgb(155, 127, 233); stroke-opacity: 1; stroke-width: 1px; opacity: 1;"/></g><g class="points"/><g class="text"/></g><g class="trace scatter trace9d6ef3" style="stroke-miterlimit: 2; opacity: 1;"><g class="fills"/><g class="errorbars"/><g class="lines"><path class="js-line" d="M0,74.48L1.65,72.94L2.2,72.7L3.84,70.78L4.39,69.87L6.59,67.22L7.13,67.27L8.23,69.16L8.78,70.99L11.52,79.05L12.07,79.52L14.82,79.78L15.37,79.78L74.64,79.2L75.18,78.52L76.28,74.46L76.83,70.02L80.12,40.35L80.67,40.7L81.22,45.31L81.77,60.64L82.87,77.6L83.42,79.26L85.06,79.77L85.61,79.78L127.32,79.07L127.87,76.44L129.52,58.74L130.06,58.71L134.45,63.48L135,64.33L136.65,68.06L137.2,70.78L138.84,79.45L139.39,79.75L153.66,79.78L154.21,79.78L174.52,79.5L175.06,78.94L176.16,73.75L176.71,68.72L178.36,63.07L178.91,62.63L179.46,61.91L180,59.03L181.65,44.68L182.2,48.95L183.85,65.48L184.39,64.59L186.04,61.78L186.59,61.21L190.43,58.9L190.98,59.06L192.08,60.28L192.63,61.54L194.27,69.27L194.82,72.86L196.47,78.94L197.02,79.44L199.76,79.78L200.31,79.78L229.4,79.1L229.94,78.7L231.04,77.4L231.59,75.9L233.79,68.78L234.33,69.43L235.43,72.41L235.98,74.63L237.63,79.33L238.18,79.63L242.57,79.78L243.12,79.78L287.57,79.57L288.12,78.81L288.66,75.49L289.21,66.12L289.76,57.9L290.31,58.05L290.86,59.29L293.06,60.51L293.6,60.54L296.9,59.99L297.45,59.59L302.38,56.28L302.93,56.08L306.23,55.55L306.78,55.77L307.32,56.51L307.87,59.1L310.07,79.19L310.62,79.65L315.01,79.78L315.56,79.78L403.91,79.11L404.46,78.69L406.11,75.9L406.66,74.36L409.4,67.15L409.95,66.48L412.69,65.13L413.24,64.94L415.44,64.9L415.98,65.26L418.18,68.46L418.73,69.59L422.02,74.9L422.57,75.35L424.77,76.1L425.31,75.98L426.96,74.48L427.51,73.4L430.8,65.97L431.35,66.45L433.55,68.7L434.09,68.7L435.74,69.11L436.29,69.81L441.23,78.45L441.78,78.82L445.07,79.66L445.62,79.7L456.05,79.41L456.6,78.91L457.69,75.43L458.24,70.27L459.89,53.72L460.44,52.32L460.99,52.47L461.53,54.13L464.28,68.17L464.83,68.68L465.92,67.89L466.47,67.05L468.67,63.79L469.22,64.19L471.96,66.85L472.51,67L475.25,68.06L475.8,68.78L480.74,78.27L481.29,78.54L482.94,78.24L483.49,76.95L484.58,68.79L485.13,62.84L487.33,47.59L487.88,45.82L489.52,43.31L490.07,43.41L490.62,44.57L491.17,47.57L493.91,71.37L494.46,71.84L495.01,70.57L495.56,67.18L497.75,52.83L498.3,52.37L499.4,53.36L499.95,54.4L503.24,59.69L503.79,59.92L506.54,59.54L507.08,59.41L510.38,59.57L510.93,59.73L516.96,62.49L517.51,62.86L525.19,68.29L525.74,68.28L528.49,66.97L529.04,66.63L530.68,66.28L531.23,66.51L533.43,68.94L533.98,69.67L536.72,72.17L537.27,72.33L538.37,72.04L538.91,71.41L540.56,66.25L541.11,63.82L542.76,59.64L543.3,60.27L548.79,78.29" style="vector-effect: non-scaling-stroke; fill: none; stroke: rgb(97, 141, 246); stroke-opacity: 1; stroke-width: 1px; opacity: 1;"/></g><g class="points"/><g class="text"/></g><g class="trace scatter trace0673ae" style="stroke-miterlimit: 2; opacity: 1;"><g class="fills"/><g class="errorbars"/><g class="lines"><path class="js-line" d="M0,74.76L1.1,75.05L1.65,75.55L3.84,76.49L4.39,76.42L7.68,75.89L8.23,76.5L10.98,79.65L11.52,79.75L32.38,79.77L32.93,79.77L38.96,79.17L39.51,78.42L40.61,72.49L41.16,66.57L43.9,43.94L44.45,43.28L45,42.73L45.55,47.08L46.65,59.11L47.2,59.43L49.94,53.89L50.49,52.65L53.78,46.4L54.33,46.52L57.62,48.84L58.17,48.67L62.56,47.15L63.11,47.18L65.86,48.07L66.4,48.71L68.05,52.98L68.6,54.61L70.25,57.08L70.79,57.32L74.64,57.42L75.18,57.31L76.83,55.9L77.38,54.87L78.48,53.71L79.03,54.87L80.67,66.64L81.22,70.57L81.77,72.49L82.32,71.01L85.06,47.6L85.61,46.7L87.81,45.27L88.36,45.07L93.84,43.05L94.39,44.77L97.69,65.39L98.23,69.47L99.88,74.92L100.43,74.22L102.08,71.02L102.62,71.42L104.27,74.65L104.82,76.19L106.47,79.34L107.01,79.59L113.05,79.74L113.6,79.74L144.33,79.33L144.88,78.61L145.98,77.69L146.53,78.05L149.27,79.35L149.82,79.45L158.05,79.78L158.6,79.78L221.71,79.59L222.26,78.98L222.81,76.25L223.36,67.17L225,44.52L225.55,44.46L226.65,47.75L227.2,47.4L227.75,48L230.49,76.58L231.04,77.41L232.14,77.57L232.69,77.24L233.79,75.77L234.33,72.1L234.88,66.66L235.43,68.17L235.98,71.06L238.18,78.34L238.72,79.11L240.37,79.76L240.92,79.77L244.76,79.11L245.31,78.32L248.05,74.39L248.6,74.22L250.8,74.75L251.35,75.13L253.54,77.98L254.09,78.87L255.74,79.78L256.29,79.78L417.08,79.09L417.63,78.48L419.28,73.92L419.83,71.71L421.47,67.12L422.02,66.7L423.12,67.3L423.67,68.14L428.61,76.41L429.16,76.66L430.25,76.13L430.8,75.19L432.45,68.39L433,65L435.74,51.98L436.29,50.61L437.94,48.43L438.49,48.29L440.13,49.28L440.68,49.93L443.42,54.65L443.97,55.88L450.01,71.09L450.56,73.01L452.75,79.22L453.3,79.53L458.24,79.78L458.79,79.78L464.28,79.07L464.83,78.07L465.92,71L466.47,64.33L468.12,51.27L468.67,49.54L470.86,46.22L471.41,45.78L475.25,44.05L475.8,43.94L481.84,43.41L482.39,44.7L484.58,52.33L485.13,51.35L486.78,48.81L487.33,48.54L489.52,48.73L490.07,48.94L493.36,49.8L493.91,49.57L495.01,50L495.56,50.73L496.66,50.77L497.21,50.09L499.4,48.73L499.95,48.68L505.44,49.18L505.99,49.24L515.87,50.68L516.41,50.84L523,52.41L523.55,52.37L528.49,52.4L529.04,52.6L533.98,54.28L534.52,54L538.91,50.48L539.46,50.71L542.21,53.68L542.76,55.01L544.95,64.23L545.5,67.26L547.7,79.32L548.24,79.71L548.79,79.77" style="vector-effect: non-scaling-stroke; fill: none; stroke: rgb(240, 96, 115); stroke-opacity: 1; stroke-width: 1px; opacity: 1;"/></g><g class="points"/><g class="text"/></g><g class="trace scatter trace26ea23" style="stroke-miterlimit: 2; opacity: 1;"><g class="fills"/><g class="errorbars"/><g class="lines"><path class="js-line" d="M0,77.29L3.29,78.67L3.84,78.75L17.56,79.78L18.11,79.78L26.89,79.09L27.44,78.75L28.54,76.37L29.09,74.3L29.63,73.07L30.18,73.42L30.73,74.73L32.38,78.14L32.93,78.49L34.03,78.25L34.57,77.68L36.77,73.18L37.32,71.05L38.42,62.83L38.96,55.2L41.16,20.04L41.71,17.94L42.26,18.25L42.81,23.8L43.9,37.12L44.45,34.6L45.55,32.32L46.1,31.71L47.2,29.03L47.74,29.93L50.49,38.65L51.04,40.84L55.43,60.06L55.98,59.97L57.07,57.69L57.62,55.68L60.37,45.83L60.92,45.12L62.01,44.85L62.56,45.17L64.21,47.91L64.76,49.54L66.4,58.22L66.95,62.76L69.15,77.3L69.7,78.38L71.34,79.49L71.89,79.6L79.03,79.76L79.57,79.73L80.12,79.57L80.67,78.43L81.22,68.93L81.77,29.56L82.87,0.23L83.42,5.11L86.71,39.55L87.26,41.01L88.36,41.11L88.9,40.69L90.55,40.02L91.1,40.45L92.2,44.04L92.75,48.08L95.49,79.35L96.04,79.69L102.08,79.76L102.62,79.76L107.56,79.39L108.11,78.27L109.21,72.01L109.76,67.01L113.05,29.98L113.6,29.73L119.09,33.43L119.64,34.88L120.73,40.77L121.28,46.66L123.48,79.68L124.03,79.77L133.91,79.47L134.45,79.2L135.55,77.99L136.1,76.79L137.2,70.85L137.75,64.48L140.49,24.09L141.04,27.62L142.69,41.02L143.23,49.02L144.88,62.45L145.43,64.55L147.63,67.69L148.17,68.3L153.11,72.38L153.66,72.59L157.5,73.71L158.05,74.74L160.25,79.25L160.8,79.58L164.64,79.78L165.19,79.78L238.72,79.53L239.27,78.81L239.82,76.54L240.37,70.56L242.57,20.04L243.12,21.64L244.76,38.6L245.31,36.98L247.51,31.83L248.05,31.31L250.25,30.74L250.8,30.89L251.9,31.78L252.44,32.75L253.54,36.93L254.09,40.87L257.93,79.39L258.48,79.75L270.01,79.68L270.55,79.51L272.2,79.5L272.75,79.68L278.24,79.78L278.79,79.78L329.28,79.23L329.82,78.89L332.02,76.83L332.57,75.69L333.67,71.28L334.21,67.56L335.31,59.84L335.86,60.1L336.41,63.81L337.51,69.79L338.06,70.12L339.15,67.53L339.7,65.12L344.64,42.01L345.19,41.74L346.84,40.55L347.39,41.37L348.48,47.62L349.03,55.38L350.68,79.15L351.23,79.64L355.07,79.69L355.62,79.6L356.72,79.08L357.26,78.28L358.36,72.84L358.91,66.59L361.11,41.69L361.65,38.89L362.2,37.57L362.75,38.32L363.3,39.34L363.85,38.83L364.4,37.66L365.5,36.42L366.04,36.8L367.14,40.44L367.69,44.71L369.89,79.43L370.44,79.73L378.67,79.7L379.22,79.59L380.31,78.63L380.86,77.07L381.96,68.63L382.51,62.86L383.61,57.24L384.15,56.97L386.35,58.52L386.9,60.73L389.09,73.06L389.64,73.59L390.74,72.57L391.29,71.36L395.13,61.89L395.68,61.82L397.33,63.3L397.87,64.14L399.52,65.9L400.07,65.95L401.72,64.66L402.27,64.01L405.01,61.82L405.56,61.75L409.4,61.19L409.95,60.68L413.24,58.24L413.79,58.09L416.53,56.62L417.08,56.07L420.38,53.55L420.92,53.62L424.77,54.66L425.31,55.45L426.96,60.82L427.51,63.39L429.16,67.92L429.7,67.18L433,55.45L433.55,54.99L435.19,53.52L435.74,52.63L440.13,45.62L440.68,45.01L443.42,42.84L443.97,42.69L446.17,41.28L446.72,40.74L448.91,39.06L449.46,39.33L450.56,42.49L451.11,46.59L453.3,78.62L453.85,79.39L456.6,79.75L457.14,79.75L459.34,79.37L459.89,78.88L460.99,75.56L461.53,71.49L463.73,51.31L464.28,49.94L464.83,49.83L465.38,50.7L467.57,56.2L468.12,55.52L471.41,49.73L471.96,49.48L476.35,48.07L476.9,47.61L478.55,46.8L479.1,47.22L480.74,51.64L481.29,54.06L482.39,62.07L482.94,69.2L484.04,78.37L484.58,79.3L486.78,79.71L487.33,79.7L489.52,79.11L490.07,78.41L491.17,73.89L491.72,68.7L493.36,53.13L493.91,53.36L495.56,66.34L496.11,70.31L497.21,73.44L497.75,73.59L498.85,72.49L499.4,71.52L502.15,67.37L502.69,67.18L504.89,67.94L505.44,68.27L508.73,69.4L509.28,69.41L513.67,68.52L514.22,68.32L518.06,66.05L518.61,65.57L524.1,61.16L524.65,61.15L526.84,62.33L527.39,62.85L529.58,64.3L530.13,64.22L531.78,62.49L532.33,61.52L535.62,56.57L536.17,56.39L537.27,56.94L537.82,57.84L539.46,64.35L540.01,67.43L541.66,73.01L542.21,73.06L543.3,70.12L543.85,67.09L545.5,59.78L546.05,60.54L547.7,72.17L548.24,75.57L548.79,77.63" style="vector-effect: non-scaling-stroke; fill: none; stroke: rgb(221, 101, 182); stroke-opacity: 1; stroke-width: 1px; opacity: 1;"/></g><g class="points"/><g class="text"/></g><g class="trace scatter trace7adc8b" style="stroke-miterlimit: 2; opacity: 1;"><g class="fills"/><g class="errorbars"/><g class="lines"><path class="js-line" d="M0,70.66L1.65,75.97L2.2,76.8L3.84,77.85L4.39,77.9L6.04,77.17L6.59,76.49L12.07,65.37L12.62,63.17L13.17,61.59L13.72,61.83L14.27,63.61L15.91,68.47L16.46,69L18.66,71.09L19.21,71.98L20.85,76.25L21.4,77.94L23.05,79.65L23.6,79.76L44.45,79.78L45,79.78L117.99,79.06L118.54,78.42L119.64,75.43L120.19,72.7L122.93,55.47L123.48,56.43L124.58,59.24L125.12,62.71L126.77,74.38L127.32,75.55L130.61,78.78L131.16,79.05L134.45,79.76L135,79.77L176.71,79.78L177.26,79.78L182.75,79.21L183.3,78.47L184.39,78.21L184.94,78.64L187.69,79.35L188.24,79.34L190.98,78.31L191.53,77.7L193.18,73.84L193.72,71.37L195.92,61.24L196.47,60.83L197.57,59.97L198.11,58.31L199.21,55.78L199.76,56.16L201.41,56.84L201.96,55.97L204.15,53.49L204.7,54.37L206.35,57.72L206.89,56.69L207.99,56.37L208.54,54.51L209.09,53.58L209.64,54.12L210.19,56.05L211.29,58.97L211.83,58.29L213.48,59.12L214.03,60.58L216.22,78.89L216.77,79.45L219.52,79.77L220.07,79.78L250.8,79.25L251.35,78.85L252.44,76.98L252.99,75.1L254.64,63.92L255.19,58.94L256.83,47.42L257.38,47.42L257.93,48.65L258.48,48.2L259.03,47.99L259.58,48.09L260.13,50.73L261.23,56.72L261.77,63.82L263.42,77.25L263.97,78.84L265.62,79.7L266.16,79.74L280.43,79.78L280.98,79.78L306.78,79.15L307.32,78.09L308.42,66.01L308.97,58.99L310.07,57.04L310.62,57.26L312.26,55.45L312.81,56.95L313.91,60.72L314.46,58.39L315.56,53.87L316.1,56.9L318.3,69.16L318.85,70.09L321.04,72.02L321.59,71.55L323.79,70.65L324.34,70.68L325.98,69.88L326.53,69.43L328.73,66.86L329.28,64.47L330.92,59.18L331.47,59.12L333.12,59.83L333.67,60.76L335.86,67.97L336.41,67.71L336.96,66.57L338.06,65.4L338.61,66.52L341.9,76.51L342.45,77.21L344.64,78.66L345.19,78.5L346.29,77.28L346.84,76.14L348.48,68.8L349.03,64.68L350.13,59.5L350.68,60.56L351.78,61.58L352.32,60.43L353.42,59.18L353.97,59.19L355.07,60.48L355.62,62.13L360.01,75.75L360.56,77.16L362.2,79.2L362.75,79.36L364.4,78.9L364.95,78.42L366.04,76.33L366.59,74.33L368.24,63.08L368.79,58.58L369.34,56.86L369.89,58.3L372.08,64.99L372.63,64.64L373.18,65.32L373.73,67.69L375.92,75.5L376.47,76.18L380.31,78.11L380.86,78.31L384.7,79.39L385.25,79.22L386.35,78.08L386.9,76.74L388.55,72.98L389.09,73.49L391.84,77.55L392.39,77.95L394.58,78.62L395.13,78.57L397.33,77.49L397.87,77.1L400.07,76.67L400.62,76.83L405.56,77.87L406.11,77.91L409.4,79.04L409.95,79.26L413.79,79.75L414.34,79.76L424.22,79.29L424.77,78.98L426.41,76.76L426.96,75.6L428.06,73.99L428.61,74.22L431.9,79.37L432.45,79.55L437.94,79.73L438.49,79.73L447.81,79.11L448.36,78.76L449.46,77.26L450.01,75.8L451.66,66.24L452.21,61.58L453.3,58.14L453.85,58.82L456.6,65.64L457.14,69.35L458.79,75.26L459.34,76.38L461.53,79.05L462.08,79.41L464.83,79.78L465.38,79.78L548.79,79.78" style="vector-effect: non-scaling-stroke; fill: none; stroke: rgb(108, 159, 51); stroke-opacity: 1; stroke-width: 1px; opacity: 1;"/></g><g class="points"/><g class="text"/></g></g></g><g class="overplot"/><path class="xlines-above crisp" d="M46.27034120734907,103.16841644794403H596.0629921259842" style="fill: none; stroke-width: 1px; stroke: rgb(0, 0, 0); stroke-opacity: 1;"/><path class="ylines-above crisp" d="M46.77034120734907,22.887139107611553V102.66841644794403" style="fill: none; stroke-width: 1px; stroke: rgb(0, 0, 0); stroke-opacity: 1;"/><g class="overlines-above"/><g class="xaxislayer-above"><path class="xtick ticks crisp" d="M0,102.66841644794403v-5" transform="translate(157.03034120734907,0)" style="stroke: rgb(0, 0, 0); stroke-opacity: 1; stroke-width: 1px;"/><path class="xtick ticks crisp" d="M0,102.66841644794403v-5" transform="translate(266.79034120734906,0)" style="stroke: rgb(0, 0, 0); stroke-opacity: 1; stroke-width: 1px;"/><path class="xtick ticks crisp" d="M0,102.66841644794403v-5" transform="translate(376.55034120734905,0)" style="stroke: rgb(0, 0, 0); stroke-opacity: 1; stroke-width: 1px;"/><path class="xtick ticks crisp" d="M0,102.66841644794403v-5" transform="translate(486.30034120734905,0)" style="stroke: rgb(0, 0, 0); stroke-opacity: 1; stroke-width: 1px;"/><g class="xtick"><text text-anchor="middle" x="0" y="124.06841644794403" transform="translate(47.27034120734907,0)" style="font-family: sans-serif; font-size: 17px; fill: rgb(0, 0, 0); fill-opacity: 1; white-space: pre; opacity: 1;">0</text></g><g class="xtick"><text text-anchor="middle" x="0" y="124.06841644794403" style="font-family: sans-serif; font-size: 17px; fill: rgb(0, 0, 0); fill-opacity: 1; white-space: pre; opacity: 1;" transform="translate(157.03034120734907,0)">2000</text></g><g class="xtick"><text text-anchor="middle" x="0" y="124.06841644794403" style="font-family: sans-serif; font-size: 17px; fill: rgb(0, 0, 0); fill-opacity: 1; white-space: pre; opacity: 1;" transform="translate(266.79034120734906,0)">4000</text></g><g class="xtick"><text text-anchor="middle" x="0" y="124.06841644794403" style="font-family: sans-serif; font-size: 17px; fill: rgb(0, 0, 0); fill-opacity: 1; white-space: pre; opacity: 1;" transform="translate(376.55034120734905,0)">6000</text></g><g class="xtick"><text text-anchor="middle" x="0" y="124.06841644794403" style="font-family: sans-serif; font-size: 17px; fill: rgb(0, 0, 0); fill-opacity: 1; white-space: pre; opacity: 1;" transform="translate(486.30034120734905,0)">8000</text></g><g class="xtick"><text text-anchor="middle" x="0" y="124.06841644794403" style="font-family: sans-serif; font-size: 17px; fill: rgb(0, 0, 0); fill-opacity: 1; white-space: pre; opacity: 0;" transform="translate(596.060341207349,0)">10000</text></g></g><g class="yaxislayer-above"><path class="ytick ticks crisp" d="M47.27034120734907,0h5" transform="translate(0,79.64713910761155)" style="stroke: rgb(0, 0, 0); stroke-opacity: 1; stroke-width: 1px;"/><path class="ytick ticks crisp" d="M47.27034120734907,0h5" transform="translate(0,56.627139107611555)" style="stroke: rgb(0, 0, 0); stroke-opacity: 1; stroke-width: 1px;"/><path class="ytick ticks crisp" d="M47.27034120734907,0h5" transform="translate(0,33.60713910761155)" style="stroke: rgb(0, 0, 0); stroke-opacity: 1; stroke-width: 1px;"/><g class="ytick"><text text-anchor="end" x="42.87034120734907" y="5.949999999999999" transform="translate(0,102.66713910761155)" style="font-family: sans-serif; font-size: 17px; fill: rgb(0, 0, 0); fill-opacity: 1; white-space: pre; opacity: 1;">0</text></g><g class="ytick"><text text-anchor="end" x="42.87034120734907" y="5.949999999999999" style="font-family: sans-serif; font-size: 17px; fill: rgb(0, 0, 0); fill-opacity: 1; white-space: pre; opacity: 1;" transform="translate(0,79.64713910761155)">5</text></g><g class="ytick"><text text-anchor="end" x="42.87034120734907" y="5.949999999999999" style="font-family: sans-serif; font-size: 17px; fill: rgb(0, 0, 0); fill-opacity: 1; white-space: pre; opacity: 1;" transform="translate(0,56.627139107611555)">10</text></g><g class="ytick"><text text-anchor="end" x="42.87034120734907" y="5.949999999999999" style="font-family: sans-serif; font-size: 17px; fill: rgb(0, 0, 0); fill-opacity: 1; white-space: pre; opacity: 1;" transform="translate(0,33.60713910761155)">15</text></g></g><g class="overaxes-above"/></g></g><g class="polarlayer"/><g class="ternarylayer"/><g class="geolayer"/><g class="funnelarealayer"/><g class="pielayer"/><g class="iciclelayer"/><g class="treemaplayer"/><g class="sunburstlayer"/><g class="glimages"/><defs id="topdefs-209c45"><g class="clips"/></defs><g class="layer-above"><g class="imagelayer"/><g class="shapelayer"/></g><g class="infolayer"><g class="g-gtitle"/><g class="g-xtitle" transform="translate(0,-17.668416447944026)"><text class="xtitle" x="321.6666666666667" y="163.66841644794403" text-anchor="middle" style="font-family: sans-serif; font-size: 17px; fill: rgb(0, 0, 0); opacity: 1; font-weight: normal; white-space: pre;">Time</text></g><g class="g-ytitle" transform="translate(12.2294921875,0)"><text class="ytitle" transform="rotate(-90,3.2703412073490696,62.777777777777786)" x="3.2703412073490696" y="62.777777777777786" text-anchor="middle" style="font-family: sans-serif; font-size: 17px; fill: rgb(0, 0, 0); opacity: 1; font-weight: normal; white-space: pre;">Density</text></g></g></svg>