<svg class="main-svg" xmlns="http://www.w3.org/2000/svg" xmlns:xlink="http://www.w3.org/1999/xlink" width="600" height="150" style=""><rect x="0" y="0" width="600" height="150" style="fill: rgb(255, 255, 255); fill-opacity: 1;"/><defs id="defs-da09da"><g class="clips"><clipPath id="clipda09daxyplot" class="plotclip"><rect width="562.1259842519685" height="79.78127734033247"/></clipPath><clipPath class="axesclip" id="clipda09dax"><rect x="33.93700787401575" y="0" width="562.1259842519685" height="150"/></clipPath><clipPath class="axesclip" id="clipda09day"><rect x="0" y="22.887139107611553" width="600" height="79.78127734033247"/></clipPath><clipPath class="axesclip" id="clipda09daxy"><rect x="33.93700787401575" y="22.887139107611553" width="562.1259842519685" height="79.78127734033247"/></clipPath></g><g class="gradients"/><g class="patterns"/></defs><g class="bglayer"/><g class="layer-below"><g class="imagelayer"/><g class="shapelayer"/></g><g class="cartesianlayer"><g class="subplot xy"><g class="layer-subplot"><g class="shapelayer"/><g class="imagelayer"/></g><g class="gridlayer"><g class="x"/><g class="y"/></g><g class="zerolinelayer"/><path class="xlines-below"/><path class="ylines-below"/><g class="overlines-below"/><g class="xaxislayer-below"/><g class="yaxislayer-below"/><g class="overaxes-below"/><g class="plot" transform="translate(33.93700787401575,22.887139107611553)" clip-path="url(#clipda09daxyplot)"><g class="scatterlayer mlayer"><g class="trace scatter trace37dead" style="stroke-miterlimit: 2; opacity: 1;"><g class="fills"/><g class="errorbars"/><g class="lines"><path class="js-line" d="M0,65.1L12.93,67.79L13.49,67.84L21.92,68.12L22.49,68.02L26.42,66.41L26.98,66.02L30.92,61.98L31.48,61.21L39.91,49.13L40.47,49.07L42.16,50.56L42.72,51.51L48.9,64.59L49.47,64.34L50.59,61.6L51.15,58.94L56.77,26.56L57.34,25.42L58.46,24.86L59.02,25.42L60.71,29.97L61.27,32.25L65.77,49.4L66.33,50.34L67.46,50.99L68.02,50.67L71.39,46.95L71.95,47.59L74.2,53.83L74.76,55.36L76.45,58.2L77.01,58.56L82.07,59.69L82.63,59.58L91.63,56.57L92.19,56.48L104.56,54.76L105.12,54.72L123.67,52.66L124.23,52.58L138.85,51.47L139.41,51.47L196.74,52.24L197.31,52.24L562.13,52.45" style="vector-effect: non-scaling-stroke; fill: none; stroke: rgb(0, 154, 250); stroke-opacity: 1; stroke-width: 1px; opacity: 1;"/></g><g class="points"/><g class="text"/></g><g class="trace scatter trace1d1e83" style="stroke-miterlimit: 2; opacity: 1;"><g class="fills"/><g class="errorbars"/><g class="lines"><path class="js-line" d="M0,65.33L2.25,65.29L2.81,65.31L13.49,67.2L14.05,67.32L31.48,71.75L32.04,72.03L38.22,76.24L38.79,76.7L42.72,79.12L43.28,79.27L47.78,79.48L48.34,79.39L50.59,78.31L51.15,77.72L54.53,74.31L55.09,74.31L57.34,75.35L57.9,75.8L61.83,78.39L62.4,78.53L67.46,78.75L68.02,78.73L72.51,79.33L73.08,79.43L81.51,79.76L82.07,79.77L562.13,79.78" style="vector-effect: non-scaling-stroke; fill: none; stroke: rgb(227, 111, 71); stroke-opacity: 1; stroke-width: 1px; opacity: 1;"/></g><g class="points"/><g class="text"/></g><g class="trace scatter trace1891a1" style="stroke-miterlimit: 2; opacity: 1;"><g class="fills"/><g class="errorbars"/><g class="lines"><path class="js-line" d="M0,65.26L1.69,66L2.25,66.14L12.93,68.9L13.49,69.1L23.61,71.8L24.17,71.91L32.04,74.1L32.6,74.33L39.91,78.05L40.47,78.41L43.85,79.68L44.41,79.72L58.46,79.74L59.02,79.73L73.64,78.91L74.2,78.75L77.57,78.74L78.14,78.82L87.13,79.78L87.69,79.78L562.13,79.78" style="vector-effect: non-scaling-stroke; fill: none; stroke: rgb(62, 164, 78); stroke-opacity: 1; stroke-width: 1px; opacity: 1;"/></g><g class="points"/><g class="text"/></g><g class="trace scatter trace0c3adc" style="stroke-miterlimit: 2; opacity: 1;"><g class="fills"/><g class="errorbars"/><g class="lines"><path class="js-line" d="M0,64.5L1.12,65.49L1.69,65.62L12.37,67.82L12.93,68.08L26.42,73.79L26.98,73.89L31.48,73.78L32.04,73.59L34.29,72.08L34.85,71.42L36.54,68.18L37.1,66.51L38.79,58.78L39.35,55.08L44.97,14.26L45.53,13.72L46.09,14.22L46.66,15.78L48.34,26.34L48.9,31.31L52.28,56.18L52.84,57.69L54.53,58.95L55.09,59L56.77,59.09L57.34,58.58L58.46,55.71L59.02,53.25L62.4,36.51L62.96,35.94L64.08,37.73L64.64,39.74L68.02,52.06L68.58,52.85L69.14,52.99L69.7,52.28L70.83,47.85L71.39,44.48L74.2,29.99L74.76,28.81L78.7,22.1L79.26,20.53L82.63,13.01L83.19,12.26L86.57,9.56L87.13,9.34L96.69,6.29L97.25,5.95L106.24,0.67L106.8,0.5L111.86,0.04L112.43,0.1L118.61,1.59L119.17,1.78L138.28,7.59L138.85,7.67L146.71,7.99L147.28,7.96L161.33,6.46L161.89,6.42L178.76,5.91L179.32,5.91L233.84,6.14L234.41,6.14L256.33,6.18L256.89,6.18L297.36,6.2L297.93,6.21L562.13,6.37" style="vector-effect: non-scaling-stroke; fill: none; stroke: rgb(195, 113, 210); stroke-opacity: 1; stroke-width: 1px; opacity: 1;"/></g><g class="points"/><g class="text"/></g><g class="trace scatter trace0998fe" style="stroke-miterlimit: 2; opacity: 1;"><g class="fills"/><g class="errorbars"/><g class="lines"><path class="js-line" d="M0,66.55L2.25,67.91L2.81,68.23L7.31,69.93L7.87,70.08L15.74,71.51L16.3,71.52L21.36,70.73L21.92,70.54L26.42,68.25L26.98,67.87L33.17,62.66L33.73,62.12L38.22,58.57L38.79,58.42L41.04,58.87L41.6,59.16L44.41,60.14L44.97,59.84L46.09,57.88L46.66,55.99L48.9,42.73L49.47,38.93L51.15,31.63L51.72,31.28L52.84,33L53.4,34.4L56.77,44.87L57.34,47.23L60.15,56.2L60.71,56.33L61.83,54.29L62.4,52.09L66.89,27.53L67.46,27.14L68.58,29.22L69.14,31.6L71.95,44.06L72.51,44.24L73.64,42.49L74.2,40.98L76.45,36.83L77.01,36.89L80.38,38.59L80.95,38.52L84.88,38.8L85.44,38.94L94.44,40.99L95,41.34L108.49,50.18L109.05,50.37L115.8,51.54L116.36,51.57L126.48,51.04L127.04,50.97L151.21,48.99L151.77,49L211.36,49.84L211.92,49.83L253.52,49.83L254.08,49.83L562.13,49.47" style="vector-effect: non-scaling-stroke; fill: none; stroke: rgb(172, 142, 24); stroke-opacity: 1; stroke-width: 1px; opacity: 1;"/></g><g class="points"/><g class="text"/></g><g class="trace scatter traced7f323" style="stroke-miterlimit: 2; opacity: 1;"><g class="fills"/><g class="errorbars"/><g class="lines"><path class="js-line" d="M0,66.53L1.69,66.81L2.25,66.76L8.43,65.17L8.99,64.99L28.67,59.41L29.23,59.31L41.04,57.52L41.6,57.84L45.53,60.31L46.09,60.18L48.9,58.03L49.47,57.59L51.15,57.17L51.72,57.58L53.96,61.65L54.53,62.69L57.34,65.93L57.9,66.27L66.89,69.68L67.46,69.76L69.7,69.74L70.27,69.2L73.08,65.25L73.64,65.33L75.32,67.41L75.89,68.35L79.26,72.29L79.82,72.8L86.01,77.43L86.57,77.67L92.19,78.99L92.75,79.05L105.12,79.67L105.68,79.68L152.9,79.78L153.46,79.78L562.13,79.78" style="vector-effect: non-scaling-stroke; fill: none; stroke: rgb(0, 170, 174); stroke-opacity: 1; stroke-width: 1px; opacity: 1;"/></g><g class="points"/><g class="text"/></g><g class="trace scatter trace180710" style="stroke-miterlimit: 2; opacity: 1;"><g class="fills"/><g class="errorbars"/><g class="lines"><path class="js-line" d="M0,64.9L2.25,65.53L2.81,65.52L5.62,64.4L6.18,64.03L13.49,58.18L14.05,57.72L21.36,52.69L21.92,52.46L25.3,51.94L25.86,52.03L28.67,53.36L29.23,53.85L32.04,57.52L32.6,58.53L36.54,67.75L37.1,69.14L39.91,74.25L40.47,74.74L42.16,75.07L42.72,74.78L44.41,72.47L44.97,71.06L48.9,58.84L49.47,59.44L51.15,65.41L51.72,68.33L53.96,78.28L54.53,79.13L56.21,79.75L56.77,79.77L100.06,79.78L100.62,79.78L562.13,79.78" style="vector-effect: non-scaling-stroke; fill: none; stroke: rgb(237, 94, 147); stroke-opacity: 1; stroke-width: 1px; opacity: 1;"/></g><g class="points"/><g class="text"/></g><g class="trace scatter tracefd4627" style="stroke-miterlimit: 2; opacity: 1;"><g class="fills"/><g class="errorbars"/><g class="lines"><path class="js-line" d="M0,66.56L3.37,66.87L3.93,66.88L11.24,66.21L11.8,66.11L18.55,63.97L19.11,63.73L26.42,59.41L26.98,58.98L37.66,50.25L38.22,50.14L40.47,50.62L41.04,51.01L43.28,54.09L43.85,55.14L47.22,60.24L47.78,60.7L49.47,60.79L50.03,60.2L55.09,51.35L55.65,51.13L58.46,49.9L59.02,49.33L62.4,46.42L62.96,46.55L64.64,48.63L65.21,49.88L68.02,59.28L68.58,61.27L70.27,65.03L70.83,65.24L72.51,63.77L73.08,63.14L74.2,62.72L74.76,63.07L79.82,68.96L80.38,69.03L83.76,68.44L84.32,68.27L91.06,66.85L91.63,66.76L97.25,64.94L97.81,64.68L106.8,60.96L107.37,60.82L114.11,60.05L114.67,60.04L126.48,60.74L127.04,60.8L147.28,61.88L147.84,61.87L209.67,61.26L210.24,61.26L562.13,61.45" style="vector-effect: non-scaling-stroke; fill: none; stroke: rgb(198, 130, 37); stroke-opacity: 1; stroke-width: 1px; opacity: 1;"/></g><g class="points"/><g class="text"/></g><g class="trace scatter trace86f12f" style="stroke-miterlimit: 2; opacity: 1;"><g class="fills"/><g class="errorbars"/><g class="lines"><path class="js-line" d="M0,65.32L1.12,65.38L1.69,65.09L12.93,57.25L13.49,56.76L20.24,51.66L20.8,51.37L25.3,50.12L25.86,50.09L31.48,50.59L32.04,50.64L35.41,50.39L35.98,50.19L41.6,47.17L42.16,47.39L43.85,49.22L44.41,50.2L46.66,56.63L47.22,58.86L51.72,75.35L52.28,76.17L53.96,77.24L54.53,77.31L56.77,76.59L57.34,76.12L61.83,71.63L62.4,72.1L66.89,78.87L67.46,79.09L72.51,79.53L73.08,79.55L100.06,79.78L100.62,79.78L562.13,79.78" style="vector-effect: non-scaling-stroke; fill: none; stroke: rgb(0, 169, 141); stroke-opacity: 1; stroke-width: 1px; opacity: 1;"/></g><g class="points"/><g class="text"/></g><g class="trace scatter trace55fdc4" style="stroke-miterlimit: 2; opacity: 1;"><g class="fills"/><g class="errorbars"/><g class="lines"><path class="js-line" d="M0,65.93L19.67,58.87L20.24,58.81L24.73,59.16L25.3,59.3L29.79,61.31L30.35,61.68L33.73,64.93L34.29,65.68L42.16,77.36L42.72,77.67L45.53,78L46.09,77.82L48.34,75.98L48.9,75.43L50.03,75L50.59,75.28L55.09,79.43L55.65,79.54L62.4,79.63L62.96,79.62L95.56,79.78L96.12,79.78L562.13,79.78" style="vector-effect: non-scaling-stroke; fill: none; stroke: rgb(142, 151, 30); stroke-opacity: 1; stroke-width: 1px; opacity: 1;"/></g><g class="points"/><g class="text"/></g><g class="trace scatter trace0a30fe" style="stroke-miterlimit: 2; opacity: 1;"><g class="fills"/><g class="errorbars"/><g class="lines"><path class="js-line" d="M0,65.42L3.93,65.92L4.5,65.79L24.17,60.64L24.73,60.63L31.48,61.34L32.04,61.39L35.41,61L35.98,60.72L38.79,58.14L39.35,57.45L42.16,54.76L42.72,54.73L44.41,56.15L44.97,57.08L49.47,66.4L50.03,66.37L51.15,65.1L51.72,64L54.53,58.93L55.09,58.6L56.77,58.64L57.34,59.37L59.59,66.12L60.15,67.87L62.96,73.87L63.52,74.76L66.33,77.93L66.89,78.22L69.7,78.4L70.27,78.38L75.32,78.37L75.89,78.05L77.57,75.89L78.14,74.61L83.76,59.21L84.32,58.69L86.57,57.83L87.13,57.77L96.12,56.46L96.69,56.31L108.49,53.62L109.05,53.56L119.17,53L119.73,53L136.03,53.41L136.6,53.46L160.77,54.28L161.33,54.26L190.56,53.96L191.12,53.96L562.13,54.18" style="vector-effect: non-scaling-stroke; fill: none; stroke: rgb(0, 169, 204); stroke-opacity: 1; stroke-width: 1px; opacity: 1;"/></g><g class="points"/><g class="text"/></g><g class="trace scatter trace3f62c5" style="stroke-miterlimit: 2; opacity: 1;"><g class="fills"/><g class="errorbars"/><g class="lines"><path class="js-line" d="M0,64.73L4.5,63.53L5.06,63.64L12.37,66.05L12.93,66.31L24.73,73.03L25.3,73.35L37.1,79.11L37.66,79.25L43.28,79.77L43.85,79.77L73.08,79.57L73.64,79.54L101.74,79.78L102.31,79.78L562.13,79.78" style="vector-effect: non-scaling-stroke; fill: none; stroke: rgb(155, 127, 233); stroke-opacity: 1; stroke-width: 1px; opacity: 1;"/></g><g class="points"/><g class="text"/></g><g class="trace scatter trace093c59" style="stroke-miterlimit: 2; opacity: 1;"><g class="fills"/><g class="errorbars"/><g class="lines"><path class="js-line" d="M0,66.42L1.69,67.29L2.25,67.19L7.31,65.08L7.87,64.76L12.93,60.85L13.49,60.29L25.3,48.41L25.86,48.18L28.67,47.94L29.23,48.09L32.04,49.8L32.6,50.32L37.1,55.67L37.66,56.48L40.47,62.05L41.04,63.65L45.53,76.72L46.09,77.47L48.34,78.8L48.9,78.87L51.15,78.11L51.72,77.44L55.09,71.58L55.65,71.52L57.34,72.63L57.9,73.39L61.27,77.81L61.83,78.18L65.77,79.34L66.33,79.43L73.64,79.78L74.2,79.78L562.13,79.78" style="vector-effect: non-scaling-stroke; fill: none; stroke: rgb(97, 141, 246); stroke-opacity: 1; stroke-width: 1px; opacity: 1;"/></g><g class="points"/><g class="text"/></g><g class="trace scatter trace283982" style="stroke-miterlimit: 2; opacity: 1;"><g class="fills"/><g class="errorbars"/><g class="lines"><path class="js-line" d="M0,64.4L1.12,65.2L1.69,65.15L5.06,65.09L5.62,65.22L11.8,67.72L12.37,68L26.98,75.24L27.54,75.43L42.72,79.76L43.28,79.77L562.13,79.78" style="vector-effect: non-scaling-stroke; fill: none; stroke: rgb(240, 96, 115); stroke-opacity: 1; stroke-width: 1px; opacity: 1;"/></g><g class="points"/><g class="text"/></g><g class="trace scatter trace56cbfb" style="stroke-miterlimit: 2; opacity: 1;"><g class="fills"/><g class="errorbars"/><g class="lines"><path class="js-line" d="M0,66.19L5.06,63.93L5.62,63.7L12.93,59.95L13.49,59.61L20.8,55.98L21.36,55.85L25.3,55.69L25.86,55.8L29.79,57.47L30.35,57.85L34.29,61.51L34.85,62.2L42.16,70.67L42.72,70.85L44.97,70.82L45.53,70.6L48.34,69.27L48.9,69.53L50.59,71.84L51.15,72.83L54.53,77.02L55.09,77.41L57.9,78.4L58.46,78.45L62.4,77.93L62.96,77.79L65.77,77.91L66.33,78.11L70.83,79.3L71.39,79.32L562.13,79.78" style="vector-effect: non-scaling-stroke; fill: none; stroke: rgb(221, 101, 182); stroke-opacity: 1; stroke-width: 1px; opacity: 1;"/></g><g class="points"/><g class="text"/></g><g class="trace scatter trace19aba4" style="stroke-miterlimit: 2; opacity: 1;"><g class="fills"/><g class="errorbars"/><g class="lines"><path class="js-line" d="M0,64.46L1.69,65.35L2.25,65.5L8.43,67.91L8.99,68.23L15.74,72.95L16.3,73.35L22.49,76.79L23.05,77.01L29.79,78.67L30.35,78.76L42.16,79.69L42.72,79.69L50.03,79.01L50.59,78.74L52.84,78.06L53.4,78.23L57.9,79.43L58.46,79.48L62.96,79.09L63.52,78.76L64.64,77.35L65.21,75.97L66.89,67.29L67.46,63.16L69.14,54.73L69.7,54.77L71.95,59.09L72.51,58.67L73.64,54.93L74.2,51.71L77.01,35.61L77.57,34.48L80.38,32.24L80.95,31.77L83.19,30.53L83.76,30.48L91.06,30.78L91.63,30.73L97.25,29.22L97.81,28.98L105.68,26.47L106.24,26.41L111.86,26.79L112.43,26.92L119.73,29.46L120.29,29.7L134.35,34.64L134.91,34.76L141.66,35.43L142.22,35.43L151.77,34.23L152.34,34.14L165.27,32.81L165.83,32.78L191.68,33.03L192.25,33.05L562.13,33.23" style="vector-effect: non-scaling-stroke; fill: none; stroke: rgb(108, 159, 51); stroke-opacity: 1; stroke-width: 1px; opacity: 1;"/></g><g class="points"/><g class="text"/></g><g class="trace scatter trace94ea51" style="stroke-miterlimit: 2; opacity: 1;"><g class="fills"/><g class="errorbars"/><g class="lines"><path class="js-line" d="M0,64.32L4.5,64.02L5.06,64.07L11.24,65.48L11.8,65.69L19.11,69.14L19.67,69.43L28.11,72.83L28.67,72.98L38.22,75.9L38.79,76.27L43.28,78.71L43.85,78.84L50.03,79.1L50.59,79.09L562.13,79.78" style="vector-effect: non-scaling-stroke; fill: none; stroke: rgb(0, 154, 250); stroke-opacity: 1; stroke-width: 1px; opacity: 1;"/></g><g class="points"/><g class="text"/></g><g class="trace scatter trace558e29" style="stroke-miterlimit: 2; opacity: 1;"><g class="fills"/><g class="errorbars"/><g class="lines"><path class="js-line" d="M0,65.28L4.5,66.94L5.06,67.26L15.18,74.08L15.74,74.43L21.92,77.21L22.49,77.37L29.23,78.32L29.79,78.33L41.04,77.87L41.6,77.71L43.28,76.5L43.85,75.69L45.53,70.99L46.09,68.64L48.9,59.27L49.47,59.32L50.59,61.49L51.15,63.26L53.4,69.2L53.96,69.62L57.34,69.51L57.9,69.21L59.59,66.18L60.15,64.44L66.33,41.92L66.89,41.84L68.02,43.58L68.58,45.08L70.83,49.67L71.39,49.61L74.2,48.16L74.76,48.69L82.07,60.73L82.63,61.42L84.88,63.02L85.44,63.15L95.56,64.31L96.12,64.53L107.37,68.5L107.93,68.6L115.8,69.05L116.36,69.03L129.29,67.82L129.85,67.76L143.9,66.96L144.47,66.97L185.5,67.94L186.06,67.93L562.13,67.66" style="vector-effect: non-scaling-stroke; fill: none; stroke: rgb(227, 111, 71); stroke-opacity: 1; stroke-width: 1px; opacity: 1;"/></g><g class="points"/><g class="text"/></g><g class="trace scatter trace47eb97" style="stroke-miterlimit: 2; opacity: 1;"><g class="fills"/><g class="errorbars"/><g class="lines"><path class="js-line" d="M0,66.14L3.93,65.14L4.5,65.1L10.68,65.79L11.24,65.91L20.24,68.75L20.8,68.95L32.6,72.17L33.17,72.31L38.79,74.4L39.35,74.78L45.53,79.13L46.09,79.26L50.03,79.23L50.59,79.05L56.21,75.72L56.77,75.1L59.59,72.4L60.15,72.74L65.21,78.28L65.77,78.38L67.46,77.76L68.02,76.91L69.14,72.56L69.7,68.73L71.39,60.83L71.95,60.81L74.76,64.16L75.32,63.81L78.7,58.77L79.26,59.03L82.07,63.04L82.63,63.83L86.57,67.93L87.13,68.33L92.19,70.81L92.75,71.07L108.49,78.42L109.05,78.54L117.48,79.33L118.05,79.34L131.54,79.13L132.1,79.08L141.09,77.7L141.66,77.57L152.34,75.82L152.9,75.8L163.58,76.12L164.14,76.16L188.87,76.76L189.44,76.76L562.13,76.58" style="vector-effect: non-scaling-stroke; fill: none; stroke: rgb(62, 164, 78); stroke-opacity: 1; stroke-width: 1px; opacity: 1;"/></g><g class="points"/><g class="text"/></g><g class="trace scatter trace785489" style="stroke-miterlimit: 2; opacity: 1;"><g class="fills"/><g class="errorbars"/><g class="lines"><path class="js-line" d="M0,64.73L1.69,65.47L2.25,65.52L9.56,67.31L10.12,67.44L23.61,69.82L24.17,69.82L28.67,69.07L29.23,68.86L36.54,65.73L37.1,65.91L38.79,67.6L39.35,68.56L44.41,78.27L44.97,78.68L47.78,79.32L48.34,79.28L50.59,78.16L51.15,77.26L52.28,73.69L52.84,70.91L55.09,61.2L55.65,60.29L56.77,59.72L57.34,59.93L59.02,62.29L59.59,63.49L62.4,68.22L62.96,68.47L64.08,68.07L64.64,67.47L68.58,62.27L69.14,62.58L70.83,66.32L71.39,67.99L73.64,72.58L74.2,73.13L81.51,77.44L82.07,77.78L86.01,79.3L86.57,79.4L94.44,79.77L95,79.77L562.13,79.78" style="vector-effect: non-scaling-stroke; fill: none; stroke: rgb(195, 113, 210); stroke-opacity: 1; stroke-width: 1px; opacity: 1;"/></g><g class="points"/><g class="text"/></g><g class="trace scatter trace295007" style="stroke-miterlimit: 2; opacity: 1;"><g class="fills"/><g class="errorbars"/><g class="lines"><path class="js-line" d="M0,64.75L1.12,65.36L1.69,65.35L14.05,64.59L14.62,64.7L21.36,66.91L21.92,67.12L27.54,68.34L28.11,68.35L39.35,67.8L39.91,67.34L41.6,63.93L42.16,62L46.09,48.25L46.66,47.4L48.34,46.21L48.9,46.17L50.03,47.14L50.59,48.45L52.28,56.85L52.84,60.89L55.09,74.21L55.65,75.92L57.34,78.54L57.9,78.91L60.71,79.44L61.27,79.41L64.64,78.4L65.21,78.19L66.89,78.42L67.46,78.73L70.27,79.7L70.83,79.74L92.75,79.78L93.31,79.78L562.13,79.41" style="vector-effect: non-scaling-stroke; fill: none; stroke: rgb(172, 142, 24); stroke-opacity: 1; stroke-width: 1px; opacity: 1;"/></g><g class="points"/><g class="text"/></g><g class="trace scatter trace3ff99c" style="stroke-miterlimit: 2; opacity: 1;"><g class="fills"/><g class="errorbars"/><g class="lines"><path class="js-line" d="M0,65.29L1.69,65.45L2.25,65.3L7.31,63.19L7.87,62.83L13.49,58.12L14.05,57.58L21.36,51.3L21.92,51.01L25.3,50.23L25.86,50.29L28.67,51.49L29.23,51.92L32.6,56.07L33.17,57.01L42.72,74.41L43.28,74.98L46.09,76.46L46.66,76.36L48.34,74.67L48.9,73.49L52.28,65.2L52.84,65.81L56.21,72.71L56.77,73.07L61.27,74.69L61.83,74.63L68.58,72.38L69.14,72.16L70.27,73.12L70.83,74.11L73.08,76.76L73.64,77.04L81.51,78.81L82.07,78.88L91.06,79.11L91.63,79.09L103.43,78.01L103.99,77.9L111.86,75.48L112.43,75.26L129.85,68.73L130.41,68.61L137.72,67.74L138.28,67.74L146.15,68.6L146.71,68.71L161.89,70.42L162.45,70.44L184.38,70.1L184.94,70.08L562.13,70.28" style="vector-effect: non-scaling-stroke; fill: none; stroke: rgb(0, 170, 174); stroke-opacity: 1; stroke-width: 1px; opacity: 1;"/></g><g class="points"/><g class="text"/></g><g class="trace scatter tracec9532d" style="stroke-miterlimit: 2; opacity: 1;"><g class="fills"/><g class="errorbars"/><g class="lines"><path class="js-line" d="M0,64.95L1.69,66.44L2.25,66.61L10.68,68.24L11.24,68.36L22.49,70.39L23.05,70.39L29.79,69.46L30.35,69.35L37.66,67.57L38.22,67.13L39.91,64.92L40.47,63.81L44.41,56.22L44.97,55.98L50.59,54.21L51.15,53.76L54.53,51.31L55.09,51.84L56.77,55.4L57.34,56.93L60.15,62.78L60.71,62.97L61.83,62.3L62.4,61.56L64.08,59.55L64.64,59.63L65.77,61.82L66.33,63.87L69.7,76.26L70.27,76.81L71.95,76.87L72.51,76.54L74.76,73.94L75.32,73.17L78.14,68.74L78.7,67.42L83.19,57.13L83.76,56.62L86.01,55.84L86.57,55.85L106.8,57.46L107.37,57.45L143.9,54.81L144.47,54.72L154.58,53.83L155.15,53.83L562.13,54.41" style="vector-effect: non-scaling-stroke; fill: none; stroke: rgb(237, 94, 147); stroke-opacity: 1; stroke-width: 1px; opacity: 1;"/></g><g class="points"/><g class="text"/></g><g class="trace scatter trace1158f2" style="stroke-miterlimit: 2; opacity: 1;"><g class="fills"/><g class="errorbars"/><g class="lines"><path class="js-line" d="M0,65.39L1.69,65.88L2.25,66.05L12.37,70.26L12.93,70.47L19.67,72.36L20.24,72.44L25.86,72.29L26.42,72.15L30.35,70.27L30.92,69.83L34.29,65.97L34.85,65.12L39.91,57.84L40.47,57.58L42.16,57.86L42.72,58.2L45.53,59.49L46.09,59.37L47.22,58.43L47.78,57.48L49.47,51.51L50.03,48.33L52.84,34.75L53.4,34.14L54.53,34.4L55.09,34.94L58.46,37.91L59.02,37.79L60.71,36.41L61.27,35.68L63.52,31L64.08,29.29L68.02,16.93L68.58,16.73L69.7,19.15L70.27,21.35L71.95,25.83L72.51,26.54L75.32,30.54L75.89,31.82L79.82,40.53L80.38,41.17L82.63,42.49L83.19,42.59L87.13,42.11L87.69,41.98L95,41.02L95.56,41.04L110.74,41.52L111.3,41.45L121.42,39.12L121.98,38.96L134.35,36.33L134.91,36.3L141.09,36.54L141.66,36.63L161.33,39.62L161.89,39.63L562.13,39.19" style="vector-effect: non-scaling-stroke; fill: none; stroke: rgb(198, 130, 37); stroke-opacity: 1; stroke-width: 1px; opacity: 1;"/></g><g class="points"/><g class="text"/></g><g class="trace scatter tracefc66f6" style="stroke-miterlimit: 2; opacity: 1;"><g class="fills"/><g class="errorbars"/><g class="lines"><path class="js-line" d="M0,64.55L1.12,64.89L1.69,64.91L10.68,67.22L11.24,67.39L23.05,70.22L23.61,70.25L29.79,69.74L30.35,69.6L34.29,67.97L34.85,67.59L39.35,63.14L39.91,62.66L41.6,62.18L42.16,62.38L44.41,64.57L44.97,65.21L50.03,70.13L50.59,71.07L52.28,72.36L52.84,71.83L53.96,68.25L54.53,64.85L57.9,42.14L58.46,41.21L59.59,41.53L60.15,42.4L65.77,52.82L66.33,52.9L67.46,51.36L68.02,49.66L71.39,37.82L71.95,38.13L74.76,41.43L75.32,40.82L77.01,36.36L77.57,34.6L79.82,30.42L80.38,30.13L82.63,30.4L83.19,30.67L105.68,42.18L106.24,42.33L112.99,43.22L113.55,43.24L127.6,42.53L128.16,42.48L139.97,41.14L140.53,41.04L154.02,39.38L154.58,39.38L172.57,40.13L173.13,40.15L215.29,40.17L215.86,40.17L236.09,40.19L236.66,40.18L562.13,40.39" style="vector-effect: non-scaling-stroke; fill: none; stroke: rgb(0, 169, 141); stroke-opacity: 1; stroke-width: 1px; opacity: 1;"/></g><g class="points"/><g class="text"/></g><g class="trace scatter tracedb4dca" style="stroke-miterlimit: 2; opacity: 1;"><g class="fills"/><g class="errorbars"/><g class="lines"><path class="js-line" d="M0,66.91L1.12,67L1.69,66.7L19.67,57.88L20.24,57.66L24.73,56.69L25.3,56.67L29.79,57.22L30.35,57.38L34.29,59.27L34.85,59.7L37.66,62.92L38.22,63.84L46.09,77.68L46.66,78.08L50.03,79.18L50.59,79.25L54.53,79.01L55.09,78.85L58.46,78.45L59.02,78.53L67.46,79.71L68.02,79.73L112.43,79.78L112.99,79.78L562.13,79.78" style="vector-effect: non-scaling-stroke; fill: none; stroke: rgb(142, 151, 30); stroke-opacity: 1; stroke-width: 1px; opacity: 1;"/></g><g class="points"/><g class="text"/></g><g class="trace scatter trace6eddfe" style="stroke-miterlimit: 2; opacity: 1;"><g class="fills"/><g class="errorbars"/><g class="lines"><path class="js-line" d="M0,65.33L1.69,66.09L2.25,66.13L12.93,67.5L13.49,67.69L29.23,73.36L29.79,73.43L39.91,74.02L40.47,73.71L42.16,71.64L42.72,70.43L44.97,62.86L45.53,60.63L48.9,50.48L49.47,50.15L50.59,51.59L51.15,53.17L55.09,64.35L55.65,65.5L60.71,76.04L61.27,76.44L64.08,77.17L64.64,77.22L69.14,78.3L69.7,78.56L73.64,79.5L74.2,79.52L85.44,79L86.01,78.89L90.5,77.21L91.06,76.87L95.56,73.14L96.12,72.6L102.31,67.71L102.87,67.43L107.37,66.18L107.93,66.14L113.55,66.57L114.11,66.68L127.6,70.33L128.16,70.47L138.28,72.38L138.85,72.45L149.53,72.7L150.09,72.67L182.13,71.38L182.69,71.39L562.13,71.25" style="vector-effect: non-scaling-stroke; fill: none; stroke: rgb(0, 169, 204); stroke-opacity: 1; stroke-width: 1px; opacity: 1;"/></g><g class="points"/><g class="text"/></g><g class="trace scatter trace99bcf9" style="stroke-miterlimit: 2; opacity: 1;"><g class="fills"/><g class="errorbars"/><g class="lines"><path class="js-line" d="M0,65L1.69,65.1L2.25,65.09L6.18,65.93L6.75,66.11L13.49,67.44L14.05,67.47L20.24,66.89L20.8,66.75L26.98,64.46L27.54,64.17L33.73,60L34.29,59.63L36.54,58.85L37.1,59L38.79,60.94L39.35,62.24L42.16,72.6L42.72,74.58L44.97,78.85L45.53,79.2L48.9,79.69L49.47,79.7L53.4,79.17L53.96,78.83L55.09,77.45L55.65,76.18L57.34,67.98L57.9,63.71L60.15,49.72L60.71,48.42L61.83,47.73L62.4,47.9L64.64,48.24L65.21,47.87L69.7,42.73L70.27,41.45L71.39,39.96L71.95,40.44L73.64,45.49L74.2,47.76L78.7,63.36L79.26,65.38L82.63,76.46L83.19,77.44L85.44,79.31L86.01,79.47L91.06,79.78L91.63,79.78L562.13,79.78" style="vector-effect: non-scaling-stroke; fill: none; stroke: rgb(155, 127, 233); stroke-opacity: 1; stroke-width: 1px; opacity: 1;"/></g><g class="points"/><g class="text"/></g><g class="trace scatter trace62e497" style="stroke-miterlimit: 2; opacity: 1;"><g class="fills"/><g class="errorbars"/><g class="lines"><path class="js-line" d="M0,64.5L2.25,65.09L2.81,65.11L15.74,65.4L16.3,65.49L27.54,67.1L28.11,67.04L32.6,65.82L33.17,65.58L37.1,63.11L37.66,62.5L39.35,59.65L39.91,58.21L45.53,40.76L46.09,40.75L47.22,42.34L47.78,43.88L50.03,53.68L50.59,56.69L53.4,67.82L53.96,68.6L55.09,68.74L55.65,68.23L57.9,63.95L58.46,62.72L61.27,57.64L61.83,57.26L62.96,57.82L63.52,58.79L68.02,68.81L68.58,69.11L70.27,68.77L70.83,68.12L75.89,59.05L76.45,58.66L79.26,55.56L79.82,54.82L83.19,51.74L83.76,51.39L88.82,49.53L89.38,49.45L96.69,47.68L97.25,47.45L107.37,43.82L107.93,43.76L113.55,44.05L114.11,44.16L122.54,46.36L123.11,46.53L137.16,49.82L137.72,49.9L146.15,50.36L146.71,50.34L181.57,48.68L182.13,48.68L232.72,48.84L233.28,48.83L562.13,48.89" style="vector-effect: non-scaling-stroke; fill: none; stroke: rgb(97, 141, 246); stroke-opacity: 1; stroke-width: 1px; opacity: 1;"/></g><g class="points"/><g class="text"/></g><g class="trace scatter traceeb1287" style="stroke-miterlimit: 2; opacity: 1;"><g class="fills"/><g class="errorbars"/><g class="lines"><path class="js-line" d="M0,65.11L1.69,66.4L2.25,66.55L17.43,69.37L17.99,69.36L23.05,68.36L23.61,68.12L27.54,65.4L28.11,64.85L32.6,59.11L33.17,58.31L36.54,54.92L37.1,54.83L38.22,55.39L38.79,56.07L40.47,59.8L41.04,61.52L44.97,71.95L45.53,72.38L46.66,72.02L47.22,71.07L48.34,67.03L48.9,63.78L52.28,45.06L52.84,44.82L54.53,47.41L55.09,48.38L56.77,49.42L57.34,49.04L61.83,43.55L62.4,43.21L65.21,40.98L65.77,41.22L66.89,43.45L67.46,45.43L70.27,54.27L70.83,54.51L72.51,54.89L73.08,55.49L74.76,59.78L75.32,61.9L79.26,74.49L79.82,75.59L82.63,78.96L83.19,79.24L86.57,79.75L87.13,79.76L129.85,79.78L130.41,79.78L562.13,79.78" style="vector-effect: non-scaling-stroke; fill: none; stroke: rgb(240, 96, 115); stroke-opacity: 1; stroke-width: 1px; opacity: 1;"/></g><g class="points"/><g class="text"/></g><g class="trace scatter traceb9a94b" style="stroke-miterlimit: 2; opacity: 1;"><g class="fills"/><g class="errorbars"/><g class="lines"><path class="js-line" d="M0,66.59L5.62,66.68L6.18,66.81L15.18,69.9L15.74,70.11L23.61,72.52L24.17,72.59L28.11,72.32L28.67,72.12L31.48,70.08L32.04,69.39L34.29,65.19L34.85,63.7L37.66,53.38L38.22,50.85L42.72,33L43.28,32.18L44.41,32.53L44.97,33.9L46.66,42.53L47.22,46.31L49.47,57.1L50.03,57.41L51.15,54.08L51.72,50.34L54.53,29.57L55.09,29.32L56.77,33.15L57.34,34.61L65.21,52.63L65.77,52.63L66.89,50.91L67.46,49.13L70.83,36.81L71.39,36.38L74.76,35.73L75.32,34.77L79.26,27.41L79.82,26.71L86.01,19.44L86.57,19.19L90.5,18.7L91.06,18.74L95,19.71L95.56,19.94L106.24,23.98L106.8,24.04L112.43,24.04L112.99,23.97L121.42,22.18L121.98,22.04L135.47,19.16L136.03,19.11L142.78,19.2L143.34,19.25L165.27,21.45L165.83,21.47L562.13,21.2" style="vector-effect: non-scaling-stroke; fill: none; stroke: rgb(221, 101, 182); stroke-opacity: 1; stroke-width: 1px; opacity: 1;"/></g><g class="points"/><g class="text"/></g><g class="trace scatter trace6ccf9b" style="stroke-miterlimit: 2; opacity: 1;"><g class="fills"/><g class="errorbars"/><g class="lines"><path class="js-line" d="M0,64.42L1.12,65.06L1.69,65.05L6.75,63.76L7.31,63.56L17.99,60.43L18.55,60.36L23.05,60.46L23.61,60.58L27.54,62.25L28.11,62.62L32.6,66.83L33.17,67.48L39.35,73.95L39.91,74.27L42.16,74.68L42.72,74.55L45.53,72.81L46.09,72.36L48.34,71.45L48.9,71.56L52.28,73.41L52.84,73.96L57.34,78.56L57.9,78.78L62.4,79.34L62.96,79.36L91.06,79.78L91.63,79.78L562.13,79.78" style="vector-effect: non-scaling-stroke; fill: none; stroke: rgb(108, 159, 51); stroke-opacity: 1; stroke-width: 1px; opacity: 1;"/></g><g class="points"/><g class="text"/></g></g></g><g class="overplot"/><path class="xlines-above crisp" d="M32.93700787401575,103.16841644794403H596.0629921259842" style="fill: none; stroke-width: 1px; stroke: rgb(0, 0, 0); stroke-opacity: 1;"/><path class="ylines-above crisp" d="M33.43700787401575,22.887139107611553V102.66841644794403" style="fill: none; stroke-width: 1px; stroke: rgb(0, 0, 0); stroke-opacity: 1;"/><g class="overlines-above"/><g class="xaxislayer-above"><path class="xtick ticks crisp" d="M0,102.66841644794403v-5" transform="translate(146.36700787401577,0)" style="stroke: rgb(0, 0, 0); stroke-opacity: 1; stroke-width: 1px;"/><path class="xtick ticks crisp" d="M0,102.66841644794403v-5" transform="translate(258.7870078740157,0)" style="stroke: rgb(0, 0, 0); stroke-opacity: 1; stroke-width: 1px;"/><path class="xtick ticks crisp" d="M0,102.66841644794403v-5" transform="translate(371.21700787401574,0)" style="stroke: rgb(0, 0, 0); stroke-opacity: 1; stroke-width: 1px;"/><path class="xtick ticks crisp" d="M0,102.66841644794403v-5" transform="translate(483.63700787401575,0)" style="stroke: rgb(0, 0, 0); stroke-opacity: 1; stroke-width: 1px;"/><g class="xtick"><text text-anchor="middle" x="0" y="124.06841644794403" transform="translate(33.93700787401575,0)" style="font-family: sans-serif; font-size: 17px; fill: rgb(0, 0, 0); fill-opacity: 1; white-space: pre; opacity: 1;">0</text></g><g class="xtick"><text text-anchor="middle" x="0" y="124.06841644794403" style="font-family: sans-serif; font-size: 17px; fill: rgb(0, 0, 0); fill-opacity: 1; white-space: pre; opacity: 1;" transform="translate(146.36700787401577,0)">2000</text></g><g class="xtick"><text text-anchor="middle" x="0" y="124.06841644794403" style="font-family: sans-serif; font-size: 17px; fill: rgb(0, 0, 0); fill-opacity: 1; white-space: pre; opacity: 1;" transform="translate(258.7870078740157,0)">4000</text></g><g class="xtick"><text text-anchor="middle" x="0" y="124.06841644794403" style="font-family: sans-serif; font-size: 17px; fill: rgb(0, 0, 0); fill-opacity: 1; white-space: pre; opacity: 1;" transform="translate(371.21700787401574,0)">6000</text></g><g class="xtick"><text text-anchor="middle" x="0" y="124.06841644794403" style="font-family: sans-serif; font-size: 17px; fill: rgb(0, 0, 0); fill-opacity: 1; white-space: pre; opacity: 1;" transform="translate(483.63700787401575,0)">8000</text></g><g class="xtick"><text text-anchor="middle" x="0" y="124.06841644794403" style="font-family: sans-serif; font-size: 17px; fill: rgb(0, 0, 0); fill-opacity: 1; white-space: pre; opacity: 0;" transform="translate(596.0670078740158,0)">10000</text></g></g><g class="yaxislayer-above"><path class="ytick ticks crisp" d="M33.93700787401575,0h5" transform="translate(0,88.57713910761154)" style="stroke: rgb(0, 0, 0); stroke-opacity: 1; stroke-width: 1px;"/><path class="ytick ticks crisp" d="M33.93700787401575,0h5" transform="translate(0,74.49713910761156)" style="stroke: rgb(0, 0, 0); stroke-opacity: 1; stroke-width: 1px;"/><path class="ytick ticks crisp" d="M33.93700787401575,0h5" transform="translate(0,60.407139107611556)" style="stroke: rgb(0, 0, 0); stroke-opacity: 1; stroke-width: 1px;"/><path class="ytick ticks crisp" d="M33.93700787401575,0h5" transform="translate(0,46.31713910761155)" style="stroke: rgb(0, 0, 0); stroke-opacity: 1; stroke-width: 1px;"/><path class="ytick ticks crisp" d="M33.93700787401575,0h5" transform="translate(0,32.237139107611554)" style="stroke: rgb(0, 0, 0); stroke-opacity: 1; stroke-width: 1px;"/><g class="ytick"><text text-anchor="end" x="29.53700787401575" y="5.949999999999999" transform="translate(0,102.66713910761155)" style="font-family: sans-serif; font-size: 17px; fill: rgb(0, 0, 0); fill-opacity: 1; white-space: pre; opacity: 1;">0</text></g><g class="ytick"><text text-anchor="end" x="29.53700787401575" y="5.949999999999999" style="font-family: sans-serif; font-size: 17px; fill: rgb(0, 0, 0); fill-opacity: 1; white-space: pre; opacity: 1;" transform="translate(0,88.57713910761154)">1</text></g><g class="ytick"><text text-anchor="end" x="29.53700787401575" y="5.949999999999999" style="font-family: sans-serif; font-size: 17px; fill: rgb(0, 0, 0); fill-opacity: 1; white-space: pre; opacity: 1;" transform="translate(0,74.49713910761156)">2</text></g><g class="ytick"><text text-anchor="end" x="29.53700787401575" y="5.949999999999999" style="font-family: sans-serif; font-size: 17px; fill: rgb(0, 0, 0); fill-opacity: 1; white-space: pre; opacity: 1;" transform="translate(0,60.407139107611556)">3</text></g><g class="ytick"><text text-anchor="end" x="29.53700787401575" y="5.949999999999999" style="font-family: sans-serif; font-size: 17px; fill: rgb(0, 0, 0); fill-opacity: 1; white-space: pre; opacity: 1;" transform="translate(0,46.31713910761155)">4</text></g><g class="ytick"><text text-anchor="end" x="29.53700787401575" y="5.949999999999999" style="font-family: sans-serif; font-size: 17px; fill: rgb(0, 0, 0); fill-opacity: 1; white-space: pre; opacity: 1;" transform="translate(0,32.237139107611554)">5</text></g></g><g class="overaxes-above"/></g></g><g class="polarlayer"/><g class="ternarylayer"/><g class="geolayer"/><g class="funnelarealayer"/><g class="pielayer"/><g class="iciclelayer"/><g class="treemaplayer"/><g class="sunburstlayer"/><g class="glimages"/><defs id="topdefs-da09da"><g class="clips"/></defs><g class="layer-above"><g class="imagelayer"/><g class="shapelayer"/></g><g class="infolayer"><g class="g-gtitle"/><g class="g-xtitle" transform="translate(0,-17.668416447944026)"><text class="xtitle" x="315" y="163.66841644794403" text-anchor="middle" style="font-family: sans-serif; font-size: 17px; fill: rgb(0, 0, 0); opacity: 1; font-weight: normal; white-space: pre;">Time</text></g><g class="g-ytitle" transform="translate(25.5634765625,0)"><text class="ytitle" transform="rotate(-90,-10.062992125984252,62.777777777777786)" x="-10.062992125984252" y="62.777777777777786" text-anchor="middle" style="font-family: sans-serif; font-size: 17px; fill: rgb(0, 0, 0); opacity: 1; font-weight: normal; white-space: pre;">Density</text></g></g></svg>