<svg class="main-svg" xmlns="http://www.w3.org/2000/svg" xmlns:xlink="http://www.w3.org/1999/xlink" width="600" height="150" style=""><rect x="0" y="0" width="600" height="150" style="fill: rgb(255, 255, 255); fill-opacity: 1;"/><defs id="defs-ed1f67"><g class="clips"><clipPath id="cliped1f67xyplot" class="plotclip"><rect width="522.1259842519685" height="79.78127734033247"/></clipPath><clipPath class="axesclip" id="cliped1f67x"><rect x="73.93700787401573" y="0" width="522.1259842519685" height="150"/></clipPath><clipPath class="axesclip" id="cliped1f67y"><rect x="0" y="22.887139107611553" width="600" height="79.78127734033247"/></clipPath><clipPath class="axesclip" id="cliped1f67xy"><rect x="73.93700787401573" y="22.887139107611553" width="522.1259842519685" height="79.78127734033247"/></clipPath></g><g class="gradients"/><g class="patterns"/></defs><g class="bglayer"/><g class="layer-below"><g class="imagelayer"/><g class="shapelayer"/></g><g class="cartesianlayer"><g class="subplot xy"><g class="layer-subplot"><g class="shapelayer"/><g class="imagelayer"/></g><g class="gridlayer"><g class="x"/><g class="y"/></g><g class="zerolinelayer"/><path class="xlines-below"/><path class="ylines-below"/><g class="overlines-below"/><g class="xaxislayer-below"/><g class="yaxislayer-below"/><g class="overaxes-below"/><g class="plot" transform="translate(73.93700787401573,22.887139107611553)" clip-path="url(#cliped1f67xyplot)"><g class="scatterlayer mlayer"><g class="trace scatter trace0605c7" style="stroke-miterlimit: 2; opacity: 1;"><g class="fills"/><g class="errorbars"/><g class="lines"><path class="js-line" d="M0,41.33L0.52,37.24L1.04,40.86L2.09,42.27L2.61,42.23L8.35,41.32L8.88,41.33L34.98,40.57L35.5,40.56L67.35,40.09L67.88,40.08L97.64,39.91L98.16,39.91L115.91,39.86L116.43,39.84L522.13,39.15" style="vector-effect: non-scaling-stroke; fill: none; stroke: rgb(0, 154, 250); stroke-opacity: 1; stroke-width: 1px; opacity: 1;"/></g><g class="points"/><g class="text"/></g><g class="trace scatter trace079388" style="stroke-miterlimit: 2; opacity: 1;"><g class="fills"/><g class="errorbars"/><g class="lines"><path class="js-line" d="M0,44.32L0.52,57.04L1.04,56.7L1.57,55.52L5.22,47.81L5.74,47.07L9.4,43.58L9.92,43.25L14.62,41.36L15.14,41.24L22.97,40.31L23.5,40.29L46.99,40.11L47.51,40.11L88.76,40.08L89.28,40.09L131.05,40.03L131.58,40.05L150.89,40.02L151.42,40.04L188.49,40.03L189.01,40L201.54,40L202.06,40.01L522.13,40" style="vector-effect: non-scaling-stroke; fill: none; stroke: rgb(227, 111, 71); stroke-opacity: 1; stroke-width: 1px; opacity: 1;"/></g><g class="points"/><g class="text"/></g><g class="trace scatter trace4c760a" style="stroke-miterlimit: 2; opacity: 1;"><g class="fills"/><g class="errorbars"/><g class="lines"><path class="js-line" d="M0,50.17L1.04,34.32L1.57,32.62L2.61,32.2L3.13,32.55L10.44,38.03L10.96,38.26L16.19,40.01L16.71,40.13L28.72,41.53L29.24,41.56L60.57,42.07L61.09,42.05L94.5,41.98L95.03,41.94L102.34,41.95L102.86,41.92L114.87,41.89L115.39,41.89L161.86,41.73L162.38,41.75L172.82,41.69L173.35,41.7L217.73,41.59L218.25,41.6L239.66,41.52L240.18,41.53L522.13,41.12" style="vector-effect: non-scaling-stroke; fill: none; stroke: rgb(62, 164, 78); stroke-opacity: 1; stroke-width: 1px; opacity: 1;"/></g><g class="points"/><g class="text"/></g><g class="trace scatter tracef6e641" style="stroke-miterlimit: 2; opacity: 1;"><g class="fills"/><g class="errorbars"/><g class="lines"><path class="js-line" d="M0,2.02L1.04,29.99L1.57,32.02L3.65,35.89L4.18,36.49L7.31,38.76L7.83,38.98L12.53,40.1L13.05,40.16L22.97,40.36L23.5,40.34L99.73,39.58L100.25,39.59L123.74,39.41L124.27,39.41L134.19,39.36L134.71,39.37L522.13,38.67" style="vector-effect: non-scaling-stroke; fill: none; stroke: rgb(195, 113, 210); stroke-opacity: 1; stroke-width: 1px; opacity: 1;"/></g><g class="points"/><g class="text"/></g><g class="trace scatter tracea2c5e1" style="stroke-miterlimit: 2; opacity: 1;"><g class="fills"/><g class="errorbars"/><g class="lines"><path class="js-line" d="M0,26.14L0.52,43.42L1.04,40.55L1.57,39.1L3.13,38.11L3.65,38.15L21.93,41.61L22.45,41.64L46.47,42.33L46.99,42.33L63.18,42.52L63.7,42.51L522.13,42.05" style="vector-effect: non-scaling-stroke; fill: none; stroke: rgb(172, 142, 24); stroke-opacity: 1; stroke-width: 1px; opacity: 1;"/></g><g class="points"/><g class="text"/></g><g class="trace scatter trace87b6de" style="stroke-miterlimit: 2; opacity: 1;"><g class="fills"/><g class="errorbars"/><g class="lines"><path class="js-line" d="M0,38.45L0.52,39.65L1.04,38.41L2.09,38.28L2.61,38.64L7.31,41.73L7.83,41.92L13.05,42.93L13.58,42.97L29.24,43.14L29.76,43.14L522.13,42.47" style="vector-effect: non-scaling-stroke; fill: none; stroke: rgb(0, 170, 174); stroke-opacity: 1; stroke-width: 1px; opacity: 1;"/></g><g class="points"/><g class="text"/></g><g class="trace scatter trace2726aa" style="stroke-miterlimit: 2; opacity: 1;"><g class="fills"/><g class="errorbars"/><g class="lines"><path class="js-line" d="M0,27.17L1.04,38.04L1.57,38.49L4.7,38.8L5.22,38.82L33.42,39.18L33.94,39.18L57.96,38.97L58.48,38.99L79.36,38.92L79.89,38.92L522.13,38.66" style="vector-effect: non-scaling-stroke; fill: none; stroke: rgb(237, 94, 147); stroke-opacity: 1; stroke-width: 1px; opacity: 1;"/></g><g class="points"/><g class="text"/></g><g class="trace scatter trace49c063" style="stroke-miterlimit: 2; opacity: 1;"><g class="fills"/><g class="errorbars"/><g class="lines"><path class="js-line" d="M0,35.34L1.04,29.09L1.57,29.75L4.7,32.84L5.22,33.15L10.96,35.45L11.49,35.56L20.36,37.07L20.89,37.13L32.89,37.79L33.42,37.81L79.89,37.98L80.41,37.97L114.35,38.01L114.87,38.06L124.79,38L125.31,38.04L169.17,38.14L169.69,38.13L213.03,38.23L213.55,38.22L256.36,38.3L256.89,38.3L298.13,38.36L298.66,38.35L308.05,38.37L308.58,38.37L344.08,38.43L344.6,38.43L522.13,38.64" style="vector-effect: non-scaling-stroke; fill: none; stroke: rgb(198, 130, 37); stroke-opacity: 1; stroke-width: 1px; opacity: 1;"/></g><g class="points"/><g class="text"/></g><g class="trace scatter trace3fc97e" style="stroke-miterlimit: 2; opacity: 1;"><g class="fills"/><g class="errorbars"/><g class="lines"><path class="js-line" d="M0,70.44L1.04,54.9L1.57,53.88L4.18,51.9L4.7,51.62L12.01,48.54L12.53,48.4L20.89,46.76L21.41,46.69L38.64,45.43L39.16,45.4L67.35,44.65L67.88,44.64L91.89,44.36L92.42,44.32L103.38,44.24L103.9,44.23L131.58,44.03L132.1,44.01L186.92,43.7L187.44,43.71L388.46,42.96L388.98,42.94L522.13,42.6" style="vector-effect: non-scaling-stroke; fill: none; stroke: rgb(0, 169, 141); stroke-opacity: 1; stroke-width: 1px; opacity: 1;"/></g><g class="points"/><g class="text"/></g><g class="trace scatter tracee9a682" style="stroke-miterlimit: 2; opacity: 1;"><g class="fills"/><g class="errorbars"/><g class="lines"><path class="js-line" d="M0,78L1.57,59.39L2.09,56.96L4.7,49.65L5.22,48.72L8.35,44.96L8.88,44.57L13.05,42.33L13.58,42.14L20.36,40.56L20.89,40.47L35.5,39.26L36.03,39.23L71.01,38.58L71.53,38.63L81.97,38.53L82.5,38.56L92.42,38.49L92.94,38.55L102.86,38.5L103.38,38.5L123.22,38.47L123.74,38.47L522.13,38.56" style="vector-effect: non-scaling-stroke; fill: none; stroke: rgb(142, 151, 30); stroke-opacity: 1; stroke-width: 1px; opacity: 1;"/></g><g class="points"/><g class="text"/></g><g class="trace scatter trace511cd1" style="stroke-miterlimit: 2; opacity: 1;"><g class="fills"/><g class="errorbars"/><g class="lines"><path class="js-line" d="M0,32.87L0.52,37.54L1.04,36.95L1.57,37.11L7.31,40.25L7.83,40.4L14.62,41.43L15.14,41.45L33.42,41.8L33.94,41.79L48.56,41.92L49.08,41.9L100.25,42.14L100.77,42.13L522.13,41.72" style="vector-effect: non-scaling-stroke; fill: none; stroke: rgb(0, 169, 204); stroke-opacity: 1; stroke-width: 1px; opacity: 1;"/></g><g class="points"/><g class="text"/></g><g class="trace scatter trace99a10f" style="stroke-miterlimit: 2; opacity: 1;"><g class="fills"/><g class="errorbars"/><g class="lines"><path class="js-line" d="M0,17.54L1.04,29.86L1.57,30.59L5.22,34.75L5.74,35.08L9.4,36.62L9.92,36.77L18.8,38.11L19.32,38.16L47.51,39.65L48.04,39.64L61.61,39.95L62.13,39.95L131.58,40.55L132.1,40.53L162.38,40.69L162.9,40.69L213.03,40.89L213.55,40.89L258.97,41.04L259.5,41.02L273.59,41.09L274.12,41.1L522.13,41.69" style="vector-effect: non-scaling-stroke; fill: none; stroke: rgb(155, 127, 233); stroke-opacity: 1; stroke-width: 1px; opacity: 1;"/></g><g class="points"/><g class="text"/></g><g class="trace scatter tracec84f3c" style="stroke-miterlimit: 2; opacity: 1;"><g class="fills"/><g class="errorbars"/><g class="lines"><path class="js-line" d="M0,44.24L0.52,40.26L1.04,43.13L2.61,45.61L3.13,45.72L6.27,44.89L6.79,44.66L15.14,42.18L15.66,42.09L27.67,40.98L28.19,40.95L41.77,40.66L42.29,40.66L81.97,40.61L82.5,40.63L95.55,40.62L96.07,40.63L491.84,39.91L492.36,39.9L522.13,39.85" style="vector-effect: non-scaling-stroke; fill: none; stroke: rgb(97, 141, 246); stroke-opacity: 1; stroke-width: 1px; opacity: 1;"/></g><g class="points"/><g class="text"/></g><g class="trace scatter trace270c93" style="stroke-miterlimit: 2; opacity: 1;"><g class="fills"/><g class="errorbars"/><g class="lines"><path class="js-line" d="M0,57.87L1.04,43.91L1.57,44.33L4.18,44.79L4.7,44.71L18.8,42.6L19.32,42.57L46.99,42.2L47.51,42.26L53.26,42.24L53.78,42.22L90.33,42.18L90.85,42.18L109.65,42.2L110.17,42.16L128.97,42.15L129.49,42.15L485.58,41.42L486.1,41.4L495.5,41.42L496.02,41.41L522.13,41.35" style="vector-effect: non-scaling-stroke; fill: none; stroke: rgb(240, 96, 115); stroke-opacity: 1; stroke-width: 1px; opacity: 1;"/></g><g class="points"/><g class="text"/></g><g class="trace scatter trace7a95c1" style="stroke-miterlimit: 2; opacity: 1;"><g class="fills"/><g class="errorbars"/><g class="lines"><path class="js-line" d="M0,7.37L1.57,22.35L2.09,23.79L5.22,28.46L5.74,29.06L9.92,32.77L10.44,33.1L16.19,35.62L16.71,35.78L28.19,37.7L28.72,37.75L62.13,39.06L62.66,39.07L118,39.39L118.52,39.39L137.32,39.41L137.84,39.41L179.09,39.46L179.61,39.44L220.34,39.48L220.86,39.48L522.13,39.32" style="vector-effect: non-scaling-stroke; fill: none; stroke: rgb(221, 101, 182); stroke-opacity: 1; stroke-width: 1px; opacity: 1;"/></g><g class="points"/><g class="text"/></g><g class="trace scatter trace96c6d9" style="stroke-miterlimit: 2; opacity: 1;"><g class="fills"/><g class="errorbars"/><g class="lines"><path class="js-line" d="M0,34.59L0.52,43.25L1.04,41.24L1.57,40.95L4.7,40.94L5.22,40.78L16.71,37.87L17.23,37.77L35.5,36.38L36.03,36.36L442.76,36.51L443.28,36.52L450.07,36.49L450.59,36.48L522.13,36.58" style="vector-effect: non-scaling-stroke; fill: none; stroke: rgb(108, 159, 51); stroke-opacity: 1; stroke-width: 1px; opacity: 1;"/></g><g class="points"/><g class="text"/></g><g class="trace scatter trace9165d0" style="stroke-miterlimit: 2; opacity: 1;"><g class="fills"/><g class="errorbars"/><g class="lines"><path class="js-line" d="M0,73.09L1.04,49.27L1.57,46.17L3.13,42.47L3.65,41.85L6.79,40.07L7.31,39.9L13.05,39.01L13.58,38.97L28.72,38.54L29.24,38.54L48.56,38.52L49.08,38.54L83.02,38.63L83.54,38.64L96.59,38.63L97.12,38.64L135.23,38.65L135.75,38.67L172.82,38.68L173.35,38.71L210.42,38.73L210.94,38.74L253.23,38.81L253.75,38.81L522.13,39.22" style="vector-effect: non-scaling-stroke; fill: none; stroke: rgb(0, 154, 250); stroke-opacity: 1; stroke-width: 1px; opacity: 1;"/></g><g class="points"/><g class="text"/></g><g class="trace scatter trace58aaad" style="stroke-miterlimit: 2; opacity: 1;"><g class="fills"/><g class="errorbars"/><g class="lines"><path class="js-line" d="M0,14.33L1.04,24.74L1.57,25.76L4.7,29.51L5.22,29.98L10.44,33.58L10.96,33.84L16.71,36.18L17.23,36.33L26.11,38.17L26.63,38.26L43.86,39.52L44.38,39.54L95.03,39.8L95.55,39.8L129.49,39.73L130.01,39.71L148.81,39.69L149.33,39.67L522.13,39.57" style="vector-effect: non-scaling-stroke; fill: none; stroke: rgb(227, 111, 71); stroke-opacity: 1; stroke-width: 1px; opacity: 1;"/></g><g class="points"/><g class="text"/></g><g class="trace scatter trace114fab" style="stroke-miterlimit: 2; opacity: 1;"><g class="fills"/><g class="errorbars"/><g class="lines"><path class="js-line" d="M0,44.05L1.04,36.64L1.57,36.56L12.53,41.76L13.05,41.9L24.02,43.88L24.54,43.91L29.76,44.47L30.28,44.54L59.52,45.53L60.04,45.53L209.89,44.82L210.42,44.8L228.17,44.75L228.69,44.74L443.28,44.06L443.81,44L456.34,43.98L456.86,43.99L490.28,43.89L490.8,43.89L522.13,43.8" style="vector-effect: non-scaling-stroke; fill: none; stroke: rgb(62, 164, 78); stroke-opacity: 1; stroke-width: 1px; opacity: 1;"/></g><g class="points"/><g class="text"/></g><g class="trace scatter trace88c55c" style="stroke-miterlimit: 2; opacity: 1;"><g class="fills"/><g class="errorbars"/><g class="lines"><path class="js-line" d="M0,33.9L1.04,44.89L1.57,44.49L4.7,42.13L5.22,41.93L9.4,41.31L9.92,41.27L62.66,41.96L63.18,41.99L81.97,42.01L82.5,42.02L119.57,42.04L120.09,42.06L133.14,42.04L133.66,42.04L173.35,42.05L173.87,42.04L522.13,41.81" style="vector-effect: non-scaling-stroke; fill: none; stroke: rgb(195, 113, 210); stroke-opacity: 1; stroke-width: 1px; opacity: 1;"/></g><g class="points"/><g class="text"/></g><g class="trace scatter trace5a17ed" style="stroke-miterlimit: 2; opacity: 1;"><g class="fills"/><g class="errorbars"/><g class="lines"><path class="js-line" d="M0,73.03L1.04,43.74L1.57,43.22L5.74,40.39L6.27,40.16L11.49,39.14L12.01,39.11L34.98,39.7L35.5,39.71L56.39,40.18L56.91,40.16L73.1,40.39L73.62,40.36L126.35,40.69L126.88,40.65L148.28,40.75L148.81,40.75L191.1,40.84L191.62,40.82L211.98,40.89L212.51,40.84L232.87,40.9L233.39,40.87L522.13,41.02" style="vector-effect: non-scaling-stroke; fill: none; stroke: rgb(172, 142, 24); stroke-opacity: 1; stroke-width: 1px; opacity: 1;"/></g><g class="points"/><g class="text"/></g><g class="trace scatter trace914793" style="stroke-miterlimit: 2; opacity: 1;"><g class="fills"/><g class="errorbars"/><g class="lines"><path class="js-line" d="M0,68.56L1.04,50.92L1.57,49.63L3.65,46.86L4.18,46.53L7.83,45.42L8.35,45.36L33.94,42.17L34.46,42.15L50.65,41.33L51.17,41.31L83.02,40.82L83.54,40.84L97.64,40.77L98.16,40.77L111.21,40.75L111.73,40.77L124.79,40.76L125.31,40.77L522.13,41.19" style="vector-effect: non-scaling-stroke; fill: none; stroke: rgb(0, 170, 174); stroke-opacity: 1; stroke-width: 1px; opacity: 1;"/></g><g class="points"/><g class="text"/></g><g class="trace scatter traceef8c59" style="stroke-miterlimit: 2; opacity: 1;"><g class="fills"/><g class="errorbars"/><g class="lines"><path class="js-line" d="M0,19.01L1.04,49.88L1.57,51.3L3.13,51.89L3.65,51.68L12.53,48.24L13.05,48.12L25.06,45.91L25.58,45.84L37.59,44.77L38.12,44.73L80.93,43.73L81.45,43.73L522.13,43.55" style="vector-effect: non-scaling-stroke; fill: none; stroke: rgb(237, 94, 147); stroke-opacity: 1; stroke-width: 1px; opacity: 1;"/></g><g class="points"/><g class="text"/></g><g class="trace scatter trace903e97" style="stroke-miterlimit: 2; opacity: 1;"><g class="fills"/><g class="errorbars"/><g class="lines"><path class="js-line" d="M0,8.79L1.04,28.97L1.57,32.2L3.65,37.32L4.18,37.89L6.79,39.48L7.31,39.61L12.53,39.99L13.05,39.97L59,37.65L59.52,37.65L115.91,37.29L116.43,37.31L161.86,37.2L162.38,37.26L168.12,37.2L168.65,37.19L206.24,37.18L206.76,37.17L522.13,37.21" style="vector-effect: non-scaling-stroke; fill: none; stroke: rgb(198, 130, 37); stroke-opacity: 1; stroke-width: 1px; opacity: 1;"/></g><g class="points"/><g class="text"/></g><g class="trace scatter trace3e35f7" style="stroke-miterlimit: 2; opacity: 1;"><g class="fills"/><g class="errorbars"/><g class="lines"><path class="js-line" d="M0,44.91L1.04,28.49L1.57,27.98L3.65,27.46L4.18,27.53L12.53,30.06L13.05,30.19L24.02,32.16L24.54,32.22L34.46,33.19L34.98,33.24L57.43,34.25L57.96,34.23L71.01,34.5L71.53,34.5L133.14,34.96L133.66,34.95L156.12,35.07L156.64,35.06L409.35,35.81L409.87,35.82L445.37,35.87L445.9,35.88L490.28,35.99L490.8,35.99L522.13,36.04" style="vector-effect: non-scaling-stroke; fill: none; stroke: rgb(0, 169, 141); stroke-opacity: 1; stroke-width: 1px; opacity: 1;"/></g><g class="points"/><g class="text"/></g><g class="trace scatter trace1953e6" style="stroke-miterlimit: 2; opacity: 1;"><g class="fills"/><g class="errorbars"/><g class="lines"><path class="js-line" d="M0,7.53L1.04,50.49L1.57,50.18L5.74,43.96L6.27,43.56L9.92,41.49L10.44,41.3L16.19,40.21L16.71,40.16L29.24,39.67L29.76,39.69L465.74,40.35L466.26,40.39L474.61,40.33L475.13,40.3L522.13,40.37" style="vector-effect: non-scaling-stroke; fill: none; stroke: rgb(142, 151, 30); stroke-opacity: 1; stroke-width: 1px; opacity: 1;"/></g><g class="points"/><g class="text"/></g><g class="trace scatter trace8d901b" style="stroke-miterlimit: 2; opacity: 1;"><g class="fills"/><g class="errorbars"/><g class="lines"><path class="js-line" d="M0,52.56L1.57,44.16L2.09,43.24L4.18,42.02L4.7,41.89L10.96,41.04L11.49,40.98L32.37,39.68L32.89,39.67L66.31,39.14L66.83,39.15L101.29,39.09L101.81,39.07L109.65,39.05L110.17,39.07L149.33,39.05L149.85,39.06L169.69,39.03L170.21,39.03L211.98,38.98L212.51,39L252.19,38.93L252.71,38.99L262.11,38.95L262.63,38.98L522.13,38.69" style="vector-effect: non-scaling-stroke; fill: none; stroke: rgb(0, 169, 204); stroke-opacity: 1; stroke-width: 1px; opacity: 1;"/></g><g class="points"/><g class="text"/></g><g class="trace scatter tracefa5356" style="stroke-miterlimit: 2; opacity: 1;"><g class="fills"/><g class="errorbars"/><g class="lines"><path class="js-line" d="M0,53.32L1.04,45.02L1.57,45.35L3.65,45.66L4.18,45.53L19.32,41.27L19.84,41.19L37.07,39.88L37.59,39.92L56.91,39.51L57.43,39.55L67.88,39.44L68.4,39.49L76.23,39.49L76.75,39.49L89.81,39.46L90.33,39.46L522.13,40.1" style="vector-effect: non-scaling-stroke; fill: none; stroke: rgb(155, 127, 233); stroke-opacity: 1; stroke-width: 1px; opacity: 1;"/></g><g class="points"/><g class="text"/></g><g class="trace scatter trace2444d2" style="stroke-miterlimit: 2; opacity: 1;"><g class="fills"/><g class="errorbars"/><g class="lines"><path class="js-line" d="M0,26.38L0.52,20.99L1.04,22.95L1.57,24.17L4.7,29.7L5.22,30.27L8.35,32.38L8.88,32.58L13.58,33.56L14.1,33.61L25.58,33.76L26.11,33.76L71.01,33.61L71.53,33.66L83.54,33.66L84.06,33.72L112.78,33.9L113.3,33.91L137.84,34.11L138.36,34.11L248.01,34.83L248.53,34.87L265.76,34.95L266.28,34.96L405.17,35.7L405.69,35.71L522.13,36.24" style="vector-effect: non-scaling-stroke; fill: none; stroke: rgb(97, 141, 246); stroke-opacity: 1; stroke-width: 1px; opacity: 1;"/></g><g class="points"/><g class="text"/></g><g class="trace scatter trace575c5d" style="stroke-miterlimit: 2; opacity: 1;"><g class="fills"/><g class="errorbars"/><g class="lines"><path class="js-line" d="M0,47.33L0.52,50.96L1.04,47.85L2.61,44.02L3.13,43.51L6.79,41.96L7.31,41.77L15.14,39.79L15.66,39.69L32.89,38.4L33.42,38.38L82.5,38.15L83.02,38.16L96.07,38.17L96.59,38.18L522.13,38.31" style="vector-effect: non-scaling-stroke; fill: none; stroke: rgb(240, 96, 115); stroke-opacity: 1; stroke-width: 1px; opacity: 1;"/></g><g class="points"/><g class="text"/></g><g class="trace scatter trace5da0e3" style="stroke-miterlimit: 2; opacity: 1;"><g class="fills"/><g class="errorbars"/><g class="lines"><path class="js-line" d="M0,39.54L0.52,49.2L1.04,45.75L1.57,43.47L3.65,39.06L4.18,38.45L7.31,36.23L7.83,36.01L13.05,35.09L13.58,35.05L23.5,35.22L24.02,35.26L32.89,35.65L33.42,35.65L54.82,36.14L55.35,36.13L70.49,36.28L71.01,36.24L76.75,36.33L77.27,36.3L97.64,36.33L98.16,36.33L116.96,36.34L117.48,36.36L136.8,36.36L137.32,36.36L178.04,36.4L178.57,36.39L218.77,36.43L219.29,36.42L257.41,36.45L257.93,36.45L297.09,36.54L297.61,36.45L304.4,36.53L304.92,36.48L315.36,36.54L315.89,36.52L522.13,36.7" style="vector-effect: non-scaling-stroke; fill: none; stroke: rgb(221, 101, 182); stroke-opacity: 1; stroke-width: 1px; opacity: 1;"/></g><g class="points"/><g class="text"/></g><g class="trace scatter trace45cfa1" style="stroke-miterlimit: 2; opacity: 1;"><g class="fills"/><g class="errorbars"/><g class="lines"><path class="js-line" d="M0,18.68L2.09,30.17L2.61,30.83L4.7,31.72L5.22,31.79L13.05,33.23L13.58,33.37L25.58,35.84L26.11,35.89L38.12,37.24L38.64,37.28L60.57,38.24L61.09,38.25L119.04,38.66L119.57,38.66L160.81,38.71L161.34,38.71L522.13,39.24" style="vector-effect: non-scaling-stroke; fill: none; stroke: rgb(108, 159, 51); stroke-opacity: 1; stroke-width: 1px; opacity: 1;"/></g><g class="points"/><g class="text"/></g></g></g><g class="overplot"/><path class="xlines-above crisp" d="M72.93700787401573,103.16841644794403H596.0629921259842" style="fill: none; stroke-width: 1px; stroke: rgb(0, 0, 0); stroke-opacity: 1;"/><path class="ylines-above crisp" d="M73.43700787401573,22.887139107611553V102.66841644794403" style="fill: none; stroke-width: 1px; stroke: rgb(0, 0, 0); stroke-opacity: 1;"/><g class="overlines-above"/><g class="xaxislayer-above"><path class="xtick ticks crisp" d="M0,102.66841644794403v-5" transform="translate(178.36700787401574,0)" style="stroke: rgb(0, 0, 0); stroke-opacity: 1; stroke-width: 1px;"/><path class="xtick ticks crisp" d="M0,102.66841644794403v-5" transform="translate(282.7870078740157,0)" style="stroke: rgb(0, 0, 0); stroke-opacity: 1; stroke-width: 1px;"/><path class="xtick ticks crisp" d="M0,102.66841644794403v-5" transform="translate(387.21700787401574,0)" style="stroke: rgb(0, 0, 0); stroke-opacity: 1; stroke-width: 1px;"/><path class="xtick ticks crisp" d="M0,102.66841644794403v-5" transform="translate(491.6370078740157,0)" style="stroke: rgb(0, 0, 0); stroke-opacity: 1; stroke-width: 1px;"/><g class="xtick"><text text-anchor="middle" x="0" y="124.06841644794403" transform="translate(73.93700787401573,0)" style="font-family: sans-serif; font-size: 17px; fill: rgb(0, 0, 0); fill-opacity: 1; white-space: pre; opacity: 1;">0</text></g><g class="xtick"><text text-anchor="middle" x="0" y="124.06841644794403" style="font-family: sans-serif; font-size: 17px; fill: rgb(0, 0, 0); fill-opacity: 1; white-space: pre; opacity: 1;" transform="translate(178.36700787401574,0)">2000</text></g><g class="xtick"><text text-anchor="middle" x="0" y="124.06841644794403" style="font-family: sans-serif; font-size: 17px; fill: rgb(0, 0, 0); fill-opacity: 1; white-space: pre; opacity: 1;" transform="translate(282.7870078740157,0)">4000</text></g><g class="xtick"><text text-anchor="middle" x="0" y="124.06841644794403" style="font-family: sans-serif; font-size: 17px; fill: rgb(0, 0, 0); fill-opacity: 1; white-space: pre; opacity: 1;" transform="translate(387.21700787401574,0)">6000</text></g><g class="xtick"><text text-anchor="middle" x="0" y="124.06841644794403" style="font-family: sans-serif; font-size: 17px; fill: rgb(0, 0, 0); fill-opacity: 1; white-space: pre; opacity: 1;" transform="translate(491.6370078740157,0)">8000</text></g><g class="xtick"><text text-anchor="middle" x="0" y="124.06841644794403" style="font-family: sans-serif; font-size: 17px; fill: rgb(0, 0, 0); fill-opacity: 1; white-space: pre; opacity: 0;" transform="translate(596.0670078740158,0)">10000</text></g></g><g class="yaxislayer-above"><path class="ytick ticks crisp" d="M73.93700787401573,0h5" transform="translate(0,82.72713910761155)" style="stroke: rgb(0, 0, 0); stroke-opacity: 1; stroke-width: 1px;"/><path class="ytick ticks crisp" d="M73.93700787401573,0h5" transform="translate(0,62.77713910761155)" style="stroke: rgb(0, 0, 0); stroke-opacity: 1; stroke-width: 1px;"/><path class="ytick ticks crisp" d="M73.93700787401573,0h5" transform="translate(0,42.83713910761155)" style="stroke: rgb(0, 0, 0); stroke-opacity: 1; stroke-width: 1px;"/><g class="ytick"><text text-anchor="end" x="69.53700787401573" y="5.949999999999999" transform="translate(0,102.66713910761155)" style="font-family: sans-serif; font-size: 17px; fill: rgb(0, 0, 0); fill-opacity: 1; white-space: pre; opacity: 1;">0.50</text></g><g class="ytick"><text text-anchor="end" x="69.53700787401573" y="5.949999999999999" style="font-family: sans-serif; font-size: 17px; fill: rgb(0, 0, 0); fill-opacity: 1; white-space: pre; opacity: 1;" transform="translate(0,82.72713910761155)">0.75</text></g><g class="ytick"><text text-anchor="end" x="69.53700787401573" y="5.949999999999999" style="font-family: sans-serif; font-size: 17px; fill: rgb(0, 0, 0); fill-opacity: 1; white-space: pre; opacity: 1;" transform="translate(0,62.77713910761155)">1.00</text></g><g class="ytick"><text text-anchor="end" x="69.53700787401573" y="5.949999999999999" style="font-family: sans-serif; font-size: 17px; fill: rgb(0, 0, 0); fill-opacity: 1; white-space: pre; opacity: 1;" transform="translate(0,42.83713910761155)">1.25</text></g><g class="ytick"><text text-anchor="end" x="69.53700787401573" y="5.949999999999999" style="font-family: sans-serif; font-size: 17px; fill: rgb(0, 0, 0); fill-opacity: 1; white-space: pre; opacity: 1;" transform="translate(0,22.887139107611553)">1.50</text></g></g><g class="overaxes-above"/></g></g><g class="polarlayer"/><g class="ternarylayer"/><g class="geolayer"/><g class="funnelarealayer"/><g class="pielayer"/><g class="iciclelayer"/><g class="treemaplayer"/><g class="sunburstlayer"/><g class="glimages"/><defs id="topdefs-ed1f67"><g class="clips"/></defs><g class="layer-above"><g class="imagelayer"/><g class="shapelayer"/></g><g class="infolayer"><g class="g-gtitle"/><g class="g-xtitle" transform="translate(0,-17.668416447944026)"><text class="xtitle" x="335" y="163.66841644794403" text-anchor="middle" style="font-family: sans-serif; font-size: 17px; fill: rgb(0, 0, 0); opacity: 1; font-weight: normal; white-space: pre;">Time</text></g><g class="g-ytitle"><text class="ytitle" transform="rotate(-90,29.937007874015734,62.777777777777786)" x="29.937007874015734" y="62.777777777777786" text-anchor="middle" style="font-family: sans-serif; font-size: 17px; fill: rgb(0, 0, 0); opacity: 1; font-weight: normal; white-space: pre;">Density</text></g></g></svg>