<svg class="main-svg" xmlns="http://www.w3.org/2000/svg" xmlns:xlink="http://www.w3.org/1999/xlink" width="600" height="150" style=""><rect x="0" y="0" width="600" height="150" style="fill: rgb(255, 255, 255); fill-opacity: 1;"/><defs id="defs-adefa8"><g class="clips"><clipPath id="clipadefa8xyplot" class="plotclip"><rect width="562.1259842519685" height="79.78127734033247"/></clipPath><clipPath class="axesclip" id="clipadefa8x"><rect x="33.93700787401575" y="0" width="562.1259842519685" height="150"/></clipPath><clipPath class="axesclip" id="clipadefa8y"><rect x="0" y="22.887139107611553" width="600" height="79.78127734033247"/></clipPath><clipPath class="axesclip" id="clipadefa8xy"><rect x="33.93700787401575" y="22.887139107611553" width="562.1259842519685" height="79.78127734033247"/></clipPath></g><g class="gradients"/><g class="patterns"/></defs><g class="bglayer"/><g class="layer-below"><g class="imagelayer"/><g class="shapelayer"/></g><g class="cartesianlayer"><g class="subplot xy"><g class="layer-subplot"><g class="shapelayer"/><g class="imagelayer"/></g><g class="gridlayer"><g class="x"/><g class="y"/></g><g class="zerolinelayer"/><path class="xlines-below"/><path class="ylines-below"/><g class="overlines-below"/><g class="xaxislayer-below"/><g class="yaxislayer-below"/><g class="overaxes-below"/><g class="plot" transform="translate(33.93700787401575,22.887139107611553)" clip-path="url(#clipadefa8xyplot)"><g class="scatterlayer mlayer"><g class="trace scatter trace12fa88" style="stroke-miterlimit: 2; opacity: 1;"><g class="fills"/><g class="errorbars"/><g class="lines"><path class="js-line" d="M0,62.12L2.81,63.33L3.37,63.37L10.12,64.09L10.68,64.26L16.3,66.82L16.86,67.18L23.05,72.06L23.61,72.54L29.23,76.41L29.79,76.67L34.29,77.89L34.85,77.95L39.35,77.49L39.91,77.25L42.16,75.32L42.72,74.44L44.41,70.27L44.97,68.29L49.47,52.2L50.03,51.17L52.28,48.77L52.84,48.56L53.96,48.88L54.53,49.57L56.21,54.88L56.77,57.77L60.71,76.77L61.27,77.79L63.52,79.45L64.08,79.58L71.39,79.78L71.95,79.78L562.13,79.78" style="vector-effect: non-scaling-stroke; fill: none; stroke: rgb(0, 154, 250); stroke-opacity: 1; stroke-width: 1px; opacity: 1;"/></g><g class="points"/><g class="text"/></g><g class="trace scatter traceb770c3" style="stroke-miterlimit: 2; opacity: 1;"><g class="fills"/><g class="errorbars"/><g class="lines"><path class="js-line" d="M0,62.84L1.12,63.16L1.69,63.01L7.31,62.02L7.87,62.01L14.05,62.62L14.62,62.73L25.86,64.9L26.42,64.81L29.79,63.51L30.35,63.16L33.73,60.2L34.29,59.55L38.79,52.99L39.35,52.05L43.28,46.49L43.85,46.17L44.97,46.28L45.53,46.74L47.22,49.68L47.78,51.04L56.77,73.48L57.34,74.27L60.71,77.37L61.27,77.73L65.21,79.28L65.77,79.38L73.64,79.76L74.2,79.77L562.13,79.78" style="vector-effect: non-scaling-stroke; fill: none; stroke: rgb(227, 111, 71); stroke-opacity: 1; stroke-width: 1px; opacity: 1;"/></g><g class="points"/><g class="text"/></g><g class="trace scatter tracea8ab5e" style="stroke-miterlimit: 2; opacity: 1;"><g class="fills"/><g class="errorbars"/><g class="lines"><path class="js-line" d="M0,60.08L1.69,61.2L2.25,61.22L7.31,60.41L7.87,60.28L13.49,59.87L14.05,59.92L19.67,61.37L20.24,61.57L26.42,62.9L26.98,62.91L42.16,62.99L42.72,63.17L46.09,65.07L46.66,65.49L51.15,67.97L51.72,68.24L54.53,70.58L55.09,71.26L59.59,75.94L60.15,76.28L65.21,78.26L65.77,78.4L71.95,79.16L72.51,79.17L81.51,78.76L82.07,78.67L87.69,76.91L88.25,76.63L95,72.15L95.56,71.75L104.56,66.33L105.12,66.08L110.74,64.31L111.3,64.22L116.92,64.14L117.48,64.2L127.6,66.18L128.16,66.29L139.41,67.74L139.97,67.78L157.4,68L157.96,67.99L562.13,67.86" style="vector-effect: non-scaling-stroke; fill: none; stroke: rgb(62, 164, 78); stroke-opacity: 1; stroke-width: 1px; opacity: 1;"/></g><g class="points"/><g class="text"/></g><g class="trace scatter traceac9fdf" style="stroke-miterlimit: 2; opacity: 1;"><g class="fills"/><g class="errorbars"/><g class="lines"><path class="js-line" d="M0,60.44L1.12,60.32L1.69,60.64L17.99,71.27L18.55,71.75L26.42,77.52L26.98,77.79L32.04,79.24L32.6,79.32L42.16,79.75L42.72,79.76L562.13,79.78" style="vector-effect: non-scaling-stroke; fill: none; stroke: rgb(195, 113, 210); stroke-opacity: 1; stroke-width: 1px; opacity: 1;"/></g><g class="points"/><g class="text"/></g><g class="trace scatter traceffa691" style="stroke-miterlimit: 2; opacity: 1;"><g class="fills"/><g class="errorbars"/><g class="lines"><path class="js-line" d="M0,63.47L2.25,63.21L2.81,63.28L5.62,64.41L6.18,64.76L15.74,71.64L16.3,72.06L22.49,75.83L23.05,76.06L28.67,77.49L29.23,77.56L35.41,77.52L35.98,77.43L39.91,76.09L40.47,75.75L44.41,72.32L44.97,71.8L47.78,70.5L48.34,70.53L51.72,71.94L52.28,72.33L61.83,79.14L62.4,79.31L68.02,79.77L68.58,79.77L110.74,79.78L111.3,79.78L562.13,79.78" style="vector-effect: non-scaling-stroke; fill: none; stroke: rgb(172, 142, 24); stroke-opacity: 1; stroke-width: 1px; opacity: 1;"/></g><g class="points"/><g class="text"/></g><g class="trace scatter trace2d6a2f" style="stroke-miterlimit: 2; opacity: 1;"><g class="fills"/><g class="errorbars"/><g class="lines"><path class="js-line" d="M0,60.69L2.25,60.42L2.81,60.46L10.12,60.43L10.68,60.34L17.43,58.3L17.99,58.07L25.86,55.74L26.42,55.69L32.04,56.16L32.6,56.27L37.66,58.1L38.22,58.43L42.72,62.07L43.28,62.6L46.66,64.67L47.22,64.71L49.47,63.81L50.03,63.41L53.96,61.18L54.53,61.03L59.02,59.98L59.59,60.33L63.52,64.83L64.08,65.4L67.46,67.48L68.02,67.61L71.39,67.32L71.95,67.13L77.57,64.2L78.14,63.87L84.88,60.79L85.44,60.62L101.18,55.89L101.74,55.64L112.43,51.94L112.99,51.82L120.29,51.07L120.86,51.07L131.54,51.96L132.1,52.03L148.96,53.13L149.53,53.14L186.06,53.05L186.63,53.05L562.13,53.02" style="vector-effect: non-scaling-stroke; fill: none; stroke: rgb(0, 170, 174); stroke-opacity: 1; stroke-width: 1px; opacity: 1;"/></g><g class="points"/><g class="text"/></g><g class="trace scatter trace1753cf" style="stroke-miterlimit: 2; opacity: 1;"><g class="fills"/><g class="errorbars"/><g class="lines"><path class="js-line" d="M0,62.06L1.12,62.02L1.69,61.69L5.62,60.35L6.18,60.24L9.56,59.03L10.12,58.68L14.05,55.19L14.62,54.56L20.24,46.84L20.8,45.96L32.6,28.39L33.17,27.57L43.28,13.02L43.85,12.7L46.09,12.68L46.66,12.91L53.4,15.87L53.96,16.49L55.65,19.53L56.21,21.06L61.83,38.06L62.4,38.81L66.33,42.27L66.89,42.72L72.51,46.4L73.08,46.62L77.57,47.47L78.14,47.48L86.57,46.94L87.13,46.87L95.56,45.45L96.12,45.29L106.24,41.72L106.8,41.5L121.98,36.58L122.54,36.49L129.85,36.13L130.41,36.15L175.38,37.69L175.95,37.69L562.13,37.61" style="vector-effect: non-scaling-stroke; fill: none; stroke: rgb(237, 94, 147); stroke-opacity: 1; stroke-width: 1px; opacity: 1;"/></g><g class="points"/><g class="text"/></g><g class="trace scatter trace63c48d" style="stroke-miterlimit: 2; opacity: 1;"><g class="fills"/><g class="errorbars"/><g class="lines"><path class="js-line" d="M0,61.51L3.37,62.15L3.93,62.24L23.61,64.95L24.17,64.98L33.73,65.04L34.29,64.93L38.22,63.33L38.79,62.97L42.72,59.39L43.28,58.72L50.03,50.67L50.59,50.53L52.84,51.03L53.4,51.49L55.09,54.51L55.65,56.21L61.27,74.83L61.83,75.65L64.64,77.99L65.21,78.24L69.7,79.2L70.27,79.25L81.51,79.33L82.07,79.31L133.79,77.53L134.35,77.55L159.64,78.17L160.21,78.18L562.13,78.32" style="vector-effect: non-scaling-stroke; fill: none; stroke: rgb(198, 130, 37); stroke-opacity: 1; stroke-width: 1px; opacity: 1;"/></g><g class="points"/><g class="text"/></g><g class="trace scatter trace603408" style="stroke-miterlimit: 2; opacity: 1;"><g class="fills"/><g class="errorbars"/><g class="lines"><path class="js-line" d="M0,60.58L2.25,60.92L2.81,61L6.75,61.04L7.31,60.88L11.24,58.96L11.8,58.58L16.3,54.39L16.86,53.73L26.98,42.3L27.54,41.92L32.6,39.46L33.17,39.27L37.1,39.01L37.66,39.18L39.91,40.61L40.47,41.21L43.28,45.57L43.85,46.64L48.34,53.86L48.9,54.48L51.72,56.36L52.28,56.31L53.96,54.76L54.53,53.76L57.34,48.66L57.9,48.53L59.59,50.1L60.15,50.9L63.52,54.38L64.08,54.62L66.89,54.75L67.46,54.63L84.88,50.3L85.44,50.24L93.88,48.45L94.44,48.26L112.99,42.22L113.55,42.13L120.29,41.73L120.86,41.75L130.98,43.01L131.54,43.09L144.47,44.42L145.03,44.45L162.45,44.64L163.02,44.64L210.8,44.52L211.36,44.53L253.52,44.52L254.08,44.52L295.68,44.52L296.24,44.52L562.13,44.52" style="vector-effect: non-scaling-stroke; fill: none; stroke: rgb(0, 169, 141); stroke-opacity: 1; stroke-width: 1px; opacity: 1;"/></g><g class="points"/><g class="text"/></g><g class="trace scatter traceab51eb" style="stroke-miterlimit: 2; opacity: 1;"><g class="fills"/><g class="errorbars"/><g class="lines"><path class="js-line" d="M0,60.57L1.12,60.57L1.69,60.34L9.56,58.23L10.12,57.93L16.86,53.11L17.43,52.65L24.17,47.95L24.73,47.69L29.23,46.6L29.79,46.6L34.29,47.64L34.85,47.88L43.28,51.83L43.85,51.72L45.53,50.34L46.09,49.37L48.34,42.9L48.9,40.81L53.4,26.47L53.96,25.34L58.46,18.51L59.02,18.16L60.71,18.14L61.27,18.38L64.08,20.42L64.64,21L74.2,31.46L74.76,31.77L78.7,33.08L79.26,33.18L98.93,35.93L99.5,36.03L107.37,36.77L107.93,36.75L112.99,36.39L113.55,36.29L121.42,34.56L121.98,34.42L132.1,32.62L132.66,32.57L147.84,32.47L148.4,32.47L201.24,32.71L201.8,32.71L244.52,32.72L245.09,32.69L267.01,32.73L267.57,32.7L309.17,32.7L309.73,32.7L351.33,32.71L351.89,32.7L562.13,32.7" style="vector-effect: non-scaling-stroke; fill: none; stroke: rgb(142, 151, 30); stroke-opacity: 1; stroke-width: 1px; opacity: 1;"/></g><g class="points"/><g class="text"/></g><g class="trace scatter trace573bd4" style="stroke-miterlimit: 2; opacity: 1;"><g class="fills"/><g class="errorbars"/><g class="lines"><path class="js-line" d="M0,61.01L1.12,61.53L1.69,61.43L11.24,59.61L11.8,59.41L17.43,56.44L17.99,56.03L29.23,47.63L29.79,47.48L33.17,47.48L33.73,47.64L37.1,49.43L37.66,49.87L41.6,53.87L42.16,54.55L50.59,64.05L51.15,64.48L55.09,68.21L55.65,68.86L58.46,71.26L59.02,71.35L60.71,70.51L61.27,69.87L64.64,63.81L65.21,62.68L70.83,53.04L71.39,52.27L75.89,47.59L76.45,47.17L81.51,44.72L82.07,44.55L97.81,40.81L98.37,40.68L106.24,39.73L106.8,39.74L112.43,40.68L112.99,40.86L120.86,44.46L121.42,44.74L129.29,47.82L129.85,47.96L137.16,49.06L137.72,49.09L147.84,49.11L148.4,49.09L183.82,48.55L184.38,48.56L224.29,48.58L224.85,48.59L266.45,48.59L267.01,48.59L308.61,48.59L309.17,48.6L350.77,48.6L351.33,48.6L562.13,48.61" style="vector-effect: non-scaling-stroke; fill: none; stroke: rgb(0, 169, 204); stroke-opacity: 1; stroke-width: 1px; opacity: 1;"/></g><g class="points"/><g class="text"/></g><g class="trace scatter trace4846bc" style="stroke-miterlimit: 2; opacity: 1;"><g class="fills"/><g class="errorbars"/><g class="lines"><path class="js-line" d="M0,61.09L11.8,58.41L12.37,58.36L19.11,58.49L19.67,58.6L26.42,60.96L26.98,61.21L34.85,65.46L35.41,65.83L46.66,73.64L47.22,74.25L50.03,76.45L50.59,76.65L52.84,76.59L53.4,76.32L55.09,74.58L55.65,73.58L57.9,66.57L58.46,64.28L61.27,55.85L61.83,54.91L67.46,48.24L68.02,47.74L71.39,45.78L71.95,45.63L75.89,45.6L76.45,45.7L84.88,48.07L85.44,48.26L93.31,51.61L93.88,51.92L110.18,60.12L110.74,60.28L116.92,61.09L117.48,61.1L127.04,60.04L127.6,59.95L144.47,57.96L145.03,57.93L163.02,57.71L163.58,57.72L562.13,57.82" style="vector-effect: non-scaling-stroke; fill: none; stroke: rgb(155, 127, 233); stroke-opacity: 1; stroke-width: 1px; opacity: 1;"/></g><g class="points"/><g class="text"/></g><g class="trace scatter trace766c6c" style="stroke-miterlimit: 2; opacity: 1;"><g class="fills"/><g class="errorbars"/><g class="lines"><path class="js-line" d="M0,60.26L1.69,61.54L2.25,61.6L6.75,60.96L7.31,60.78L11.8,58.56L12.37,58.17L16.3,54.23L16.86,53.45L20.24,47.29L20.8,46.01L32.6,18.07L33.17,17.14L40.47,6.59L41.04,5.98L43.28,4.32L43.85,4.27L45.53,5.18L46.09,5.97L48.34,10.78L48.9,12.37L51.72,23.07L52.28,25.77L58.46,55.96L59.02,57.1L61.83,60.1L62.4,60.5L65.21,61.54L65.77,61.53L68.58,60.47L69.14,60.1L75.32,54.7L75.89,54.19L82.07,49.75L82.63,49.45L103.99,38.7L104.56,38.4L110.74,36.01L111.3,35.89L116.36,35.63L116.92,35.68L123.67,37.24L124.23,37.41L137.72,41.04L138.28,41.13L148.96,42.1L149.53,42.12L180.44,41.94L181,41.93L562.13,41.95" style="vector-effect: non-scaling-stroke; fill: none; stroke: rgb(97, 141, 246); stroke-opacity: 1; stroke-width: 1px; opacity: 1;"/></g><g class="points"/><g class="text"/></g><g class="trace scatter traceba4baf" style="stroke-miterlimit: 2; opacity: 1;"><g class="fills"/><g class="errorbars"/><g class="lines"><path class="js-line" d="M0,61.09L1.12,61.5L1.69,61.27L12.37,56.96L12.93,56.87L17.43,56.89L17.99,57L22.49,58.78L23.05,59.09L30.92,64.39L31.48,64.88L38.22,71.89L38.79,72.5L43.28,76.33L43.85,76.64L47.22,77.49L47.78,77.47L50.59,76.53L51.15,76.14L53.96,73.13L54.53,72.36L57.9,66.35L58.46,64.63L65.21,39.46L65.77,38.2L69.7,31.44L70.27,30.8L73.08,28.78L73.64,28.59L77.01,28.41L77.57,28.5L84.32,30.44L84.88,30.64L91.63,33.84L92.19,34.2L99.5,39.98L100.06,40.48L112.43,50.58L112.99,50.93L119.17,53.75L119.73,53.9L124.79,54.43L125.35,54.4L132.66,53.15L133.22,53.02L148.4,50.28L148.96,50.24L164.14,49.92L164.7,49.94L562.13,50.25" style="vector-effect: non-scaling-stroke; fill: none; stroke: rgb(240, 96, 115); stroke-opacity: 1; stroke-width: 1px; opacity: 1;"/></g><g class="points"/><g class="text"/></g><g class="trace scatter trace3b7016" style="stroke-miterlimit: 2; opacity: 1;"><g class="fills"/><g class="errorbars"/><g class="lines"><path class="js-line" d="M0,61.27L1.69,60.67L2.25,60.75L6.75,60.82L7.31,60.72L11.8,59.38L12.37,59.1L16.3,56.27L16.86,55.73L21.36,50.26L21.92,49.48L30.35,38.96L30.92,38.46L35.41,35.67L35.98,35.49L38.79,35.37L39.35,35.52L42.16,37.42L42.72,38.04L46.09,43.22L46.66,44.26L52.84,55.18L53.4,55.54L54.53,55.55L55.09,55.1L56.77,51.25L57.34,49.13L60.15,39.21L60.71,38.34L62.4,37.34L62.96,37.26L74.2,36.26L74.76,36.08L84.88,33.56L85.44,33.48L103.99,30.54L104.56,30.44L112.43,29.86L112.99,29.87L120.86,30.84L121.42,30.93L136.03,32.78L136.6,32.81L150.65,33.08L151.21,33.07L562.13,32.73" style="vector-effect: non-scaling-stroke; fill: none; stroke: rgb(221, 101, 182); stroke-opacity: 1; stroke-width: 1px; opacity: 1;"/></g><g class="points"/><g class="text"/></g><g class="trace scatter trace64ade9" style="stroke-miterlimit: 2; opacity: 1;"><g class="fills"/><g class="errorbars"/><g class="lines"><path class="js-line" d="M0,63.48L1.69,62.41L2.25,62.24L6.18,61.73L6.75,61.8L12.93,63.72L13.49,64.03L17.43,67.06L17.99,67.62L28.11,77.52L28.67,77.83L33.17,79.26L33.73,79.35L42.72,79.75L43.28,79.75L562.13,79.78" style="vector-effect: non-scaling-stroke; fill: none; stroke: rgb(108, 159, 51); stroke-opacity: 1; stroke-width: 1px; opacity: 1;"/></g><g class="points"/><g class="text"/></g><g class="trace scatter trace94a2de" style="stroke-miterlimit: 2; opacity: 1;"><g class="fills"/><g class="errorbars"/><g class="lines"><path class="js-line" d="M0,61.27L2.25,60.4L2.81,60.33L13.49,59.47L14.05,59.56L17.99,61.05L18.55,61.4L23.05,65.39L23.61,66L31.48,73.47L32.04,73.84L37.1,76.19L37.66,76.36L43.85,77.32L44.41,77.37L74.76,79.77L75.32,79.77L562.13,79.78" style="vector-effect: non-scaling-stroke; fill: none; stroke: rgb(0, 154, 250); stroke-opacity: 1; stroke-width: 1px; opacity: 1;"/></g><g class="points"/><g class="text"/></g><g class="trace scatter tracec01fed" style="stroke-miterlimit: 2; opacity: 1;"><g class="fills"/><g class="errorbars"/><g class="lines"><path class="js-line" d="M0,63.25L1.12,62.02L1.69,62.03L7.31,63.56L7.87,63.78L12.37,66.33L12.93,66.77L18.55,72.35L19.11,72.96L24.17,77.55L24.73,77.88L28.67,79.26L29.23,79.36L38.22,79.76L38.79,79.76L54.53,79.1L55.09,78.86L59.02,76.92L59.59,77.03L67.46,79.64L68.02,79.68L83.76,79.78L84.32,79.78L562.13,79.78" style="vector-effect: non-scaling-stroke; fill: none; stroke: rgb(227, 111, 71); stroke-opacity: 1; stroke-width: 1px; opacity: 1;"/></g><g class="points"/><g class="text"/></g><g class="trace scatter trace0d6023" style="stroke-miterlimit: 2; opacity: 1;"><g class="fills"/><g class="errorbars"/><g class="lines"><path class="js-line" d="M0,60.8L1.69,61.63L2.25,61.59L15.18,59.98L15.74,59.99L20.8,60.78L21.36,60.97L26.98,63.9L27.54,64.24L44.41,73.57L44.97,73.7L49.47,73.86L50.03,73.76L52.84,72.58L53.4,72.11L55.09,69.56L55.65,68.09L57.9,58.34L58.46,55.46L61.27,44.82L61.83,43.66L64.08,41.41L64.64,41.23L68.02,41.31L68.58,41.42L77.01,44.13L77.57,44.31L89.94,47.22L90.5,47.38L101.18,51.36L101.74,51.58L110.74,54.34L111.3,54.44L118.05,54.7L118.61,54.65L127.04,53L127.6,52.86L141.09,50.44L141.66,50.39L155.15,49.89L155.71,49.89L562.13,50.1" style="vector-effect: non-scaling-stroke; fill: none; stroke: rgb(62, 164, 78); stroke-opacity: 1; stroke-width: 1px; opacity: 1;"/></g><g class="points"/><g class="text"/></g><g class="trace scatter trace9504ea" style="stroke-miterlimit: 2; opacity: 1;"><g class="fills"/><g class="errorbars"/><g class="lines"><path class="js-line" d="M0,61.67L1.69,62.46L2.25,62.45L8.99,62.58L9.56,62.71L15.18,64.82L15.74,65.12L20.8,68.66L21.36,69.14L31.48,77.22L32.04,77.49L37.1,79.03L37.66,79.12L46.09,79.64L46.66,79.64L55.65,78.89L56.21,78.76L61.27,78.3L61.83,78.37L75.89,79.68L76.45,79.69L123.11,79.78L123.67,79.78L562.13,79.78" style="vector-effect: non-scaling-stroke; fill: none; stroke: rgb(195, 113, 210); stroke-opacity: 1; stroke-width: 1px; opacity: 1;"/></g><g class="points"/><g class="text"/></g><g class="trace scatter trace04ab88" style="stroke-miterlimit: 2; opacity: 1;"><g class="fills"/><g class="errorbars"/><g class="lines"><path class="js-line" d="M0,60.02L11.8,60.83L12.37,60.84L16.86,61.61L17.43,61.85L20.8,64.28L21.36,64.85L32.04,76.95L32.6,77.28L37.1,78.87L37.66,78.97L45.53,79.5L46.09,79.49L51.15,78.86L51.72,78.58L53.4,76.74L53.96,75.55L56.21,67.04L56.77,64.78L58.46,61.87L59.02,62.29L61.27,66.92L61.83,68.18L65.77,74.72L66.33,75.34L69.7,77.92L70.27,78.2L74.76,79.42L75.32,79.48L84.88,79.78L85.44,79.78L562.13,79.78" style="vector-effect: non-scaling-stroke; fill: none; stroke: rgb(172, 142, 24); stroke-opacity: 1; stroke-width: 1px; opacity: 1;"/></g><g class="points"/><g class="text"/></g><g class="trace scatter traceb79954" style="stroke-miterlimit: 2; opacity: 1;"><g class="fills"/><g class="errorbars"/><g class="lines"><path class="js-line" d="M0,62.52L2.25,61.83L2.81,61.61L10.12,58.65L10.68,58.22L14.62,53.88L15.18,53.06L19.11,45.9L19.67,44.68L30.35,21.15L30.92,20.35L34.85,16.25L35.41,15.85L40.47,13.34L41.04,13.07L44.97,10.53L45.53,9.91L51.72,0.19L52.28,0.04L53.96,0.42L54.53,0.88L56.21,3.33L56.77,4.53L59.02,8.49L59.59,8.78L61.27,8.44L61.83,8.11L65.21,6.77L65.77,6.86L68.58,8.4L69.14,8.82L74.76,12.04L75.32,12.22L80.95,12.93L81.51,12.94L102.87,12.2L103.43,12.12L116.92,9.47L117.48,9.33L130.98,7.75L131.54,7.76L149.53,8.5L150.09,8.52L192.81,8.55L193.37,8.55L234.41,8.54L234.97,8.54L255.21,8.54L255.77,8.52L297.93,8.54L298.49,8.53L562.13,8.53" style="vector-effect: non-scaling-stroke; fill: none; stroke: rgb(0, 170, 174); stroke-opacity: 1; stroke-width: 1px; opacity: 1;"/></g><g class="points"/><g class="text"/></g><g class="trace scatter trace219ecd" style="stroke-miterlimit: 2; opacity: 1;"><g class="fills"/><g class="errorbars"/><g class="lines"><path class="js-line" d="M0,61.56L1.69,62.24L2.25,62.31L12.37,64.19L12.93,64.41L26.42,69.95L26.98,69.99L31.48,69.25L32.04,69.03L35.41,66.82L35.98,66.28L38.79,62.49L39.35,61.49L43.85,51.13L44.41,49.85L46.66,46.48L47.22,46.25L48.34,46.55L48.9,47.08L51.15,51.33L51.72,52.83L55.09,64.91L55.65,67.24L58.46,75.98L59.02,76.91L61.27,78.91L61.83,79.14L66.33,79.71L66.89,79.73L112.43,79.78L112.99,79.78L562.13,79.78" style="vector-effect: non-scaling-stroke; fill: none; stroke: rgb(237, 94, 147); stroke-opacity: 1; stroke-width: 1px; opacity: 1;"/></g><g class="points"/><g class="text"/></g><g class="trace scatter traceb55031" style="stroke-miterlimit: 2; opacity: 1;"><g class="fills"/><g class="errorbars"/><g class="lines"><path class="js-line" d="M0,62.38L5.06,63.78L5.62,64.05L12.37,68.77L12.93,69.23L23.05,76.98L23.61,77.26L29.23,78.97L29.79,79.05L38.79,79.62L39.35,79.63L56.21,79.25L56.77,79.14L61.27,79.02L61.83,79.11L70.27,79.75L70.83,79.76L562.13,79.78" style="vector-effect: non-scaling-stroke; fill: none; stroke: rgb(198, 130, 37); stroke-opacity: 1; stroke-width: 1px; opacity: 1;"/></g><g class="points"/><g class="text"/></g><g class="trace scatter tracee1c69b" style="stroke-miterlimit: 2; opacity: 1;"><g class="fills"/><g class="errorbars"/><g class="lines"><path class="js-line" d="M0,62.35L1.69,62.28L2.25,62.45L11.24,66.13L11.8,66.48L26.42,75.67L26.98,75.86L33.17,76.99L33.73,77.01L38.79,76.36L39.35,76.16L42.72,74.11L43.28,73.63L46.66,71.39L47.22,71.41L48.9,72.4L49.47,73L55.09,78.89L55.65,79.12L59.59,79.71L60.15,79.73L82.07,79.78L82.63,79.78L562.13,79.78" style="vector-effect: non-scaling-stroke; fill: none; stroke: rgb(0, 169, 141); stroke-opacity: 1; stroke-width: 1px; opacity: 1;"/></g><g class="points"/><g class="text"/></g><g class="trace scatter trace8d038d" style="stroke-miterlimit: 2; opacity: 1;"><g class="fills"/><g class="errorbars"/><g class="lines"><path class="js-line" d="M0,63.1L1.69,62.15L2.25,62.05L6.75,60.7L7.31,60.41L12.93,56.77L13.49,56.3L18.55,50.85L19.11,50.14L24.73,43.95L25.3,43.53L28.67,42.05L29.23,41.98L32.6,42.44L33.17,42.65L37.1,45.26L37.66,45.78L43.28,52.46L43.85,53.17L46.66,55.78L47.22,56.02L50.03,56.03L50.59,55.85L52.84,54.43L53.4,53.82L55.65,50.06L56.21,48.71L58.46,39.81L59.02,36.74L62.96,17.94L63.52,16.38L65.77,12.59L66.33,12.08L69.14,10.97L69.7,10.92L74.2,11.48L74.76,11.61L100.06,18.13L100.62,18.35L113.55,22.67L114.11,22.8L121.98,23.53L122.54,23.51L132.1,22.47L132.66,22.4L143.9,21.1L144.47,21.06L159.64,20.69L160.21,20.69L562.13,20.84" style="vector-effect: non-scaling-stroke; fill: none; stroke: rgb(142, 151, 30); stroke-opacity: 1; stroke-width: 1px; opacity: 1;"/></g><g class="points"/><g class="text"/></g><g class="trace scatter trace4bd33a" style="stroke-miterlimit: 2; opacity: 1;"><g class="fills"/><g class="errorbars"/><g class="lines"><path class="js-line" d="M0,62.65L1.69,61.44L2.25,61.3L8.99,60.77L9.56,60.76L15.18,61.3L15.74,61.47L19.67,63.65L20.24,64.1L26.98,70.86L27.54,71.39L32.6,74.98L33.17,75.24L37.66,76.44L38.22,76.48L42.16,75.85L42.72,75.58L45.53,73.14L46.09,72.38L51.72,64.16L52.28,64.06L53.96,65.13L54.53,65.86L62.4,77.17L62.96,77.62L66.33,79.16L66.89,79.29L73.64,79.75L74.2,79.76L562.13,79.78" style="vector-effect: non-scaling-stroke; fill: none; stroke: rgb(0, 169, 204); stroke-opacity: 1; stroke-width: 1px; opacity: 1;"/></g><g class="points"/><g class="text"/></g><g class="trace scatter trace3584d1" style="stroke-miterlimit: 2; opacity: 1;"><g class="fills"/><g class="errorbars"/><g class="lines"><path class="js-line" d="M0,60.73L1.69,62.33L2.25,62.53L8.43,63.41L8.99,63.54L16.86,66.22L17.43,66.43L27.54,69.46L28.11,69.55L35.41,69.73L35.98,69.7L41.6,70.16L42.16,70.32L46.66,71.01L47.22,70.79L48.9,69.3L49.47,68.49L51.72,63.33L52.28,61.55L56.21,49.7L56.77,49.14L57.9,49.3L58.46,49.97L60.71,55.1L61.27,56.59L65.21,64.7L65.77,65.52L70.27,70.59L70.83,71.11L76.45,75.05L77.01,75.33L83.19,77.38L83.76,77.5L92.75,78.4L93.31,78.41L102.31,77.84L102.87,77.75L109.05,75.97L109.61,75.72L116.36,71.82L116.92,71.45L124.79,67.14L125.35,66.93L131.54,65.58L132.1,65.53L140.53,65.51L141.09,65.54L173.13,66.54L173.7,66.54L562.13,66.44" style="vector-effect: non-scaling-stroke; fill: none; stroke: rgb(155, 127, 233); stroke-opacity: 1; stroke-width: 1px; opacity: 1;"/></g><g class="points"/><g class="text"/></g><g class="trace scatter trace36392f" style="stroke-miterlimit: 2; opacity: 1;"><g class="fills"/><g class="errorbars"/><g class="lines"><path class="js-line" d="M0,60.43L2.25,61.25L2.81,61.34L17.99,64.32L18.55,64.59L23.61,68.11L24.17,68.59L32.04,74.45L32.6,74.73L38.22,76.66L38.79,76.77L44.41,77.17L44.97,77.1L47.78,75.95L48.34,75.48L50.59,72.33L51.15,71.19L56.77,58.64L57.34,58.66L58.46,60.29L59.02,61.65L62.4,68.81L62.96,69.49L65.77,71.5L66.33,71.7L70.27,72.13L70.83,72.11L84.32,71.87L84.88,71.93L92.19,73.59L92.75,73.78L108.49,78.47L109.05,78.57L120.29,79.48L120.86,79.49L145.59,79.64L146.15,79.64L562.13,79.67" style="vector-effect: non-scaling-stroke; fill: none; stroke: rgb(97, 141, 246); stroke-opacity: 1; stroke-width: 1px; opacity: 1;"/></g><g class="points"/><g class="text"/></g><g class="trace scatter trace99032c" style="stroke-miterlimit: 2; opacity: 1;"><g class="fills"/><g class="errorbars"/><g class="lines"><path class="js-line" d="M0,62.33L1.12,61.73L1.69,61.79L9.56,63.8L10.12,64.06L16.3,67.87L16.86,68.28L30.35,77.73L30.92,77.94L36.54,79.18L37.1,79.23L44.97,79.2L45.53,79.1L48.34,77.88L48.9,77.35L51.15,73.48L51.72,72.07L55.09,64.87L55.65,64.52L57.34,65.02L57.9,65.61L60.15,69.8L60.71,71.08L64.08,77.12L64.64,77.71L67.46,79.27L68.02,79.4L74.2,79.77L74.76,79.77L562.13,79.78" style="vector-effect: non-scaling-stroke; fill: none; stroke: rgb(240, 96, 115); stroke-opacity: 1; stroke-width: 1px; opacity: 1;"/></g><g class="points"/><g class="text"/></g><g class="trace scatter tracede101f" style="stroke-miterlimit: 2; opacity: 1;"><g class="fills"/><g class="errorbars"/><g class="lines"><path class="js-line" d="M0,62.67L5.06,64.02L5.62,64.15L11.24,66.21L11.8,66.49L18.55,70.8L19.11,71.22L28.67,77.5L29.23,77.73L35.41,79.18L35.98,79.25L47.22,79.74L47.78,79.74L562.13,79.78" style="vector-effect: non-scaling-stroke; fill: none; stroke: rgb(221, 101, 182); stroke-opacity: 1; stroke-width: 1px; opacity: 1;"/></g><g class="points"/><g class="text"/></g><g class="trace scatter tracedb28d0" style="stroke-miterlimit: 2; opacity: 1;"><g class="fills"/><g class="errorbars"/><g class="lines"><path class="js-line" d="M0,62.84L2.25,61.48L2.81,61.33L7.87,59.23L8.43,58.93L13.49,55.32L14.05,54.78L18.55,49.16L19.11,48.33L26.98,37.7L27.54,37.22L30.92,35.58L31.48,35.53L34.29,36.23L34.85,36.55L38.22,39.64L38.79,40.32L42.72,46.35L43.28,47.41L50.59,61.77L51.15,62.14L52.84,62.22L53.4,61.9L55.09,59.62L55.65,58.28L57.34,51.51L57.9,48.16L63.52,13.64L64.08,11.67L66.89,5.03L67.46,4.21L70.27,1.92L70.83,1.76L73.64,2.02L74.2,2.23L80.38,5.65L80.95,5.95L86.01,7.79L86.57,7.91L100.06,9.92L100.62,10.13L119.73,16.94L120.29,17.02L127.6,17L128.16,16.94L138.85,15.26L139.41,15.16L159.08,13.97L159.64,13.96L562.13,14.16" style="vector-effect: non-scaling-stroke; fill: none; stroke: rgb(108, 159, 51); stroke-opacity: 1; stroke-width: 1px; opacity: 1;"/></g><g class="points"/><g class="text"/></g></g></g><g class="overplot"/><path class="xlines-above crisp" d="M32.93700787401575,103.16841644794403H596.0629921259842" style="fill: none; stroke-width: 1px; stroke: rgb(0, 0, 0); stroke-opacity: 1;"/><path class="ylines-above crisp" d="M33.43700787401575,22.887139107611553V102.66841644794403" style="fill: none; stroke-width: 1px; stroke: rgb(0, 0, 0); stroke-opacity: 1;"/><g class="overlines-above"/><g class="xaxislayer-above"><path class="xtick ticks crisp" d="M0,102.66841644794403v-5" transform="translate(146.36700787401577,0)" style="stroke: rgb(0, 0, 0); stroke-opacity: 1; stroke-width: 1px;"/><path class="xtick ticks crisp" d="M0,102.66841644794403v-5" transform="translate(258.7870078740157,0)" style="stroke: rgb(0, 0, 0); stroke-opacity: 1; stroke-width: 1px;"/><path class="xtick ticks crisp" d="M0,102.66841644794403v-5" transform="translate(371.21700787401574,0)" style="stroke: rgb(0, 0, 0); stroke-opacity: 1; stroke-width: 1px;"/><path class="xtick ticks crisp" d="M0,102.66841644794403v-5" transform="translate(483.63700787401575,0)" style="stroke: rgb(0, 0, 0); stroke-opacity: 1; stroke-width: 1px;"/><g class="xtick"><text text-anchor="middle" x="0" y="124.06841644794403" transform="translate(33.93700787401575,0)" style="font-family: sans-serif; font-size: 17px; fill: rgb(0, 0, 0); fill-opacity: 1; white-space: pre; opacity: 1;">0</text></g><g class="xtick"><text text-anchor="middle" x="0" y="124.06841644794403" style="font-family: sans-serif; font-size: 17px; fill: rgb(0, 0, 0); fill-opacity: 1; white-space: pre; opacity: 1;" transform="translate(146.36700787401577,0)">2000</text></g><g class="xtick"><text text-anchor="middle" x="0" y="124.06841644794403" style="font-family: sans-serif; font-size: 17px; fill: rgb(0, 0, 0); fill-opacity: 1; white-space: pre; opacity: 1;" transform="translate(258.7870078740157,0)">4000</text></g><g class="xtick"><text text-anchor="middle" x="0" y="124.06841644794403" style="font-family: sans-serif; font-size: 17px; fill: rgb(0, 0, 0); fill-opacity: 1; white-space: pre; opacity: 1;" transform="translate(371.21700787401574,0)">6000</text></g><g class="xtick"><text text-anchor="middle" x="0" y="124.06841644794403" style="font-family: sans-serif; font-size: 17px; fill: rgb(0, 0, 0); fill-opacity: 1; white-space: pre; opacity: 1;" transform="translate(483.63700787401575,0)">8000</text></g><g class="xtick"><text text-anchor="middle" x="0" y="124.06841644794403" style="font-family: sans-serif; font-size: 17px; fill: rgb(0, 0, 0); fill-opacity: 1; white-space: pre; opacity: 0;" transform="translate(596.0670078740158,0)">10000</text></g></g><g class="yaxislayer-above"><path class="ytick ticks crisp" d="M33.93700787401575,0h5" transform="translate(0,84.59713910761155)" style="stroke: rgb(0, 0, 0); stroke-opacity: 1; stroke-width: 1px;"/><path class="ytick ticks crisp" d="M33.93700787401575,0h5" transform="translate(0,66.53713910761155)" style="stroke: rgb(0, 0, 0); stroke-opacity: 1; stroke-width: 1px;"/><path class="ytick ticks crisp" d="M33.93700787401575,0h5" transform="translate(0,48.46713910761155)" style="stroke: rgb(0, 0, 0); stroke-opacity: 1; stroke-width: 1px;"/><path class="ytick ticks crisp" d="M33.93700787401575,0h5" transform="translate(0,30.39713910761155)" style="stroke: rgb(0, 0, 0); stroke-opacity: 1; stroke-width: 1px;"/><g class="ytick"><text text-anchor="end" x="29.53700787401575" y="5.949999999999999" transform="translate(0,102.66713910761155)" style="font-family: sans-serif; font-size: 17px; fill: rgb(0, 0, 0); fill-opacity: 1; white-space: pre; opacity: 1;">0</text></g><g class="ytick"><text text-anchor="end" x="29.53700787401575" y="5.949999999999999" style="font-family: sans-serif; font-size: 17px; fill: rgb(0, 0, 0); fill-opacity: 1; white-space: pre; opacity: 1;" transform="translate(0,84.59713910761155)">1</text></g><g class="ytick"><text text-anchor="end" x="29.53700787401575" y="5.949999999999999" style="font-family: sans-serif; font-size: 17px; fill: rgb(0, 0, 0); fill-opacity: 1; white-space: pre; opacity: 1;" transform="translate(0,66.53713910761155)">2</text></g><g class="ytick"><text text-anchor="end" x="29.53700787401575" y="5.949999999999999" style="font-family: sans-serif; font-size: 17px; fill: rgb(0, 0, 0); fill-opacity: 1; white-space: pre; opacity: 1;" transform="translate(0,48.46713910761155)">3</text></g><g class="ytick"><text text-anchor="end" x="29.53700787401575" y="5.949999999999999" style="font-family: sans-serif; font-size: 17px; fill: rgb(0, 0, 0); fill-opacity: 1; white-space: pre; opacity: 1;" transform="translate(0,30.39713910761155)">4</text></g></g><g class="overaxes-above"/></g></g><g class="polarlayer"/><g class="ternarylayer"/><g class="geolayer"/><g class="funnelarealayer"/><g class="pielayer"/><g class="iciclelayer"/><g class="treemaplayer"/><g class="sunburstlayer"/><g class="glimages"/><defs id="topdefs-adefa8"><g class="clips"/></defs><g class="layer-above"><g class="imagelayer"/><g class="shapelayer"/></g><g class="infolayer"><g class="g-gtitle"/><g class="g-xtitle" transform="translate(0,-17.668416447944026)"><text class="xtitle" x="315" y="163.66841644794403" text-anchor="middle" style="font-family: sans-serif; font-size: 17px; fill: rgb(0, 0, 0); opacity: 1; font-weight: normal; white-space: pre;">Time</text></g><g class="g-ytitle" transform="translate(25.5634765625,0)"><text class="ytitle" transform="rotate(-90,-10.062992125984252,62.777777777777786)" x="-10.062992125984252" y="62.777777777777786" text-anchor="middle" style="font-family: sans-serif; font-size: 17px; fill: rgb(0, 0, 0); opacity: 1; font-weight: normal; white-space: pre;">Density</text></g></g></svg>