<svg class="main-svg" xmlns="http://www.w3.org/2000/svg" xmlns:xlink="http://www.w3.org/1999/xlink" width="600" height="150" style=""><rect x="0" y="0" width="600" height="150" style="fill: rgb(255, 255, 255); fill-opacity: 1;"/><defs id="defs-c8b307"><g class="clips"><clipPath id="clipc8b307xyplot" class="plotclip"><rect width="548.7926509186352" height="79.78127734033247"/></clipPath><clipPath class="axesclip" id="clipc8b307x"><rect x="47.27034120734907" y="0" width="548.7926509186352" height="150"/></clipPath><clipPath class="axesclip" id="clipc8b307y"><rect x="0" y="22.887139107611553" width="600" height="79.78127734033247"/></clipPath><clipPath class="axesclip" id="clipc8b307xy"><rect x="47.27034120734907" y="22.887139107611553" width="548.7926509186352" height="79.78127734033247"/></clipPath></g><g class="gradients"/><g class="patterns"/></defs><g class="bglayer"/><g class="layer-below"><g class="imagelayer"/><g class="shapelayer"/></g><g class="cartesianlayer"><g class="subplot xy"><g class="layer-subplot"><g class="shapelayer"/><g class="imagelayer"/></g><g class="gridlayer"><g class="x"/><g class="y"/></g><g class="zerolinelayer"/><path class="xlines-below"/><path class="ylines-below"/><g class="overlines-below"/><g class="xaxislayer-below"/><g class="yaxislayer-below"/><g class="overaxes-below"/><g class="plot" transform="translate(47.27034120734907,22.887139107611553)" clip-path="url(#clipc8b307xyplot)"><g class="scatterlayer mlayer"><g class="trace scatter trace907910" style="stroke-miterlimit: 2; opacity: 1;"><g class="fills"/><g class="errorbars"/><g class="lines"><path class="js-line" d="M0,76.89L2.2,75.25L2.74,74.04L5.49,64.11L6.04,67.45L7.68,77.62L8.23,78.56L10.43,79.64L10.98,79.7L23.6,79.73L24.15,79.68L25.24,79.24L25.79,78.23L26.34,74.86L26.89,65.74L28.54,11.22L29.09,37.44L30.73,72.93L31.28,75.86L32.93,78.98L33.48,79.3L36.77,79.76L37.32,79.76L48.84,79.54L49.39,79.14L49.94,77.85L50.49,73.87L52.14,43.93L52.68,52.46L54.33,73.52L54.88,75.99L56.53,78.9L57.07,79.23L60.37,79.73L60.92,79.74L66.4,79.45L66.95,79.03L67.5,77.89L68.05,74.83L69.7,56.25L70.25,59.73L72.44,75.81L72.99,77.25L74.64,79.11L75.18,79.34L79.03,79.74L79.57,79.74L83.42,79.36L83.97,78.83L84.51,77.38L85.06,73.67L86.71,58.01L87.26,62.04L89.45,76.19L90,77.46L91.65,79.15L92.2,79.37L96.59,79.75L97.14,79.75L100.98,79.16L101.53,78.23L102.62,69.62L103.17,61.11L103.72,57.01L104.27,59.65L106.47,75.4L107.01,76.95L108.66,79.02L109.21,79.29L113.05,79.74L113.6,79.75L118.54,79.34L119.09,78.67L119.64,76.74L120.19,71.68L121.28,56.47L121.83,57.71L124.03,74.73L124.58,76.52L126.22,78.91L126.77,79.21L130.06,79.73L130.61,79.74L136.65,79.38L137.2,78.75L137.75,76.85L138.3,71.74L139.39,55.77L139.94,57.06L142.14,74.62L142.69,76.45L144.33,78.89L144.88,79.2L148.17,79.73L148.72,79.74L155.31,79.19L155.86,78.13L156.41,75L156.95,67.52L158.05,55.04L158.6,59.15L160.8,75.55L161.35,77.05L162.99,79.05L163.54,79.31L167.38,79.75L167.93,79.76L173.97,79.11L174.52,77.86L175.61,65.83L176.16,56.62L176.71,55.09L177.26,59.89L179.46,75.81L180,77.22L181.65,79.1L182.2,79.34L186.59,79.76L187.14,79.76L192.63,79.13L193.18,77.93L194.27,66.06L194.82,56.64L195.37,54.87L195.92,59.63L198.11,75.74L198.66,77.18L200.31,79.09L200.86,79.33L204.7,79.75L205.25,79.76L211.29,79.22L211.83,78.19L212.38,75.05L212.93,67.4L214.03,54.5L214.58,58.77L216.77,75.49L217.32,77.02L218.97,79.04L219.52,79.3L223.36,79.75L223.91,79.76L229.94,79.32L230.49,78.49L231.04,75.93L231.59,69.26L232.69,54.3L233.24,57.64L235.43,75.11L235.98,76.77L237.63,78.98L238.18,79.26L242.02,79.75L242.57,79.76L248.6,79.41L249.15,78.77L249.7,76.77L250.25,71.22L251.35,54.51L251.9,56.44L254.09,74.62L254.64,76.45L256.29,78.89L256.83,79.21L260.13,79.73L260.68,79.74L267.26,79.49L267.81,78.99L268.36,77.48L268.91,73.03L270.01,55.31L270.55,55.36L271.1,60.78L273.3,76.08L273.85,77.4L275.49,79.14L276.04,79.37L280.43,79.76L280.98,79.76L286.47,79.17L287.02,78.03L288.12,66.45L288.66,56.76L289.21,54.58L289.76,59.25L291.96,75.65L292.51,77.12L294.15,79.07L294.7,79.32L298.54,79.75L299.09,79.76L305.13,79.31L305.68,78.46L306.23,75.83L306.78,69L307.87,54.25L308.42,57.75L310.62,75.16L311.17,76.8L312.81,78.99L313.36,79.27L317.2,79.75L317.75,79.76L323.79,79.41L324.34,78.78L324.89,76.8L325.43,71.28L326.53,54.5L327.08,56.38L329.28,74.6L329.82,76.44L331.47,78.89L332.02,79.2L335.31,79.73L335.86,79.74L342.45,79.49L343,79.02L343.54,77.54L344.09,73.21L345.74,55.25L346.29,60.61L348.48,76.04L349.03,77.37L350.68,79.14L351.23,79.36L355.07,79.75L355.62,79.76L361.65,79.2L362.2,78.1L362.75,74.78L363.3,66.83L364.4,54.49L364.95,59.02L367.14,75.58L367.69,77.08L369.34,79.06L369.89,79.31L373.73,79.75L374.28,79.76L380.31,79.33L380.86,78.52L381.41,76L381.96,69.39L383.06,54.24L383.61,57.51L385.8,75.07L386.35,76.75L388,78.97L388.55,79.26L392.39,79.75L392.94,79.76L398.97,79.43L399.52,78.82L400.07,76.94L400.62,71.64L401.72,54.6L402.27,56.16L404.46,74.5L405.01,76.37L406.66,78.87L407.2,79.19L410.5,79.73L411.05,79.74L417.63,79.51L418.18,79.05L418.73,77.65L419.28,73.52L420.92,55.08L421.47,60.32L423.67,75.96L424.22,77.32L425.86,79.12L426.41,79.35L430.25,79.75L430.8,79.76L436.84,79.22L437.39,78.19L437.94,75.02L438.49,67.31L439.58,54.4L440.13,58.74L442.33,75.49L442.88,77.02L444.52,79.04L445.07,79.3L448.91,79.75L449.46,79.76L455.5,79.35L456.05,78.58L456.6,76.2L457.14,69.83L458.24,54.26L458.79,57.25L460.99,74.97L461.53,76.68L463.18,78.95L463.73,79.25L467.57,79.75L468.12,79.76L474.16,79.45L474.71,78.87L475.25,77.09L475.8,72.01L476.9,54.74L477.45,55.94L478,61.63L479.64,74.39L480.19,76.3L481.84,78.85L482.39,79.18L485.68,79.73L486.23,79.74L492.82,79.52L493.36,79.09L493.91,77.76L494.46,73.82L496.11,54.92L496.66,60.03L498.85,75.88L499.4,77.27L501.05,79.11L501.6,79.34L505.44,79.75L505.99,79.76L512.02,79.25L512.57,78.27L513.12,75.26L513.67,67.8L514.77,54.33L515.32,58.45L517.51,75.4L518.06,76.96L519.71,79.03L520.26,79.29L524.1,79.75L524.65,79.76L530.68,79.37L531.23,78.64L531.78,76.38L532.33,70.26L533.43,54.3L533.98,56.99L536.17,74.87L536.72,76.61L538.37,78.94L538.91,79.23L542.21,79.73L542.76,79.75L548.79,79.64" style="vector-effect: non-scaling-stroke; fill: none; stroke: rgb(0, 154, 250); stroke-opacity: 1; stroke-width: 1px; opacity: 1;"/></g><g class="points"/><g class="text"/></g><g class="trace scatter trace77d62d" style="stroke-miterlimit: 2; opacity: 1;"><g class="fills"/><g class="errorbars"/><g class="lines"><path class="js-line" d="M0,72.93L1.65,74.63L2.2,75.09L6.04,79.48L6.59,79.73L14.82,79.78L15.37,79.78L548.79,79.78" style="vector-effect: non-scaling-stroke; fill: none; stroke: rgb(227, 111, 71); stroke-opacity: 1; stroke-width: 1px; opacity: 1;"/></g><g class="points"/><g class="text"/></g><g class="trace scatter trace9ee49c" style="stroke-miterlimit: 2; opacity: 1;"><g class="fills"/><g class="errorbars"/><g class="lines"><path class="js-line" d="M0,73.4L1.1,73.81L1.65,74.63L4.39,79.07L4.94,79.39L8.23,79.77L8.78,79.78L548.79,79.78" style="vector-effect: non-scaling-stroke; fill: none; stroke: rgb(62, 164, 78); stroke-opacity: 1; stroke-width: 1px; opacity: 1;"/></g><g class="points"/><g class="text"/></g><g class="trace scatter traced70d87" style="stroke-miterlimit: 2; opacity: 1;"><g class="fills"/><g class="errorbars"/><g class="lines"><path class="js-line" d="M0,76.23L3.84,76.36L4.39,76.91L7.13,79.57L7.68,79.6L11.52,78.85L12.07,78.47L14.27,75.51L14.82,74.42L17.56,69.88L18.11,69.48L20.85,69.05L21.4,68.98L23.6,67.92L24.15,67.2L25.24,62.96L25.79,57.13L26.89,41.97L27.44,45.98L29.09,79.32L29.63,79.65L34.57,79.46L35.12,79.33L37.32,78.12L37.87,77.54L43.9,69.62L44.45,69.42L48.29,67.45L48.84,66.83L50.49,64.03L51.04,65.16L52.68,78.95L53.23,79.46L56.53,79.43L57.07,79.3L59.27,78.08L59.82,77.48L62.56,72.54L63.11,71.52L65.86,68.36L66.4,67.94L67.5,67.53L68.05,68.41L70.25,79.25L70.79,79.55L74.64,79.44L75.18,79.32L77.38,78.07L77.93,77.45L80.67,72.41L81.22,71.37L83.97,67.97L84.51,68.08L85.61,72.93L86.16,76.79L87.26,79.47L87.81,79.63L92.2,79.43L92.75,79.3L94.94,77.94L95.49,77.27L101.53,67.8L102.08,68.53L104.27,79.38L104.82,79.63L109.21,79.56L109.76,79.48L112.5,78.11L113.05,77.49L115.8,72.39L116.34,71.31L119.09,67.57L119.64,67.88L120.73,74.26L121.28,77.86L122.38,79.62L122.93,79.7L128.42,79.35L128.97,79.17L131.16,77.47L131.71,76.68L137.2,67.37L137.75,67.62L138.84,74.13L139.39,77.86L140.49,79.64L141.04,79.71L147.08,79.27L147.63,79.06L149.82,77.1L150.37,76.22L155.86,67.19L156.41,68.15L158.6,79.53L159.15,79.69L165.19,79.41L165.74,79.25L167.93,77.7L168.48,76.96L174.52,67.13L175.06,68.4L177.26,79.58L177.81,79.71L183.85,79.41L184.39,79.25L186.59,77.71L187.14,76.98L193.18,67.07L193.72,68.28L195.92,79.58L196.47,79.71L202.5,79.43L203.05,79.28L205.25,77.8L205.8,77.09L211.83,67.01L212.38,67.95L214.58,79.54L215.13,79.7L221.16,79.45L221.71,79.31L223.91,77.92L224.46,77.24L230.49,67L231.04,67.59L233.24,79.48L233.79,79.69L239.82,79.48L240.37,79.35L242.57,78.05L243.12,77.4L245.86,72.2L246.41,71.11L249.15,67.04L249.7,67.29L250.8,74.29L251.35,78.04L252.44,79.66L252.99,79.73L259.58,79.21L260.13,78.97L262.32,76.81L262.87,75.87L267.81,67.12L268.36,67.1L268.91,68.78L269.46,73.08L270.55,79.19L271.1,79.63L275.49,79.69L276.04,79.65L279.34,78.73L279.88,78.31L282.08,75.08L282.63,73.94L286.47,67.24L287.02,67L287.57,68.11L288.12,71.82L289.76,79.57L290.31,79.71L296.35,79.45L296.9,79.3L299.09,77.9L299.64,77.22L303.48,69.86L304.03,68.96L305.68,66.98L306.23,67.61L308.42,79.49L308.97,79.69L315.01,79.48L315.56,79.35L317.75,78.05L318.3,77.41L321.04,72.21L321.59,71.11L324.34,67.03L324.89,67.27L325.98,74.24L326.53,78.02L327.63,79.66L328.18,79.73L334.76,79.22L335.31,78.98L337.51,76.83L338.06,75.9L343,67.13L343.54,67.08L344.09,68.69L344.64,72.94L345.74,79.17L346.29,79.62L350.68,79.69L351.23,79.65L354.52,78.74L355.07,78.32L357.26,75.12L357.81,73.98L361.65,67.26L362.2,66.98L362.75,68.02L363.3,71.64L364.95,79.56L365.5,79.71L371.53,79.45L372.08,79.31L374.28,77.93L374.83,77.25L380.86,66.98L381.41,67.54L383.61,79.47L384.15,79.69L390.19,79.48L390.74,79.35L392.94,78.08L393.48,77.44L396.23,72.26L396.78,71.16L399.52,67.04L400.07,67.23L401.17,74.02L401.72,77.91L402.81,79.66L403.36,79.73L409.95,79.23L410.5,78.99L412.69,76.87L413.24,75.94L418.18,67.15L418.73,67.05L419.28,68.56L419.83,72.7L420.92,79.13L421.47,79.61L425.31,79.72L425.86,79.69L429.7,78.76L430.25,78.35L432.45,75.17L433,74.04L436.84,67.28L437.39,66.98L437.94,67.92L438.49,71.41L440.13,79.55L440.68,79.7L446.72,79.46L447.27,79.32L449.46,77.95L450.01,77.29L453.3,70.94L453.85,69.95L456.05,66.99L456.6,67.48L458.79,79.45L459.34,79.68L465.38,79.49L465.92,79.36L468.12,78.1L468.67,77.48L471.41,72.32L471.96,71.21L474.71,67.06L475.25,67.19L476.35,73.78L476.9,77.79L478,79.65L478.55,79.73L485.13,79.23L485.68,79L487.88,76.91L488.43,75.99L493.36,67.17L493.91,67.03L494.46,68.42L495.01,72.46L496.11,79.08L496.66,79.6L500.5,79.72L501.05,79.69L504.89,78.78L505.44,78.37L507.63,75.22L508.18,74.09L512.02,67.31L512.57,66.97L513.12,67.82L513.67,71.18L515.32,79.53L515.87,79.7L521.9,79.46L522.45,79.33L524.65,77.98L525.19,77.32L528.49,70.99L529.04,69.99L531.23,67L531.78,67.41L533.98,79.43L534.52,79.68L540.56,79.49L541.11,79.37L543.3,78.13L543.85,77.51L546.6,72.37L547.15,71.27L548.79,68.45" style="vector-effect: non-scaling-stroke; fill: none; stroke: rgb(195, 113, 210); stroke-opacity: 1; stroke-width: 1px; opacity: 1;"/></g><g class="points"/><g class="text"/></g><g class="trace scatter trace5b2604" style="stroke-miterlimit: 2; opacity: 1;"><g class="fills"/><g class="errorbars"/><g class="lines"><path class="js-line" d="M0,73.37L0.55,72.38L1.1,72.73L1.65,73.35L5.49,79.13L6.04,79.26L13.72,79.78L14.27,79.78L548.79,79.78" style="vector-effect: non-scaling-stroke; fill: none; stroke: rgb(172, 142, 24); stroke-opacity: 1; stroke-width: 1px; opacity: 1;"/></g><g class="points"/><g class="text"/></g><g class="trace scatter traceef5c27" style="stroke-miterlimit: 2; opacity: 1;"><g class="fills"/><g class="errorbars"/><g class="lines"><path class="js-line" d="M0,77.71L1.65,77.8L2.2,77.83L3.29,76.67L3.84,75.27L4.94,72.85L5.49,73.12L8.23,78.69L8.78,79.3L10.98,79.76L11.52,79.77L27.99,79.54L28.54,78.89L29.63,78.95L30.18,79.29L32.93,79.77L33.48,79.78L548.79,79.78" style="vector-effect: non-scaling-stroke; fill: none; stroke: rgb(0, 170, 174); stroke-opacity: 1; stroke-width: 1px; opacity: 1;"/></g><g class="points"/><g class="text"/></g><g class="trace scatter trace908a55" style="stroke-miterlimit: 2; opacity: 1;"><g class="fills"/><g class="errorbars"/><g class="lines"><path class="js-line" d="M0,75.3L1.1,75.97L1.65,75.67L3.84,73.54L4.39,74.5L7.13,79.76L7.68,79.78L548.79,79.78" style="vector-effect: non-scaling-stroke; fill: none; stroke: rgb(237, 94, 147); stroke-opacity: 1; stroke-width: 1px; opacity: 1;"/></g><g class="points"/><g class="text"/></g><g class="trace scatter tracea02949" style="stroke-miterlimit: 2; opacity: 1;"><g class="fills"/><g class="errorbars"/><g class="lines"><path class="js-line" d="M0,77.2L1.65,78.05L2.2,78.08L5.49,78.34L6.04,79.14L7.68,79.78L8.23,79.78L548.79,79.78" style="vector-effect: non-scaling-stroke; fill: none; stroke: rgb(198, 130, 37); stroke-opacity: 1; stroke-width: 1px; opacity: 1;"/></g><g class="points"/><g class="text"/></g><g class="trace scatter tracee2ee46" style="stroke-miterlimit: 2; opacity: 1;"><g class="fills"/><g class="errorbars"/><g class="lines"><path class="js-line" d="M0,74.04L1.65,71.53L2.2,72.65L4.39,77.29L4.94,77.59L7.13,78.63L7.68,79.45L9.33,79.78L9.88,79.78L548.79,79.78" style="vector-effect: non-scaling-stroke; fill: none; stroke: rgb(0, 169, 141); stroke-opacity: 1; stroke-width: 1px; opacity: 1;"/></g><g class="points"/><g class="text"/></g><g class="trace scatter trace8427d7" style="stroke-miterlimit: 2; opacity: 1;"><g class="fills"/><g class="errorbars"/><g class="lines"><path class="js-line" d="M0,73.4L1.1,74.06L1.65,73.73L4.39,71.15L4.94,68L6.04,43.91L6.59,24.25L7.68,8.95L8.23,6.2L9.88,0.44L10.43,0.07L12.07,0.51L12.62,1.05L14.82,5.25L15.37,6.64L18.66,13.08L19.21,13.86L20.85,17.23L21.4,19.17L23.05,29.27L23.6,34.32L25.79,64.77L26.34,73.24L27.44,79.11L27.99,78.64L28.54,69.16L29.09,40.87L30.73,6.26L31.28,3.48L32.93,0.62L33.48,0.36L35.67,0.46L36.22,0.72L37.87,2.31L38.42,3.18L43.9,15.2L44.45,16.78L46.1,24.67L46.65,28.68L51.04,68.57L51.59,64.8L53.78,12.41L54.33,7.83L55.98,2.94L56.53,2.56L58.17,2.93L58.72,3.44L60.37,6.45L60.92,8.04L63.11,17.52L63.66,20.71L65.86,38.47L66.4,44.16L68.05,58.76L68.6,59.28L69.7,42.46L70.25,30.06L71.89,10.63L72.44,7.86L74.09,4.88L74.64,4.78L76.28,5.82L76.83,6.59L78.48,10.55L79.03,12.58L81.22,24.99L81.77,29.27L85.06,58.25L85.61,57.28L89.45,7.96L90,6.5L91.65,5.24L92.2,5.39L93.84,6.94L94.39,7.86L96.04,12.35L96.59,14.6L98.78,28.29L99.33,32.99L102.62,59.39L103.17,54.73L105.92,11.98L106.47,8.98L108.11,5.48L108.66,5.26L110.31,5.88L110.86,6.41L112.5,9.13L113.05,10.56L114.7,17.16L115.25,20.28L117.44,37.89L117.99,43.54L120.19,60.94L120.73,58.03L123.48,13.23L124.03,9.8L125.67,5.6L126.22,5.27L127.87,5.63L128.42,6.07L130.06,8.29L130.61,9.46L132.26,14.98L132.81,17.67L135,33.5L135.55,38.8L138.3,61.98L138.84,59.12L141.59,13.39L142.14,9.92L143.78,5.61L144.33,5.26L145.98,5.55L146.53,5.96L148.72,9.06L149.27,10.38L150.92,16.56L151.47,19.52L153.66,36.61L154.21,42.2L156.41,62.1L156.95,62.07L158.05,42.38L158.6,29.04L160.25,11.64L160.8,8.78L162.44,5.41L162.99,5.18L164.64,5.69L165.19,6.12L167.38,9.4L167.93,10.78L169.58,17.22L170.13,20.29L172.32,37.88L172.87,43.57L175.06,62.78L175.61,61.98L176.71,40.17L177.26,27.39L178.91,11.15L179.46,8.46L181.1,5.35L181.65,5.17L183.3,5.73L183.85,6.18L186.04,9.46L186.59,10.85L188.24,17.28L188.78,20.35L190.98,37.95L191.53,43.66L193.72,62.97L194.27,62.3L195.37,40.68L195.92,27.65L197.57,11.27L198.11,8.54L199.76,5.38L200.31,5.18L201.96,5.71L202.5,6.15L204.7,9.35L205.25,10.7L206.89,16.98L207.44,19.99L209.64,37.35L210.19,43.01L212.38,62.86L212.93,62.83L214.03,42.78L214.58,29.06L216.22,11.75L216.77,8.86L218.42,5.42L218.97,5.2L220.61,5.65L221.16,6.07L223.36,9.16L223.91,10.45L225.55,16.5L226.1,19.41L228.3,36.38L228.85,41.97L231.04,62.5L231.59,63.28L232.14,58.42L232.69,45.77L234.33,16.79L234.88,12.46L236.53,6.14L237.08,5.51L238.72,5.31L239.27,5.58L241.47,7.93L242.02,8.92L243.66,13.6L244.21,15.94L246.41,30.28L246.96,35.23L250.25,63.51L250.8,60.23L253.54,13.35L254.09,9.93L255.74,5.61L256.29,5.25L257.93,5.51L258.48,5.88L260.68,8.66L261.23,9.84L262.87,15.34L263.42,18.03L265.62,34L266.16,39.38L268.91,63.47L269.46,61.69L272.75,10.64L273.3,8.14L274.95,5.31L275.49,5.17L277.14,5.78L277.69,6.23L279.88,9.52L280.43,10.91L282.08,17.32L282.63,20.38L284.82,37.99L285.37,43.7L287.57,63.17L288.12,62.71L289.21,41.45L289.76,28.09L291.41,11.45L291.96,8.67L293.6,5.39L294.15,5.18L295.8,5.68L296.35,6.11L298.54,9.22L299.09,10.52L300.74,16.62L301.29,19.55L303.48,36.61L304.03,42.21L306.23,62.64L306.78,63.32L307.32,58.26L307.87,45.4L309.52,16.66L310.07,12.37L311.71,6.13L312.26,5.49L313.91,5.31L314.46,5.59L316.65,7.94L317.2,8.93L318.85,13.6L319.4,15.94L321.59,30.27L322.14,35.23L325.43,63.55L325.98,60.32L328.73,13.38L329.28,9.95L330.92,5.62L331.47,5.26L333.12,5.51L333.67,5.87L335.86,8.65L336.41,9.81L338.06,15.29L338.61,17.97L340.8,33.89L341.35,39.25L344.09,63.47L344.64,61.84L347.93,10.72L348.48,8.2L350.13,5.32L350.68,5.17L352.32,5.76L352.87,6.22L355.07,9.48L355.62,10.85L357.26,17.22L357.81,20.26L360.01,37.8L360.56,43.5L362.75,63.11L363.3,62.83L364.4,42.02L364.95,28.47L366.59,11.58L367.14,8.75L368.79,5.41L369.34,5.19L370.98,5.67L371.53,6.09L373.73,9.17L374.28,10.46L375.92,16.51L376.47,19.42L378.67,36.39L379.22,41.97L381.41,62.54L381.96,63.38L382.51,58.64L383.06,46.05L384.7,16.87L385.25,12.53L386.9,6.16L387.45,5.51L389.09,5.31L389.64,5.58L391.84,7.9L392.39,8.88L394.03,13.51L394.58,15.83L396.78,30.07L397.33,35L400.62,63.56L401.17,60.63L403.91,13.57L404.46,10.08L406.11,5.64L406.66,5.27L408.3,5.49L408.85,5.85L411.05,8.6L411.59,9.75L413.24,15.18L413.79,17.84L415.98,33.65L416.53,38.99L419.28,63.42L419.83,62.05L423.12,10.87L423.67,8.3L425.31,5.33L425.86,5.17L427.51,5.75L428.06,6.2L430.25,9.43L430.8,10.78L432.45,17.09L433,20.11L435.19,37.55L435.74,43.22L437.94,63.03L438.49,62.97L439.58,42.75L440.13,28.99L441.78,11.75L442.33,8.86L443.97,5.42L444.52,5.19L446.17,5.65L446.72,6.07L448.91,9.12L449.46,10.39L451.11,16.38L451.66,19.27L453.85,36.13L454.4,41.7L457.14,63.44L457.69,59.05L459.89,17.1L460.44,12.71L462.08,6.21L462.63,5.54L464.28,5.3L464.83,5.56L467.02,7.86L467.57,8.83L469.22,13.41L469.77,15.71L471.96,29.85L472.51,34.75L475.8,63.56L476.35,60.93L479.1,13.76L479.64,10.22L481.29,5.67L481.84,5.28L483.49,5.48L484.04,5.84L486.23,8.55L486.78,9.69L488.43,15.06L488.97,17.69L491.17,33.41L491.72,38.72L494.46,63.37L495.01,62.26L498.3,11.02L498.85,8.39L500.5,5.35L501.05,5.18L502.69,5.73L503.24,6.17L505.44,9.37L505.99,10.71L507.63,16.96L508.18,19.95L510.38,37.28L510.93,42.94L513.12,62.93L513.67,63.09L514.77,43.5L515.32,29.53L516.96,11.92L517.51,8.97L519.16,5.44L519.71,5.2L521.35,5.63L521.9,6.04L524.1,9.06L524.65,10.33L526.29,16.25L526.84,19.12L529.04,35.87L529.58,41.41L532.33,63.49L532.88,59.44L535.62,12.9L536.17,9.62L537.82,5.56L538.37,5.24L540.01,5.55L540.56,5.93L542.76,8.78L543.3,9.97L544.95,15.58L545.5,18.32L547.7,34.5L548.24,39.92L548.79,45.74" style="vector-effect: non-scaling-stroke; fill: none; stroke: rgb(142, 151, 30); stroke-opacity: 1; stroke-width: 1px; opacity: 1;"/></g><g class="points"/><g class="text"/></g><g class="trace scatter trace3e3b6f" style="stroke-miterlimit: 2; opacity: 1;"><g class="fills"/><g class="errorbars"/><g class="lines"><path class="js-line" d="M0,72.81L3.84,78.42L4.39,78.48L5.49,77.79L6.04,75.86L7.68,56.19L8.23,59.08L9.88,62.26L10.43,62.46L15.37,64.44L15.91,64.84L22.5,69.93L23.05,70.98L26.34,77.72L26.89,77.11L27.44,74.26L27.99,66.56L29.09,59.04L29.63,59.33L31.83,62.56L32.38,62.79L40.06,64.69L40.61,65.07L46.1,69.81L46.65,70.87L50.49,78.98L51.04,79.07L51.59,78.64L52.14,76.52L53.78,62.43L54.33,62.63L57.07,63.51L57.62,63.6L60.92,64.9L61.46,65.38L63.66,68.39L64.21,69.45L68.6,78.56L69.15,78.32L69.7,76.87L70.25,72.69L71.34,64.55L71.89,63.89L74.64,64.09L75.18,64.18L78.48,65.63L79.03,66.16L81.22,69.62L81.77,70.85L85.06,78.26L85.61,78.51L86.16,78.13L86.71,76.36L88.9,64.16L89.45,64.05L93.84,64.75L94.39,64.98L96.59,66.73L97.14,67.47L99.33,71.9L99.88,73.33L102.62,78.67L103.17,78.64L103.72,77.77L104.27,74.81L105.92,64.4L106.47,64.11L110.31,64.49L110.86,64.63L113.6,66.15L114.15,66.73L116.34,70.49L116.89,71.81L120.19,78.8L120.73,78.92L121.28,78.47L121.83,76.57L123.48,64.68L124.03,64.16L127.32,64.33L127.87,64.43L131.16,65.79L131.71,66.27L133.91,69.51L134.45,70.7L138.3,78.94L138.84,79.06L139.39,78.7L139.94,77.06L142.14,64.17L142.69,64.07L147.63,64.83L148.17,65.05L150.37,66.63L150.92,67.29L153.11,71.48L153.66,72.89L156.41,78.83L156.95,79.13L158.05,78.36L158.6,75.64L160.25,64.38L160.8,64.1L165.19,64.57L165.74,64.72L168.48,66.22L169.03,66.78L171.22,70.49L171.77,71.8L175.06,78.95L175.61,79.19L176.71,78.23L177.26,75.13L178.91,64.31L179.46,64.09L183.85,64.58L184.39,64.73L187.14,66.24L187.69,66.8L189.88,70.51L190.43,71.82L193.72,78.97L194.27,79.21L195.37,78.34L195.92,75.4L197.57,64.33L198.11,64.09L202.5,64.58L203.05,64.72L205.8,66.19L206.35,66.74L208.54,70.37L209.09,71.67L212.38,78.93L212.93,79.21L214.03,78.55L214.58,76.07L216.22,64.41L216.77,64.1L221.16,64.56L221.71,64.7L224.46,66.11L225,66.63L227.2,70.16L227.75,71.43L231.04,78.85L231.59,79.19L232.69,78.77L233.24,76.83L234.88,64.55L235.43,64.13L239.27,64.42L239.82,64.53L243.12,66.01L243.66,66.51L245.86,69.9L246.41,71.14L250.25,79.14L250.8,79.24L251.35,78.95L251.9,77.52L254.09,64.17L254.64,64.07L260.13,64.99L260.68,65.23L262.87,66.98L263.42,67.71L265.62,72.18L266.16,73.64L268.91,79.08L269.46,79.25L270.01,79.08L270.55,78.07L272.75,64.24L273.3,64.08L278.24,64.75L278.79,64.94L281.53,66.82L282.08,67.51L284.27,71.83L284.82,73.27L287.57,78.99L288.12,79.23L289.21,78.47L289.76,75.76L291.41,64.36L291.96,64.09L296.35,64.57L296.9,64.71L299.64,66.13L300.19,66.66L302.38,70.2L302.93,71.48L306.23,78.87L306.78,79.2L307.87,78.76L308.42,76.78L310.07,64.54L310.62,64.12L314.46,64.43L315.01,64.54L318.3,66.01L318.85,66.51L321.04,69.9L321.59,71.14L325.43,79.15L325.98,79.25L326.53,78.96L327.08,77.56L329.28,64.17L329.82,64.07L335.31,64.99L335.86,65.23L338.06,66.96L338.61,67.69L340.8,72.15L341.35,73.6L344.09,79.07L344.64,79.25L345.19,79.09L345.74,78.12L347.93,64.25L348.48,64.08L353.42,64.75L353.97,64.93L356.72,66.8L357.26,67.48L359.46,71.78L360.01,73.22L362.75,78.97L363.3,79.23L364.4,78.52L364.95,75.92L366.59,64.38L367.14,64.1L371.53,64.56L372.08,64.7L374.83,66.11L375.37,66.64L377.57,70.16L378.12,71.43L381.41,78.85L381.96,79.19L383.06,78.8L383.61,76.92L385.25,64.57L385.8,64.13L389.64,64.42L390.19,64.53L393.48,65.99L394.03,66.49L396.23,69.85L396.78,71.08L400.62,79.14L401.17,79.25L401.72,78.99L402.27,77.67L404.46,64.18L405.01,64.07L410.5,64.98L411.05,65.21L413.24,66.93L413.79,67.65L415.98,72.08L416.53,73.54L419.28,79.06L419.83,79.25L420.92,78.21L421.47,74.9L423.12,64.27L423.67,64.08L428.61,64.74L429.16,64.92L431.9,66.77L432.45,67.45L434.64,71.72L435.19,73.15L437.94,78.95L438.49,79.23L439.58,78.58L440.13,76.13L441.78,64.41L442.33,64.1L446.72,64.56L447.27,64.7L450.01,66.09L450.56,66.61L452.75,70.1L453.3,71.36L456.6,78.83L457.14,79.18L458.24,78.84L458.79,77.08L460.44,64.62L460.99,64.14L464.28,64.33L464.83,64.42L468.12,65.58L468.67,65.97L470.86,68.73L471.41,69.79L475.8,79.12L476.35,79.25L476.9,79.01L477.45,77.78L479.64,64.2L480.19,64.07L485.68,64.97L486.23,65.2L488.43,66.9L488.97,67.61L491.17,72.01L491.72,73.46L494.46,79.04L495.01,79.25L496.11,78.29L496.66,75.15L498.3,64.29L498.85,64.08L503.79,64.73L504.34,64.91L507.08,66.74L507.63,67.41L509.83,71.65L510.38,73.08L513.12,78.93L513.67,79.22L514.77,78.64L515.32,76.32L516.96,64.44L517.51,64.11L521.35,64.44L521.9,64.55L525.19,66.07L525.74,66.58L527.94,70.04L528.49,71.3L531.78,78.8L532.33,79.17L533.43,78.88L533.98,77.23L535.62,64.67L536.17,64.15L539.46,64.32L540.01,64.41L543.3,65.57L543.85,65.95L546.05,68.68L546.6,69.74L548.79,75.28" style="vector-effect: non-scaling-stroke; fill: none; stroke: rgb(0, 169, 204); stroke-opacity: 1; stroke-width: 1px; opacity: 1;"/></g><g class="points"/><g class="text"/></g><g class="trace scatter trace84b519" style="stroke-miterlimit: 2; opacity: 1;"><g class="fills"/><g class="errorbars"/><g class="lines"><path class="js-line" d="M0,73.96L2.2,76.99L2.74,77.7L4.94,79.36L5.49,79.56L9.33,79.78L9.88,79.78L548.79,79.78" style="vector-effect: non-scaling-stroke; fill: none; stroke: rgb(155, 127, 233); stroke-opacity: 1; stroke-width: 1px; opacity: 1;"/></g><g class="points"/><g class="text"/></g><g class="trace scatter trace34c826" style="stroke-miterlimit: 2; opacity: 1;"><g class="fills"/><g class="errorbars"/><g class="lines"><path class="js-line" d="M0,79.11L2.2,79.1L2.74,79.16L9.88,79.43L10.43,79.4L16.46,78.59L17.01,78.35L20.31,75.83L20.85,75.14L22.5,71.49L23.05,69.46L25.24,60.97L25.79,62.82L27.44,76.39L27.99,75.4L28.54,72.33L29.09,73.93L30.73,77.58L31.28,77.9L34.57,78.45L35.12,78.47L40.61,77.97L41.16,77.76L43.9,75.88L44.45,75.22L46.1,71.6L46.65,69.56L49.94,54.32L50.49,55.87L53.78,75.43L54.33,76.35L56.53,77.5L57.07,77.57L60.37,77.08L60.92,76.8L62.56,75.16L63.11,74.2L64.76,69.31L65.31,66.9L68.05,54.19L68.6,54.93L71.89,74.72L72.44,75.49L74.64,76.42L75.18,76.41L77.93,75.44L78.48,75.02L80.12,72.81L80.67,71.61L82.32,65.88L82.87,63.23L85.06,53.83L85.61,54.76L88.9,74.52L89.45,75.26L91.65,76.13L92.2,76.11L94.94,75.1L95.49,74.69L97.14,72.64L97.69,71.54L99.33,66.22L99.88,63.68L102.62,53.36L103.17,55.94L105.37,72.41L105.92,73.97L107.56,75.81L108.11,76L110.86,75.75L111.4,75.54L114.15,73.37L114.7,72.53L116.34,68.38L116.89,66.28L120.19,52.48L120.73,54.35L123.48,73.54L124.03,74.65L125.67,75.95L126.22,76.06L128.97,75.64L129.52,75.41L132.26,73.13L132.81,72.27L134.45,68L135,65.84L138.3,52L138.84,53.91L141.59,73.48L142.14,74.61L143.78,75.94L144.33,76.06L147.08,75.66L147.63,75.44L150.37,73.34L150.92,72.56L152.56,68.7L153.11,66.71L156.41,51.75L156.95,52.27L160.25,74.07L160.8,74.96L162.44,76.01L162.99,76.08L165.74,75.57L166.28,75.34L169.03,73.12L169.58,72.3L171.22,68.24L171.77,66.17L175.06,51.48L175.61,52.45L178.91,74.23L179.46,75.06L181.65,76.08L182.2,76.08L185.49,75.01L186.04,74.67L188.24,72.26L188.78,71.21L190.43,66.12L190.98,63.65L193.72,51.39L194.27,52.3L197.57,74.19L198.11,75.03L200.31,76.08L200.86,76.08L204.15,75.03L204.7,74.69L206.89,72.34L207.44,71.32L209.09,66.36L209.64,63.93L212.38,51.39L212.93,51.96L216.22,74.03L216.77,74.94L218.97,76.08L219.52,76.08L222.81,75.07L223.36,74.74L225.55,72.48L226.1,71.51L227.75,66.74L228.3,64.39L231.04,51.51L231.59,51.62L232.69,60.09L233.24,65.63L234.88,73.8L235.43,74.8L237.08,75.97L237.63,76.07L240.92,75.4L241.47,75.13L243.66,73.39L244.21,72.66L245.86,69.06L246.41,67.2L250.25,51.36L250.8,53.6L253.54,73.5L254.09,74.61L255.74,75.93L256.29,76.05L259.03,75.67L259.58,75.45L262.32,73.53L262.87,72.85L264.52,69.45L265.07,67.67L268.91,51.25L269.46,52.77L272.2,73.13L272.75,74.39L274.4,75.89L274.95,76.03L277.69,75.71L278.24,75.51L280.98,73.68L281.53,73.03L283.18,69.83L283.73,68.15L286.47,54.91L287.02,52.54L287.57,51.28L288.12,52.1L291.41,74.13L291.96,75L294.15,76.08L294.7,76.08L297.99,75.05L298.54,74.71L300.74,72.44L301.29,71.45L302.93,66.65L303.48,64.28L306.23,51.45L306.78,51.62L307.87,60.24L308.42,65.76L310.07,73.83L310.62,74.81L312.26,75.97L312.81,76.07L316.1,75.39L316.65,75.13L318.85,73.38L319.4,72.65L321.04,69.06L321.59,67.19L325.43,51.34L325.98,53.55L328.73,73.48L329.28,74.6L330.92,75.93L331.47,76.05L334.21,75.67L334.76,75.46L337.51,73.54L338.06,72.86L339.7,69.48L340.25,67.72L344.09,51.24L344.64,52.68L347.39,73.09L347.93,74.36L349.58,75.88L350.13,76.03L352.87,75.72L353.42,75.51L356.17,73.7L356.72,73.05L358.36,69.88L358.91,68.21L361.11,57.91L361.65,55L362.75,51.29L363.3,52.01L366.59,74.09L367.14,74.97L369.34,76.08L369.89,76.08L373.18,75.06L373.73,74.73L375.92,72.47L376.47,71.5L378.12,66.73L378.67,64.38L381.41,51.49L381.96,51.56L383.06,59.99L383.61,65.56L385.25,73.77L385.8,74.78L387.45,75.97L388,76.06L390.74,75.63L391.29,75.4L394.03,73.41L394.58,72.69L396.23,69.13L396.78,67.28L400.62,51.31L401.17,53.39L403.91,73.42L404.46,74.56L406.11,75.92L406.66,76.05L409.4,75.68L409.95,75.47L412.69,73.57L413.24,72.89L414.89,69.55L415.44,67.81L419.28,51.24L419.83,52.54L422.57,73.01L423.12,74.32L424.77,75.87L425.31,76.02L428.06,75.73L428.61,75.53L431.35,73.72L431.9,73.09L433.55,69.95L434.09,68.3L436.29,58.05L436.84,55.13L437.94,51.32L438.49,51.91L441.78,74.03L442.33,74.94L444.52,76.07L445.07,76.08L448.36,75.07L448.91,74.75L451.11,72.51L451.66,71.55L453.3,66.84L453.85,64.5L457.14,51.5L457.69,54.23L459.89,72.03L460.44,73.71L462.08,75.75L462.63,75.96L465.38,75.81L465.92,75.64L468.67,74L469.22,73.44L470.86,70.67L471.41,69.21L473.61,59.63L474.16,56.64L475.8,51.29L476.35,53.21L479.1,73.35L479.64,74.52L481.29,75.92L481.84,76.04L484.58,75.69L485.13,75.48L487.88,73.6L488.43,72.93L490.07,69.63L490.62,67.9L494.46,51.24L495.01,52.41L498.3,74.27L498.85,75.08L501.05,76.08L501.6,76.07L504.89,75.01L505.44,74.67L507.63,72.32L508.18,71.31L509.83,66.37L510.38,63.95L513.12,51.35L513.67,51.83L516.96,73.98L517.51,74.9L519.16,75.99L519.71,76.07L522.45,75.59L523,75.36L525.74,73.3L526.29,72.55L527.94,68.85L528.49,66.94L532.33,51.45L532.88,54.02L535.07,71.92L535.62,73.65L537.27,75.73L537.82,75.95L540.56,75.82L541.11,75.64L543.85,74.03L544.4,73.47L546.05,70.73L546.6,69.29L548.79,59.77" style="vector-effect: non-scaling-stroke; fill: none; stroke: rgb(97, 141, 246); stroke-opacity: 1; stroke-width: 1px; opacity: 1;"/></g><g class="points"/><g class="text"/></g><g class="trace scatter trace631481" style="stroke-miterlimit: 2; opacity: 1;"><g class="fills"/><g class="errorbars"/><g class="lines"><path class="js-line" d="M0,77.24L2.74,77.46L3.29,77.72L7.68,79.78L8.23,79.78L548.79,79.78" style="vector-effect: non-scaling-stroke; fill: none; stroke: rgb(240, 96, 115); stroke-opacity: 1; stroke-width: 1px; opacity: 1;"/></g><g class="points"/><g class="text"/></g><g class="trace scatter trace48f6f1" style="stroke-miterlimit: 2; opacity: 1;"><g class="fills"/><g class="errorbars"/><g class="lines"><path class="js-line" d="M0,75.6L1.65,76.64L2.2,76.68L4.39,76.91L4.94,76.31L6.04,74.18L6.59,74.96L8.23,79.65L8.78,79.76L29.63,79.78L30.18,79.78L548.79,79.78" style="vector-effect: non-scaling-stroke; fill: none; stroke: rgb(221, 101, 182); stroke-opacity: 1; stroke-width: 1px; opacity: 1;"/></g><g class="points"/><g class="text"/></g><g class="trace scatter traceb31010" style="stroke-miterlimit: 2; opacity: 1;"><g class="fills"/><g class="errorbars"/><g class="lines"><path class="js-line" d="M0,72.86L1.65,73.12L2.2,73.97L5.49,79.45L6.04,79.71L12.07,79.78L12.62,79.78L548.79,79.78" style="vector-effect: non-scaling-stroke; fill: none; stroke: rgb(108, 159, 51); stroke-opacity: 1; stroke-width: 1px; opacity: 1;"/></g><g class="points"/><g class="text"/></g><g class="trace scatter trace749a66" style="stroke-miterlimit: 2; opacity: 1;"><g class="fills"/><g class="errorbars"/><g class="lines"><path class="js-line" d="M0,77.42L1.65,79.11L2.2,79.2L20.31,79.78L20.85,79.78L548.79,79.78" style="vector-effect: non-scaling-stroke; fill: none; stroke: rgb(0, 154, 250); stroke-opacity: 1; stroke-width: 1px; opacity: 1;"/></g><g class="points"/><g class="text"/></g><g class="trace scatter trace3f35d4" style="stroke-miterlimit: 2; opacity: 1;"><g class="fills"/><g class="errorbars"/><g class="lines"><path class="js-line" d="M0,72.05L3.29,78.17L3.84,78.66L6.59,79.66L7.13,79.72L18.11,79.78L18.66,79.78L23.6,79.14L24.15,78.25L25.24,71.19L25.79,61.75L26.89,38.89L27.44,42.38L29.09,79.27L29.63,79.68L36.22,79.78L36.77,79.78L48.84,79.14L49.39,78.06L50.49,70.18L51.04,65.15L51.59,66.27L52.14,71.94L53.78,79.28L54.33,79.57L58.72,79.78L59.27,79.78L67.5,79.24L68.05,78.5L69.15,76.74L69.7,77.16L71.89,79.57L72.44,79.67L81.77,79.78L82.32,79.78L85.61,79.11L86.16,78.96L93.84,79.78L94.39,79.78L548.79,79.78" style="vector-effect: non-scaling-stroke; fill: none; stroke: rgb(227, 111, 71); stroke-opacity: 1; stroke-width: 1px; opacity: 1;"/></g><g class="points"/><g class="text"/></g><g class="trace scatter trace4347cd" style="stroke-miterlimit: 2; opacity: 1;"><g class="fills"/><g class="errorbars"/><g class="lines"><path class="js-line" d="M0,78.63L1.1,76.76L1.65,74.84L3.84,60.93L4.39,61.67L5.49,66.87L6.04,71.5L7.13,78.16L7.68,78.88L9.88,79.62L10.43,79.67L21.95,79.78L22.5,79.78L548.79,79.78" style="vector-effect: non-scaling-stroke; fill: none; stroke: rgb(62, 164, 78); stroke-opacity: 1; stroke-width: 1px; opacity: 1;"/></g><g class="points"/><g class="text"/></g><g class="trace scatter trace72766f" style="stroke-miterlimit: 2; opacity: 1;"><g class="fills"/><g class="errorbars"/><g class="lines"><path class="js-line" d="M0,79.48L3.29,78.73L3.84,78.87L6.04,79.3L6.59,78.82L7.13,76.2L7.68,65.13L8.78,44.49L9.33,42.09L10.98,40L11.52,39.76L15.91,37.55L16.46,37.13L19.76,35.35L20.31,35.26L24.7,34.89L25.24,37.71L27.44,69.72L27.99,61.82L28.54,47.25L29.09,48.6L29.63,47.53L31.28,41.15L31.83,40.31L34.03,39.25L34.57,39.18L39.51,38.01L40.06,37.68L44.45,35.43L45,35.33L46.65,34.57L47.2,33.99L49.39,32.01L49.94,33.58L51.59,46.24L52.14,45.93L52.68,45.86L53.23,44.78L55.43,39.95L55.98,39.56L63.11,36.62L63.66,36.08L67.5,31.57L68.05,32.07L70.79,42.08L71.34,41.61L73.54,39.38L74.09,39.18L79.03,37.75L79.57,37.33L82.32,34.06L82.87,33.23L84.51,31.29L85.06,31.61L86.16,35.76L86.71,38.52L87.81,41.23L88.36,40.97L91.1,39.09L91.65,38.99L96.04,37.82L96.59,37.43L99.33,34.25L99.88,33.42L102.08,31.03L102.62,31.93L105.37,41.03L105.92,40.58L108.11,39.15L108.66,39.03L113.6,37.82L114.15,37.45L116.89,34.31L117.44,33.46L119.64,30.77L120.19,31.3L122.93,41.07L123.48,40.76L126.22,39.06L126.77,38.98L131.71,37.76L132.26,37.38L135,34.17L135.55,33.31L137.75,30.61L138.3,31.12L141.04,41.09L141.59,40.8L144.33,39.07L144.88,38.99L149.82,37.88L150.37,37.54L153.11,34.5L153.66,33.66L156.41,30.63L156.95,31.77L159.15,40.86L159.7,41.05L162.99,39.03L163.54,38.96L168.48,37.8L169.03,37.44L171.77,34.32L172.32,33.46L174.52,30.49L175.06,30.65L176.16,34.82L176.71,37.85L177.81,40.97L178.36,41.01L181.1,39.12L181.65,39.02L187.14,37.79L187.69,37.43L190.43,34.31L190.98,33.45L193.18,30.46L193.72,30.6L194.82,34.75L195.37,37.79L197.02,41.02L197.57,40.51L199.76,39.13L200.31,39.03L205.8,37.82L206.35,37.47L209.09,34.4L209.64,33.55L211.83,30.47L212.38,30.51L213.48,34.33L214.03,37.44L215.68,41.07L216.22,40.59L218.42,39.15L218.97,39.04L225,37.54L225.55,37.12L228.3,33.7L228.85,32.82L231.04,30.43L231.59,31.33L234.33,41.12L234.88,40.7L237.08,39.18L237.63,39.05L243.66,37.62L244.21,37.22L246.96,33.89L247.51,33.01L249.7,30.39L250.25,30.99L252.99,41.12L253.54,40.83L255.74,39.21L256.29,39.07L262.32,37.7L262.87,37.32L265.62,34.09L266.16,33.22L268.36,30.39L268.91,30.73L270.01,35.38L270.55,38.31L271.65,41.06L272.2,40.95L274.95,39.1L275.49,39.01L280.98,37.78L281.53,37.42L284.27,34.3L284.82,33.44L287.02,30.43L287.57,30.54L288.66,34.59L289.21,37.68L290.86,41.05L291.41,40.54L293.6,39.14L294.15,39.03L299.64,37.86L300.19,37.52L302.93,34.51L303.48,33.67L306.23,30.43L306.78,31.36L309.52,41.11L310.07,40.69L312.26,39.17L312.81,39.05L318.85,37.61L319.4,37.22L322.14,33.89L322.69,33.01L324.89,30.37L325.43,30.98L328.18,41.11L328.73,40.83L331.47,39.08L332.02,38.99L337.51,37.71L338.06,37.33L340.8,34.11L341.35,33.24L343.54,30.39L344.09,30.7L345.19,35.34L345.74,38.25L346.84,41.04L347.39,40.96L350.13,39.11L350.68,39.01L356.17,37.79L356.72,37.44L359.46,34.33L360.01,33.47L362.2,30.43L362.75,30.51L363.85,34.49L364.4,37.58L366.04,41.06L366.59,40.56L368.79,39.14L369.34,39.03L374.83,37.87L375.37,37.54L378.12,34.54L378.67,33.7L381.41,30.42L381.96,31.29L384.7,41.12L385.25,40.71L387.45,39.18L388,39.06L394.03,37.63L394.58,37.24L397.33,33.93L397.87,33.05L400.07,30.37L400.62,30.94L403.36,41.11L403.91,40.86L406.66,39.08L407.2,38.99L412.14,38.02L412.69,37.72L414.89,35.68L415.44,34.95L418.73,30.39L419.28,30.66L420.38,35.14L420.92,38.14L422.02,41.02L422.57,40.98L425.31,39.11L425.86,39.01L431.35,37.81L431.9,37.45L434.64,34.37L435.19,33.52L437.39,30.44L437.94,30.49L439.03,34.32L439.58,37.44L441.23,41.08L441.78,40.59L443.97,39.15L444.52,39.04L450.56,37.55L451.11,37.14L453.85,33.74L454.4,32.86L456.6,30.4L457.14,31.22L459.89,41.12L460.44,40.74L462.63,39.19L463.18,39.06L469.22,37.65L469.77,37.26L472.51,33.97L473.06,33.09L475.25,30.38L475.8,30.87L478.55,41.1L479.1,40.88L481.84,39.09L482.39,39L487.88,37.74L488.43,37.37L491.17,34.19L491.72,33.33L493.91,30.4L494.46,30.63L495.56,35.02L496.11,38.02L497.21,41L497.75,41L500.5,39.12L501.05,39.02L506.54,37.82L507.08,37.47L509.83,34.41L510.38,33.55L513.12,30.47L513.67,31.59L515.87,40.81L516.41,41.09L519.71,39.04L520.26,38.97L525.19,37.9L525.74,37.57L528.49,34.62L529.04,33.78L531.78,30.39L532.33,31.15L535.07,41.12L535.62,40.77L537.82,39.2L538.37,39.07L544.4,37.67L544.95,37.28L547.7,34.01L548.24,33.13L548.79,32.24" style="vector-effect: non-scaling-stroke; fill: none; stroke: rgb(195, 113, 210); stroke-opacity: 1; stroke-width: 1px; opacity: 1;"/></g><g class="points"/><g class="text"/></g><g class="trace scatter tracebdadd0" style="stroke-miterlimit: 2; opacity: 1;"><g class="fills"/><g class="errorbars"/><g class="lines"><path class="js-line" d="M0,75.74L1.1,76.1L1.65,75.74L2.74,73.01L3.29,69.97L4.94,63L5.49,65.95L7.13,79.58L7.68,79.76L28.54,79.78L29.09,79.78L548.79,79.78" style="vector-effect: non-scaling-stroke; fill: none; stroke: rgb(172, 142, 24); stroke-opacity: 1; stroke-width: 1px; opacity: 1;"/></g><g class="points"/><g class="text"/></g><g class="trace scatter trace3f3d46" style="stroke-miterlimit: 2; opacity: 1;"><g class="fills"/><g class="errorbars"/><g class="lines"><path class="js-line" d="M0,75.71L1.1,75.43L1.65,74.93L3.29,74.62L3.84,74.94L6.04,76.5L6.59,78.24L7.68,79.75L8.23,79.78L548.79,79.78" style="vector-effect: non-scaling-stroke; fill: none; stroke: rgb(0, 170, 174); stroke-opacity: 1; stroke-width: 1px; opacity: 1;"/></g><g class="points"/><g class="text"/></g><g class="trace scatter trace5354f6" style="stroke-miterlimit: 2; opacity: 1;"><g class="fills"/><g class="errorbars"/><g class="lines"><path class="js-line" d="M0,77.34L3.29,69.69L3.84,69.85L5.49,69.15L6.04,70.77L7.68,79.54L8.23,79.76L27.99,79.78L28.54,79.56L29.63,79.49L30.18,79.74L40.61,79.78L41.16,79.78L548.79,79.78" style="vector-effect: non-scaling-stroke; fill: none; stroke: rgb(237, 94, 147); stroke-opacity: 1; stroke-width: 1px; opacity: 1;"/></g><g class="points"/><g class="text"/></g><g class="trace scatter trace949c71" style="stroke-miterlimit: 2; opacity: 1;"><g class="fills"/><g class="errorbars"/><g class="lines"><path class="js-line" d="M0,78.4L2.74,76.08L3.29,76.17L6.59,77.12L7.13,77.75L9.33,79.75L9.88,79.77L51.59,79.78L52.14,79.78L548.79,79.78" style="vector-effect: non-scaling-stroke; fill: none; stroke: rgb(198, 130, 37); stroke-opacity: 1; stroke-width: 1px; opacity: 1;"/></g><g class="points"/><g class="text"/></g><g class="trace scatter trace2c5deb" style="stroke-miterlimit: 2; opacity: 1;"><g class="fills"/><g class="errorbars"/><g class="lines"><path class="js-line" d="M0,74.11L1.1,76.09L1.65,76.09L2.74,73.93L3.29,71.59L6.59,53.68L7.13,58.1L9.33,77.35L9.88,78.44L11.52,79.54L12.07,79.64L19.76,79.78L20.31,79.78L548.79,79.78" style="vector-effect: non-scaling-stroke; fill: none; stroke: rgb(0, 169, 141); stroke-opacity: 1; stroke-width: 1px; opacity: 1;"/></g><g class="points"/><g class="text"/></g><g class="trace scatter trace9924eb" style="stroke-miterlimit: 2; opacity: 1;"><g class="fills"/><g class="errorbars"/><g class="lines"><path class="js-line" d="M0,78.91L2.2,79.27L2.74,79.51L6.04,79.78L6.59,79.78L548.79,79.78" style="vector-effect: non-scaling-stroke; fill: none; stroke: rgb(142, 151, 30); stroke-opacity: 1; stroke-width: 1px; opacity: 1;"/></g><g class="points"/><g class="text"/></g><g class="trace scatter trace9991a1" style="stroke-miterlimit: 2; opacity: 1;"><g class="fills"/><g class="errorbars"/><g class="lines"><path class="js-line" d="M0,78.66L2.2,79.25L2.74,79.37L6.04,79.77L6.59,79.76L18.66,79.18L19.21,78.88L20.85,76.77L21.4,75.45L23.6,66.7L24.15,63.77L25.79,57.89L26.34,60.49L29.09,79.52L29.63,79.72L40.06,79.59L40.61,79.53L43.35,78.34L43.9,77.67L45.55,73.84L46.1,71.87L49.94,53.47L50.49,54L51.59,62.3L52.14,68.96L53.78,78.41L54.33,78.76L57.07,78.67L57.62,78.54L60.92,77.1L61.46,76.64L63.11,74.25L63.66,72.93L65.86,63.96L66.4,60.96L68.05,54.69L68.6,56.08L71.34,76.28L71.89,77.08L73.54,77.46L74.09,77.35L77.93,75.48L78.48,75.01L80.12,72.77L80.67,71.56L82.32,65.77L82.87,63.11L85.06,54.81L85.61,56.77L88.36,76.06L88.9,76.78L90.55,77.11L91.1,76.98L94.94,75.09L95.49,74.65L97.14,72.59L97.69,71.48L99.33,66.11L99.88,63.57L102.08,54.2L102.62,55.05L105.92,76.45L106.47,76.92L108.66,76.83L109.21,76.64L113.05,74.47L113.6,73.95L115.25,71.4L115.8,70.03L117.99,60.85L118.54,57.97L119.64,53.75L120.19,53.94L121.28,62.87L121.83,68.38L123.48,76.18L124.03,76.8L125.67,77.03L126.22,76.89L130.61,74.71L131.16,74.27L133.36,71.1L133.91,69.69L136.1,60.32L136.65,57.44L137.75,53.27L138.3,53.5L139.39,62.67L139.94,68.28L141.59,76.12L142.14,76.78L143.78,77.03L144.33,76.89L148.72,74.78L149.27,74.37L151.47,71.5L152.02,70.23L154.21,61.46L154.76,58.55L156.41,52.78L156.95,54.41L159.7,75.46L160.25,76.48L161.89,77.07L162.44,76.97L166.83,75L167.38,74.63L169.58,72.23L170.13,71.18L171.77,66.06L172.32,63.57L175.06,52.67L175.61,54.85L178.36,75.65L178.91,76.56L180.55,77.06L181.1,76.95L185.49,74.95L186.04,74.59L188.24,72.18L188.78,71.14L190.43,66.01L190.98,63.52L193.72,52.56L194.27,54.67L197.02,75.59L197.57,76.53L199.21,77.05L199.76,76.95L204.15,74.97L204.7,74.61L206.89,72.26L207.44,71.25L209.09,66.25L209.64,63.8L212.38,52.46L212.93,54.14L215.68,75.39L216.22,76.44L217.87,77.06L218.42,76.96L222.81,75.02L223.36,74.66L225.55,72.41L226.1,71.44L227.75,66.64L228.3,64.26L231.04,52.43L231.59,53.54L234.33,75.08L234.88,76.29L236.53,77.07L237.08,76.99L241.47,75.08L242.02,74.74L244.21,72.58L244.76,71.66L246.41,67.1L246.96,64.81L249.7,52.51L250.25,53.01L253.54,76.09L254.09,76.75L255.74,77.01L256.29,76.88L260.68,74.82L261.23,74.44L263.42,71.9L263.97,70.79L265.62,65.39L266.16,62.81L268.36,52.72L268.91,52.64L270.01,61.31L270.55,67.35L272.2,75.83L272.75,76.64L274.4,77.03L274.95,76.91L279.34,74.9L279.88,74.54L282.08,72.13L282.63,71.09L284.27,65.97L284.82,63.48L287.57,52.43L288.12,54.42L290.86,75.51L291.41,76.49L293.06,77.05L293.6,76.95L297.99,74.99L298.54,74.63L300.74,72.36L301.29,71.38L302.93,66.54L303.48,64.15L306.23,52.39L306.78,53.59L309.52,75.12L310.07,76.31L311.71,77.07L312.26,76.98L316.1,75.39L316.65,75.08L319.4,72.57L319.95,71.66L321.59,67.09L322.14,64.8L324.89,52.5L325.43,52.98L328.73,76.08L329.28,76.74L330.92,77.01L331.47,76.88L335.86,74.82L336.41,74.44L338.61,71.92L339.15,70.81L340.8,65.44L341.35,62.87L343.54,52.74L344.09,52.6L345.19,61.13L345.74,67.21L347.39,75.8L347.93,76.62L349.58,77.04L350.13,76.92L354.52,74.91L355.07,74.55L357.26,72.16L357.81,71.13L359.46,66.05L360.01,63.57L362.75,52.41L363.3,54.28L366.04,75.46L366.59,76.46L368.24,77.06L368.79,76.96L373.18,75L373.73,74.65L375.92,72.39L376.47,71.42L378.12,66.63L378.67,64.26L381.41,52.4L381.96,53.47L384.7,75.05L385.25,76.27L386.9,77.07L387.45,76.99L391.84,75.09L392.39,74.74L394.58,72.61L395.13,71.7L396.78,67.18L397.33,64.91L400.07,52.53L400.62,52.9L401.72,62.54L402.27,68.27L403.91,76.03L404.46,76.73L406.11,77.02L406.66,76.89L411.59,74.46L412.14,74.02L414.34,70.87L414.89,69.47L417.08,60.15L417.63,57.24L419.28,52.55L419.83,55.13L422.02,74L422.57,75.74L424.22,77.07L424.77,77.04L428.61,75.55L429.16,75.25L431.9,73L432.45,72.2L434.09,68.21L434.64,66.15L437.94,52.39L438.49,54.12L441.23,75.39L441.78,76.43L443.42,77.06L443.97,76.96L448.36,75.02L448.91,74.67L451.11,72.43L451.66,71.48L453.3,66.73L453.85,64.38L456.6,52.41L457.14,53.35L460.44,76.23L460.99,76.81L462.63,76.99L463.18,76.85L468.12,74.37L468.67,73.91L470.32,71.75L470.86,70.6L472.51,65.03L473.06,62.41L475.25,52.57L475.8,52.82L476.9,62.23L477.45,68.04L479.1,75.98L479.64,76.7L481.29,77.02L481.84,76.89L486.23,74.86L486.78,74.48L488.97,72.01L489.52,70.93L491.17,65.66L491.72,63.13L494.46,52.51L495.01,54.92L497.21,73.89L497.75,75.68L499.4,77.07L499.95,77.04L503.79,75.56L504.34,75.27L507.08,73.03L507.63,72.25L509.28,68.3L509.83,66.26L513.12,52.38L513.67,53.96L516.41,75.32L516.96,76.4L518.61,77.06L519.16,76.97L523.55,75.03L524.1,74.68L526.29,72.47L526.84,71.53L528.49,66.84L529.04,64.5L531.78,52.43L532.33,53.24L535.62,76.19L536.17,76.79L537.82,77L538.37,76.86L543.3,74.39L543.85,73.93L545.5,71.8L546.05,70.66L547.7,65.15L548.24,62.54L548.79,59.67" style="vector-effect: non-scaling-stroke; fill: none; stroke: rgb(0, 169, 204); stroke-opacity: 1; stroke-width: 1px; opacity: 1;"/></g><g class="points"/><g class="text"/></g><g class="trace scatter traceb1b04a" style="stroke-miterlimit: 2; opacity: 1;"><g class="fills"/><g class="errorbars"/><g class="lines"><path class="js-line" d="M0,78.97L4.94,79.01L5.49,78.82L6.59,78.83L7.13,79.48L9.33,79.78L9.88,79.78L548.79,79.78" style="vector-effect: non-scaling-stroke; fill: none; stroke: rgb(155, 127, 233); stroke-opacity: 1; stroke-width: 1px; opacity: 1;"/></g><g class="points"/><g class="text"/></g><g class="trace scatter tracea33786" style="stroke-miterlimit: 2; opacity: 1;"><g class="fills"/><g class="errorbars"/><g class="lines"><path class="js-line" d="M0,75.63L1.65,76.25L2.2,76.8L5.49,79.53L6.04,79.67L11.52,79.78L12.07,79.78L548.79,79.78" style="vector-effect: non-scaling-stroke; fill: none; stroke: rgb(97, 141, 246); stroke-opacity: 1; stroke-width: 1px; opacity: 1;"/></g><g class="points"/><g class="text"/></g><g class="trace scatter tracebfd126" style="stroke-miterlimit: 2; opacity: 1;"><g class="fills"/><g class="errorbars"/><g class="lines"><path class="js-line" d="M0,72.2L1.1,72.28L1.65,71.69L2.2,71.37L2.74,72.21L4.94,79.18L5.49,79.53L8.78,79.78L9.33,79.78L548.79,79.78" style="vector-effect: non-scaling-stroke; fill: none; stroke: rgb(240, 96, 115); stroke-opacity: 1; stroke-width: 1px; opacity: 1;"/></g><g class="points"/><g class="text"/></g><g class="trace scatter trace829e08" style="stroke-miterlimit: 2; opacity: 1;"><g class="fills"/><g class="errorbars"/><g class="lines"><path class="js-line" d="M0,76.02L1.1,74.83L1.65,75.14L4.39,79.44L4.94,79.57L15.37,79.78L15.91,79.78L548.79,79.78" style="vector-effect: non-scaling-stroke; fill: none; stroke: rgb(221, 101, 182); stroke-opacity: 1; stroke-width: 1px; opacity: 1;"/></g><g class="points"/><g class="text"/></g><g class="trace scatter tracec5513e" style="stroke-miterlimit: 2; opacity: 1;"><g class="fills"/><g class="errorbars"/><g class="lines"><path class="js-line" d="M0,73.09L5.49,79.4L6.04,79.64L9.88,79.78L10.43,79.78L548.79,79.78" style="vector-effect: non-scaling-stroke; fill: none; stroke: rgb(108, 159, 51); stroke-opacity: 1; stroke-width: 1px; opacity: 1;"/></g><g class="points"/><g class="text"/></g></g></g><g class="overplot"/><path class="xlines-above crisp" d="M46.27034120734907,103.16841644794403H596.0629921259842" style="fill: none; stroke-width: 1px; stroke: rgb(0, 0, 0); stroke-opacity: 1;"/><path class="ylines-above crisp" d="M46.77034120734907,22.887139107611553V102.66841644794403" style="fill: none; stroke-width: 1px; stroke: rgb(0, 0, 0); stroke-opacity: 1;"/><g class="overlines-above"/><g class="xaxislayer-above"><path class="xtick ticks crisp" d="M0,102.66841644794403v-5" transform="translate(157.03034120734907,0)" style="stroke: rgb(0, 0, 0); stroke-opacity: 1; stroke-width: 1px;"/><path class="xtick ticks crisp" d="M0,102.66841644794403v-5" transform="translate(266.79034120734906,0)" style="stroke: rgb(0, 0, 0); stroke-opacity: 1; stroke-width: 1px;"/><path class="xtick ticks crisp" d="M0,102.66841644794403v-5" transform="translate(376.55034120734905,0)" style="stroke: rgb(0, 0, 0); stroke-opacity: 1; stroke-width: 1px;"/><path class="xtick ticks crisp" d="M0,102.66841644794403v-5" transform="translate(486.30034120734905,0)" style="stroke: rgb(0, 0, 0); stroke-opacity: 1; stroke-width: 1px;"/><g class="xtick"><text text-anchor="middle" x="0" y="124.06841644794403" transform="translate(47.27034120734907,0)" style="font-family: sans-serif; font-size: 17px; fill: rgb(0, 0, 0); fill-opacity: 1; white-space: pre; opacity: 1;">0</text></g><g class="xtick"><text text-anchor="middle" x="0" y="124.06841644794403" style="font-family: sans-serif; font-size: 17px; fill: rgb(0, 0, 0); fill-opacity: 1; white-space: pre; opacity: 1;" transform="translate(157.03034120734907,0)">2000</text></g><g class="xtick"><text text-anchor="middle" x="0" y="124.06841644794403" style="font-family: sans-serif; font-size: 17px; fill: rgb(0, 0, 0); fill-opacity: 1; white-space: pre; opacity: 1;" transform="translate(266.79034120734906,0)">4000</text></g><g class="xtick"><text text-anchor="middle" x="0" y="124.06841644794403" style="font-family: sans-serif; font-size: 17px; fill: rgb(0, 0, 0); fill-opacity: 1; white-space: pre; opacity: 1;" transform="translate(376.55034120734905,0)">6000</text></g><g class="xtick"><text text-anchor="middle" x="0" y="124.06841644794403" style="font-family: sans-serif; font-size: 17px; fill: rgb(0, 0, 0); fill-opacity: 1; white-space: pre; opacity: 1;" transform="translate(486.30034120734905,0)">8000</text></g><g class="xtick"><text text-anchor="middle" x="0" y="124.06841644794403" style="font-family: sans-serif; font-size: 17px; fill: rgb(0, 0, 0); fill-opacity: 1; white-space: pre; opacity: 0;" transform="translate(596.060341207349,0)">10000</text></g></g><g class="yaxislayer-above"><path class="ytick ticks crisp" d="M47.27034120734907,0h5" transform="translate(0,83.16713910761155)" style="stroke: rgb(0, 0, 0); stroke-opacity: 1; stroke-width: 1px;"/><path class="ytick ticks crisp" d="M47.27034120734907,0h5" transform="translate(0,63.657139107611556)" style="stroke: rgb(0, 0, 0); stroke-opacity: 1; stroke-width: 1px;"/><path class="ytick ticks crisp" d="M47.27034120734907,0h5" transform="translate(0,44.157139107611556)" style="stroke: rgb(0, 0, 0); stroke-opacity: 1; stroke-width: 1px;"/><path class="ytick ticks crisp" d="M47.27034120734907,0h5" transform="translate(0,24.657139107611552)" style="stroke: rgb(0, 0, 0); stroke-opacity: 1; stroke-width: 1px;"/><g class="ytick"><text text-anchor="end" x="42.87034120734907" y="5.949999999999999" transform="translate(0,102.66713910761155)" style="font-family: sans-serif; font-size: 17px; fill: rgb(0, 0, 0); fill-opacity: 1; white-space: pre; opacity: 1;">0</text></g><g class="ytick"><text text-anchor="end" x="42.87034120734907" y="5.949999999999999" style="font-family: sans-serif; font-size: 17px; fill: rgb(0, 0, 0); fill-opacity: 1; white-space: pre; opacity: 1;" transform="translate(0,83.16713910761155)">5</text></g><g class="ytick"><text text-anchor="end" x="42.87034120734907" y="5.949999999999999" style="font-family: sans-serif; font-size: 17px; fill: rgb(0, 0, 0); fill-opacity: 1; white-space: pre; opacity: 1;" transform="translate(0,63.657139107611556)">10</text></g><g class="ytick"><text text-anchor="end" x="42.87034120734907" y="5.949999999999999" style="font-family: sans-serif; font-size: 17px; fill: rgb(0, 0, 0); fill-opacity: 1; white-space: pre; opacity: 1;" transform="translate(0,44.157139107611556)">15</text></g><g class="ytick"><text text-anchor="end" x="42.87034120734907" y="5.949999999999999" style="font-family: sans-serif; font-size: 17px; fill: rgb(0, 0, 0); fill-opacity: 1; white-space: pre; opacity: 1;" transform="translate(0,24.657139107611552)">20</text></g></g><g class="overaxes-above"/></g></g><g class="polarlayer"/><g class="ternarylayer"/><g class="geolayer"/><g class="funnelarealayer"/><g class="pielayer"/><g class="iciclelayer"/><g class="treemaplayer"/><g class="sunburstlayer"/><g class="glimages"/><defs id="topdefs-c8b307"><g class="clips"/></defs><g class="layer-above"><g class="imagelayer"/><g class="shapelayer"/></g><g class="infolayer"><g class="g-gtitle"/><g class="g-xtitle" transform="translate(0,-17.668416447944026)"><text class="xtitle" x="321.6666666666667" y="163.66841644794403" text-anchor="middle" style="font-family: sans-serif; font-size: 17px; fill: rgb(0, 0, 0); opacity: 1; font-weight: normal; white-space: pre;">Time</text></g><g class="g-ytitle" transform="translate(12.2294921875,0)"><text class="ytitle" transform="rotate(-90,3.2703412073490696,62.777777777777786)" x="3.2703412073490696" y="62.777777777777786" text-anchor="middle" style="font-family: sans-serif; font-size: 17px; fill: rgb(0, 0, 0); opacity: 1; font-weight: normal; white-space: pre;">Density</text></g></g></svg>